<?xml version="1.0" encoding="UTF-8" standalone="no"?>
<svg width="82px" height="63px" viewBox="0 0 82 63" version="1.1" xmlns="http://www.w3.org/2000/svg" xmlns:xlink="http://www.w3.org/1999/xlink">
    <!-- Generator: Sketch 41.2 (35397) - http://www.bohemiancoding.com/sketch -->
    <title>building</title>
    <desc>Created with Sketch.</desc>
    <defs></defs>
    <g id="Page-1" stroke="none" stroke-width="1" fill="none" fill-rule="evenodd">
        <g id="building" fill="#D5234C">
            <path d="M31.361,60.048 L52.648,60.048 L52.648,3.577 L31.361,3.577 L31.361,60.048 Z M6.028,60.048 L28.722,60.048 L28.722,30.317 L6.028,30.317 L6.028,60.048 Z M6.028,27.678 L28.722,27.678 L28.722,26.094 L6.028,26.094 L6.028,27.678 Z M62.483,14.835 C63.11,14.835 63.651,14.394 63.775,13.779 C63.982,12.76 64.889,12.02 65.93,12.02 C66.972,12.02 67.878,12.76 68.084,13.779 C68.209,14.394 68.75,14.835 69.378,14.835 L76.574,14.835 L76.574,60.048 L55.287,60.048 L55.287,14.835 L62.483,14.835 Z M80.707,60.048 L79.213,60.048 L79.213,13.516 C79.213,12.788 78.621,12.197 77.893,12.197 L70.324,12.197 C69.548,10.517 67.843,9.382 65.93,9.382 C64.017,9.382 62.312,10.517 61.536,12.197 L55.287,12.197 L55.287,3.577 L55.374,3.577 C56.103,3.577 56.694,2.986 56.694,2.257 C56.694,1.529 56.103,0.938 55.374,0.938 L28.635,0.938 C27.905,0.938 27.315,1.529 27.315,2.257 C27.315,2.986 27.905,3.577 28.635,3.577 L28.722,3.577 L28.722,23.455 L3.301,23.455 C2.573,23.455 1.982,24.047 1.982,24.775 C1.982,25.504 2.573,26.094 3.301,26.094 L3.39,26.094 L3.39,60.048 L1.894,60.048 C1.166,60.048 0.575,60.639 0.575,61.367 C0.575,62.096 1.166,62.687 1.894,62.687 L80.707,62.687 C81.436,62.687 82.026,62.096 82.026,61.367 C82.026,60.639 81.436,60.048 80.707,60.048 L80.707,60.048 Z" id="Fill-503"></path>
            <path d="M59.509,45.974 L62.5,45.974 L62.5,42.983 L59.509,42.983 L59.509,45.974 Z M59.509,53.011 L62.5,53.011 L62.5,48.613 L59.509,48.613 L59.509,53.011 Z M58.189,55.65 L63.819,55.65 C64.548,55.65 65.139,55.059 65.139,54.331 L65.139,41.664 C65.139,40.935 64.548,40.344 63.819,40.344 L58.189,40.344 C57.461,40.344 56.87,40.935 56.87,41.664 L56.87,54.331 C56.87,55.059 57.461,55.65 58.189,55.65 L58.189,55.65 Z" id="Fill-504"></path>
            <path d="M69.361,45.974 L72.351,45.974 L72.351,42.983 L69.361,42.983 L69.361,45.974 Z M69.361,53.011 L72.351,53.011 L72.351,48.613 L69.361,48.613 L69.361,53.011 Z M68.041,55.65 L73.67,55.65 C74.4,55.65 74.99,55.059 74.99,54.331 L74.99,41.664 C74.99,40.935 74.4,40.344 73.67,40.344 L68.041,40.344 C67.313,40.344 66.722,40.935 66.722,41.664 L66.722,54.331 C66.722,55.059 67.313,55.65 68.041,55.65 L68.041,55.65 Z" id="Fill-505"></path>
            <path d="M59.509,26.27 L62.5,26.27 L62.5,23.28 L59.509,23.28 L59.509,26.27 Z M59.509,33.307 L62.5,33.307 L62.5,28.909 L59.509,28.909 L59.509,33.307 Z M58.189,35.946 L63.819,35.946 C64.548,35.946 65.139,35.355 65.139,34.627 L65.139,22.312 C65.139,21.391 64.389,20.642 63.467,20.642 L58.542,20.642 C57.62,20.642 56.87,21.391 56.87,22.312 L56.87,34.627 C56.87,35.355 57.461,35.946 58.189,35.946 L58.189,35.946 Z" id="Fill-506"></path>
            <path d="M69.361,26.27 L72.351,26.27 L72.351,23.28 L69.361,23.28 L69.361,26.27 Z M69.361,33.307 L72.351,33.307 L72.351,28.909 L69.361,28.909 L69.361,33.307 Z M68.041,35.946 L73.67,35.946 C74.4,35.946 74.99,35.355 74.99,34.627 L74.99,22.312 C74.99,21.391 74.241,20.642 73.319,20.642 L68.392,20.642 C67.472,20.642 66.722,21.391 66.722,22.312 L66.722,34.627 C66.722,35.355 67.313,35.946 68.041,35.946 L68.041,35.946 Z" id="Fill-507"></path>
            <path d="M35.583,53.011 L38.574,53.011 L38.574,48.613 L35.583,48.613 L35.583,53.011 Z M35.583,45.974 L38.574,45.974 L38.574,44.391 L35.583,44.391 L35.583,45.974 Z M39.894,41.752 L34.264,41.752 C33.535,41.752 32.944,42.342 32.944,43.072 L32.944,54.331 C32.944,55.059 33.535,55.65 34.264,55.65 L39.894,55.65 C40.622,55.65 41.213,55.059 41.213,54.331 L41.213,43.072 C41.213,42.342 40.622,41.752 39.894,41.752 L39.894,41.752 Z" id="Fill-508"></path>
            <path d="M45.435,53.011 L48.426,53.011 L48.426,48.613 L45.435,48.613 L45.435,53.011 Z M45.435,45.974 L48.426,45.974 L48.426,44.391 L45.435,44.391 L45.435,45.974 Z M49.745,41.752 L44.116,41.752 C43.387,41.752 42.796,42.342 42.796,43.072 L42.796,54.331 C42.796,55.059 43.387,55.65 44.116,55.65 L49.745,55.65 C50.474,55.65 51.065,55.059 51.065,54.331 L51.065,43.072 C51.065,42.342 50.474,41.752 49.745,41.752 L49.745,41.752 Z" id="Fill-509"></path>
            <path d="M35.583,36.122 L38.574,36.122 L38.574,31.724 L35.583,31.724 L35.583,36.122 Z M35.583,29.085 L38.574,29.085 L38.574,27.502 L35.583,27.502 L35.583,29.085 Z M39.894,24.863 L34.264,24.863 C33.535,24.863 32.944,25.454 32.944,26.183 L32.944,37.442 C32.944,38.17 33.535,38.761 34.264,38.761 L39.894,38.761 C40.622,38.761 41.213,38.17 41.213,37.442 L41.213,26.183 C41.213,25.454 40.622,24.863 39.894,24.863 L39.894,24.863 Z" id="Fill-510"></path>
            <path d="M45.435,36.122 L48.426,36.122 L48.426,31.724 L45.435,31.724 L45.435,36.122 Z M45.435,29.085 L48.426,29.085 L48.426,27.502 L45.435,27.502 L45.435,29.085 Z M49.745,24.863 L44.116,24.863 C43.387,24.863 42.796,25.454 42.796,26.183 L42.796,37.442 C42.796,38.17 43.387,38.761 44.116,38.761 L49.745,38.761 C50.474,38.761 51.065,38.17 51.065,37.442 L51.065,26.183 C51.065,25.454 50.474,24.863 49.745,24.863 L49.745,24.863 Z" id="Fill-511"></path>
            <path d="M35.583,19.233 L38.574,19.233 L38.574,14.835 L35.583,14.835 L35.583,19.233 Z M35.583,12.197 L38.574,12.197 L38.574,10.614 L35.583,10.614 L35.583,12.197 Z M39.894,7.975 L34.264,7.975 C33.535,7.975 32.944,8.566 32.944,9.294 L32.944,20.553 C32.944,21.281 33.535,21.872 34.264,21.872 L39.894,21.872 C40.622,21.872 41.213,21.281 41.213,20.553 L41.213,9.294 C41.213,8.566 40.622,7.975 39.894,7.975 L39.894,7.975 Z" id="Fill-512"></path>
            <path d="M45.435,19.233 L48.426,19.233 L48.426,14.835 L45.435,14.835 L45.435,19.233 Z M45.435,12.197 L48.426,12.197 L48.426,10.614 L45.435,10.614 L45.435,12.197 Z M49.745,7.975 L44.116,7.975 C43.387,7.975 42.796,8.566 42.796,9.294 L42.796,20.553 C42.796,21.281 43.387,21.872 44.116,21.872 L49.745,21.872 C50.474,21.872 51.065,21.281 51.065,20.553 L51.065,9.294 C51.065,8.566 50.474,7.975 49.745,7.975 L49.745,7.975 Z" id="Fill-513"></path>
            <path d="M18.694,54.418 L24.5,54.418 L24.5,50.02 L18.694,50.02 L18.694,54.418 Z M10.25,54.418 L16.055,54.418 L16.055,50.02 L10.25,50.02 L10.25,54.418 Z M10.25,40.344 L16.055,40.344 L16.055,35.946 L10.25,35.946 L10.25,40.344 Z M18.694,40.344 L24.5,40.344 L24.5,35.946 L18.694,35.946 L18.694,40.344 Z M18.694,47.381 L24.5,47.381 L24.5,42.983 L18.694,42.983 L18.694,47.381 Z M10.25,47.381 L16.055,47.381 L16.055,42.983 L10.25,42.983 L10.25,47.381 Z M25.82,33.307 L8.931,33.307 C8.203,33.307 7.612,33.898 7.612,34.627 L7.612,55.738 C7.612,56.466 8.203,57.057 8.931,57.057 L25.82,57.057 C26.548,57.057 27.139,56.466 27.139,55.738 L27.139,34.627 C27.139,33.898 26.548,33.307 25.82,33.307 L25.82,33.307 Z" id="Fill-514"></path>
        </g>
    </g>
</svg>