<?xml version="1.0" encoding="UTF-8" standalone="no"?>
<svg width="70px" height="69px" viewBox="0 0 70 69" version="1.1" xmlns="http://www.w3.org/2000/svg" xmlns:xlink="http://www.w3.org/1999/xlink">
    <!-- Generator: Sketch 41.2 (35397) - http://www.bohemiancoding.com/sketch -->
    <title>cog</title>
    <desc>Created with Sketch.</desc>
    <defs></defs>
    <g id="Page-1" stroke="none" stroke-width="1" fill="none" fill-rule="evenodd">
        <g id="cog" fill="#235C98">
            <path d="M34.2113,0.8113 L30.7973,2.2193 C28.9713,2.9713 28.1073,5.0753 28.8603,6.8873 L29.7373,9.0053 C28.0243,10.2723 26.5333,11.7773 25.2513,13.4913 L23.1333,12.6133 C22.2553,12.2513 21.2803,12.2513 20.4023,12.6133 C19.5243,12.9753 18.8283,13.6723 18.4653,14.5513 L17.0433,17.9643 C16.2913,19.7903 17.1553,21.8803 18.9813,22.6323 L22.1163,23.9283 C22.8263,24.2213 23.6213,23.8863 23.9133,23.1763 C24.2063,22.4653 23.8713,21.6713 23.1613,21.3783 L20.0263,20.0823 C19.6073,19.9153 19.4133,19.4283 19.5803,19.0093 L21.0013,15.5963 C21.0843,15.4003 21.2383,15.2333 21.4473,15.1493 C21.6423,15.0663 21.8653,15.0663 22.0743,15.1493 L25.2093,16.4453 C25.8233,16.6973 26.5193,16.4873 26.8813,15.9443 C28.2893,13.8263 30.0723,12.0423 32.1903,10.6353 C32.7343,10.2723 32.9563,9.5623 32.7063,8.9633 L31.4103,5.8273 C31.2423,5.4103 31.4383,4.9353 31.8553,4.7543 L35.2703,3.3473 C35.4653,3.2643 35.6873,3.2643 35.8973,3.3473 C36.0923,3.4313 36.2593,3.5843 36.3433,3.7933 L37.6393,6.9283 C37.8893,7.5413 38.5303,7.8903 39.1853,7.7503 C41.6653,7.2493 44.2023,7.2633 46.6823,7.7503 C47.3233,7.8763 47.9783,7.5283 48.2283,6.9283 L49.5243,3.7933 C49.6923,3.3753 50.1803,3.1803 50.5973,3.3473 L54.0123,4.7693 C54.2063,4.8533 54.3743,5.0063 54.4573,5.2143 C54.5413,5.4103 54.5413,5.6323 54.4573,5.8423 L53.1613,8.9773 C52.9113,9.5903 53.1203,10.2873 53.6633,10.6493 C55.7813,12.0563 57.5653,13.8403 58.9713,15.9583 C59.3343,16.5013 60.0443,16.7243 60.6443,16.4733 L63.7793,15.1773 C63.9883,15.0943 64.1973,15.0943 64.4063,15.1773 C64.6013,15.2613 64.7683,15.4143 64.8523,15.6243 L66.2603,19.0373 C66.3433,19.2323 66.3433,19.4563 66.2603,19.6643 C66.1763,19.8603 66.0223,20.0263 65.8133,20.1103 L62.6783,21.4063 C62.0653,21.6573 61.7313,22.2983 61.8563,22.9533 C62.3583,25.4333 62.3443,27.9693 61.8563,30.4493 C61.7313,31.0903 62.0803,31.7453 62.6783,31.9963 L65.8133,33.2923 C66.2323,33.4593 66.4273,33.9473 66.2603,34.3653 L64.8393,37.7793 C64.6713,38.1973 64.1833,38.3923 63.7663,38.2253 L60.6303,36.9293 C60.0173,36.6783 59.3203,36.8873 58.9583,37.4313 C57.5513,39.5493 55.7673,41.3323 53.6493,42.7403 C53.1053,43.1023 52.8833,43.8133 53.1333,44.4113 L54.4293,47.5473 C54.5133,47.7423 54.5133,47.9653 54.4293,48.1743 C54.3463,48.3693 54.1933,48.5363 53.9843,48.6203 L50.5703,50.0273 C50.3743,50.1113 50.1523,50.1113 49.9423,50.0273 C49.7483,49.9443 49.5803,49.7903 49.4973,49.5813 L48.2003,46.4463 C47.9083,45.7353 47.1003,45.4013 46.4043,45.6933 C45.6933,45.9863 45.3583,46.7943 45.6513,47.4913 L46.9463,50.6263 C47.3093,51.5043 48.0063,52.2013 48.8833,52.5633 C49.3293,52.7443 49.7893,52.8423 50.2493,52.8423 C50.7093,52.8423 51.1823,52.7443 51.6153,52.5633 L55.0293,51.1563 C55.9063,50.7933 56.6033,50.0973 56.9653,49.2193 C57.3283,48.3413 57.3283,47.3663 56.9653,46.4883 L56.0873,44.3703 C57.8013,43.1023 59.2933,41.5973 60.5753,39.8833 L62.6933,40.7613 C64.5183,41.5133 66.6083,40.6493 67.3603,38.8243 L68.7813,35.4103 C69.5343,33.5843 68.6703,31.4943 66.8453,30.7423 L64.7273,29.8643 C65.0333,27.7603 65.0333,25.6283 64.7273,23.5243 L66.8453,22.6473 C67.7233,22.2843 68.4193,21.5873 68.7813,20.7093 C69.1443,19.8323 69.1443,18.8563 68.7813,17.9783 L67.3743,14.5643 C67.0123,13.6863 66.3153,12.9903 65.4373,12.6273 C64.5603,12.2653 63.5843,12.2653 62.7063,12.6273 L60.5883,13.5053 C59.3203,11.7923 57.8153,10.2873 56.1153,9.0183 L56.9933,6.9003 C57.3563,6.0233 57.3563,5.0473 56.9933,4.1693 C56.6313,3.2923 55.9343,2.5953 55.0573,2.2323 L51.6423,0.8113 C49.8173,0.0583 47.7273,0.9233 46.9743,2.7483 L46.0973,4.8663 C43.9923,4.5593 41.8613,4.5593 39.7573,4.8663 L38.8783,2.7483 C38.5173,1.8703 37.8203,1.1743 36.9423,0.8113 C36.0643,0.4493 35.0893,0.4493 34.2113,0.8113" id="Fill-499"></path>
            <path d="M54.137,26.604 C54.095,20.445 49.065,15.47 42.92,15.47 L42.837,15.47 C39.84,15.498 37.025,16.683 34.922,18.815 C32.818,20.946 31.675,23.775 31.689,26.771 C31.689,27.524 32.316,28.137 33.068,28.137 L33.082,28.137 C33.849,28.137 34.462,27.51 34.448,26.743 C34.434,24.486 35.298,22.354 36.887,20.738 C38.475,19.121 40.593,18.229 42.85,18.215 L42.906,18.215 C47.546,18.215 51.336,21.977 51.364,26.618 C51.392,31.286 47.63,35.104 42.962,35.146 C42.196,35.146 41.582,35.773 41.596,36.539 C41.596,37.291 42.224,37.905 42.975,37.905 L42.99,37.905 C49.191,37.863 54.179,32.791 54.137,26.604" id="Fill-500"></path>
            <path d="M13.4071,59.3631 C13.1701,59.2101 12.9061,59.1261 12.6401,59.1261 C12.2781,59.1261 11.9301,59.2661 11.6651,59.5301 L9.9231,61.2721 C9.8681,61.3281 9.8121,61.3421 9.7701,61.3421 C9.7281,61.3421 9.6721,61.3281 9.6171,61.2721 L7.7221,59.3771 C7.6381,59.2941 7.6381,59.1541 7.7221,59.0701 L9.4641,57.3291 C9.9231,56.8691 10.0071,56.1301 9.6311,55.5871 C8.6271,54.0961 7.9451,52.4381 7.5971,50.6821 C7.4711,50.0411 6.9001,49.5671 6.2451,49.5671 L3.7781,49.5671 C3.6531,49.5671 3.5561,49.4701 3.5561,49.3441 L3.5561,46.6551 C3.5561,46.5301 3.6531,46.4321 3.7781,46.4321 L6.2451,46.4321 C6.9001,46.4321 7.4711,45.9721 7.5971,45.3171 C7.9451,43.5621 8.6271,41.9041 9.6311,40.4131 C9.9931,39.8691 9.9231,39.1301 9.4641,38.6711 L7.7221,36.9291 C7.6381,36.8461 7.6381,36.7061 7.7221,36.6221 L9.6171,34.7281 C9.6721,34.6721 9.7281,34.6581 9.7701,34.6581 C9.8121,34.6581 9.8681,34.6721 9.9231,34.7281 L11.6651,36.4971 C12.1251,36.9571 12.8631,37.0401 13.4071,36.6641 C14.8981,35.6611 16.5561,34.9781 18.3121,34.6301 C18.9531,34.5041 19.4261,33.9331 19.4261,33.2781 L19.4261,30.8121 C19.4261,30.6861 19.5241,30.5891 19.6501,30.5891 L22.3391,30.5891 C22.4641,30.5891 22.5621,30.6861 22.5621,30.8121 L22.5621,33.2781 C22.5621,33.9331 23.0221,34.5041 23.6771,34.6301 C25.4321,34.9781 27.0901,35.6611 28.5821,36.6641 C29.1251,37.0271 29.8641,36.9571 30.3241,36.4971 L32.0651,34.7551 C32.1211,34.7001 32.1761,34.6851 32.2181,34.6851 C32.2601,34.6851 32.3161,34.7001 32.3711,34.7551 L34.2661,36.6501 C34.3221,36.7061 34.3361,36.7621 34.3361,36.8031 C34.3361,36.8461 34.3221,36.9021 34.2661,36.9571 L32.5241,38.6981 C32.0651,39.1581 31.9821,39.8971 32.3581,40.4401 C33.3611,41.9321 34.0441,43.5901 34.3921,45.3451 C34.5171,45.9871 35.0891,46.4601 35.7431,46.4601 L38.2101,46.4601 C38.3361,46.4601 38.4331,46.5571 38.4331,46.6831 L38.4331,49.3721 C38.4331,49.4971 38.3361,49.5951 38.2101,49.5951 L35.7431,49.5951 C35.0891,49.5951 34.5171,50.0551 34.3921,50.7101 C34.0441,52.4661 33.3611,54.1241 32.3581,55.6151 C31.9951,56.1581 32.0651,56.8971 32.5241,57.3561 L34.2661,59.0981 C34.3221,59.1541 34.3361,59.2101 34.3361,59.2511 C34.3361,59.2941 34.3221,59.3491 34.2661,59.4051 L32.3711,61.3001 C32.3161,61.3561 32.2601,61.3691 32.2181,61.3691 C32.1761,61.3691 32.1211,61.3561 32.0651,61.3001 L30.3241,59.5581 C29.8641,59.0981 29.1251,59.0151 28.5821,59.3911 C27.0901,60.3941 25.4321,61.0771 23.6771,61.4251 C23.0361,61.5511 22.5621,62.1221 22.5621,62.7771 L22.5621,65.2431 C22.5621,65.3691 22.4641,65.4671 22.3391,65.4671 L19.6501,65.4671 C19.5241,65.4671 19.4261,65.3691 19.4261,65.2431 L19.4261,62.7771 C19.4261,62.1221 18.9661,61.5511 18.3121,61.4251 C16.5561,61.0491 14.8981,60.3661 13.4071,59.3631 M19.6351,68.1981 L22.3251,68.1981 C23.9691,68.1981 25.3071,66.8601 25.3071,65.2161 L25.3071,63.8361 C26.6451,63.4741 27.9271,62.9441 29.1251,62.2481 L30.1001,63.2231 C30.6581,63.7801 31.4101,64.1011 32.2041,64.1011 C32.9991,64.1011 33.7511,63.7941 34.3081,63.2231 L36.2031,61.3281 C36.7611,60.7711 37.0811,60.0181 37.0811,59.2241 C37.0811,58.4291 36.7751,57.6771 36.2031,57.1201 L35.2281,56.1441 C35.9251,54.9461 36.4541,53.6641 36.8161,52.3261 L38.1961,52.3261 C39.8401,52.3261 41.1781,50.9891 41.1781,49.3441 L41.1781,46.6551 C41.1781,45.0111 39.8401,43.6731 38.1961,43.6731 L36.8161,43.6731 C36.4541,42.3361 35.9251,41.0541 35.2281,39.8551 L36.2031,38.8801 C36.7611,38.3231 37.0811,37.5701 37.0811,36.7761 C37.0811,35.9811 36.7751,35.2291 36.2031,34.6721 L34.3081,32.7761 C33.7511,32.2191 32.9991,31.8991 32.2041,31.8991 C31.4101,31.8991 30.6581,32.2051 30.1001,32.7761 L29.1251,33.7521 C27.9271,33.0551 26.6451,32.5261 25.3071,32.1631 L25.3071,30.7841 C25.3071,29.1401 23.9691,27.8021 22.3251,27.8021 L19.6351,27.8021 C17.9921,27.8021 16.6541,29.1401 16.6541,30.7841 L16.6541,32.1631 C15.3161,32.5261 14.0341,33.0551 12.8361,33.7521 L11.8611,32.7761 C11.3031,32.2191 10.5501,31.8991 9.7561,31.8991 C8.9621,31.8991 8.2101,32.2051 7.6521,32.7761 L5.7571,34.6721 C4.6011,35.8291 4.6011,37.7231 5.7571,38.8801 L6.7331,39.8551 C6.0361,41.0541 5.5061,42.3361 5.1441,43.6731 L3.7651,43.6731 C2.1201,43.6731 0.7831,45.0111 0.7831,46.6551 L0.7831,49.3441 C0.7831,50.9891 2.1201,52.3261 3.7651,52.3261 L5.1441,52.3261 C5.5061,53.6641 6.0361,54.9461 6.7331,56.1441 L5.7571,57.1201 C4.6011,58.2761 4.6011,60.1711 5.7571,61.3281 L7.6521,63.2231 C8.2101,63.7801 8.9621,64.1011 9.7561,64.1011 C10.5501,64.1011 11.3031,63.7941 11.8611,63.2231 L12.8361,62.2481 C14.0341,62.9441 15.3161,63.4741 16.6541,63.8361 L16.6541,65.2161 C16.6671,66.8601 18.0051,68.1981 19.6351,68.1981" id="Fill-501"></path>
            <path d="M15.5532,48.0211 C15.5532,45.0241 17.9912,42.5861 20.9872,42.5861 C23.9832,42.5861 26.4212,45.0241 26.4212,48.0211 C26.4212,51.0171 23.9832,53.4551 20.9872,53.4551 C17.9912,53.4551 15.5532,51.0021 15.5532,48.0211 M29.1672,48.0211 C29.1672,43.5061 25.4882,39.8271 20.9742,39.8271 C16.4592,39.8271 12.7942,43.5061 12.7942,48.0211 C12.7942,52.5351 16.4722,56.2141 20.9872,56.2141 C25.5022,56.2141 29.1672,52.5351 29.1672,48.0211" id="Fill-502"></path>
        </g>
    </g>
</svg>