<?xml version="1.0" encoding="UTF-8" standalone="no"?>
<svg width="42px" height="46px" viewBox="0 0 42 46" version="1.1" xmlns="http://www.w3.org/2000/svg" xmlns:xlink="http://www.w3.org/1999/xlink">
    <!-- Generator: Sketch 41.2 (35397) - http://www.bohemiancoding.com/sketch -->
    <title>Group 2 Copy 23</title>
    <desc>Created with Sketch.</desc>
    <defs></defs>
    <g id="Homepage" stroke="none" stroke-width="1" fill="none" fill-rule="evenodd">
        <g id="Desktop--Copy" transform="translate(-572.000000, -474.000000)">
            <g id="Group-2-Copy-23" transform="translate(572.000000, 474.000000)">
                <circle id="Oval-2" fill="#EDA038" cx="21" cy="21" r="21"></circle>
                <polygon id="Rectangle-6" fill="#EDA038" transform="translate(21.242641, 41.242641) rotate(-315.000000) translate(-21.242641, -41.242641) " points="24.2426407 38.2426407 24.2426407 44.2426407 18.2426407 44.2426407"></polygon>
                <path d="M14.6292536,19.0103212 C13.3567141,19.0103212 12.1826074,18.4307487 11.4108941,17.4416958 C11.6581573,17.120411 11.8054128,16.7184114 11.8054128,16.2829446 L11.8054128,14.9261466 C11.8054128,14.524147 11.8904588,14.1280533 12.0546447,13.7650331 L14.7690282,13.7650331 C14.9977861,13.7650331 15.2021326,13.6228961 15.2812726,13.4083125 C15.4178974,13.0393863 15.521055,12.6582544 15.5891705,12.2704291 C16.6821685,12.6680977 17.4527006,13.7272348 17.4527006,14.9261466 L17.4527006,16.2829446 C17.4527006,16.7184114 17.5999561,17.120411 17.8472194,17.4416958 C17.0758998,18.4311425 15.9013994,19.0103212 14.6292536,19.0103212 L14.6292536,19.0103212 Z M14.6635082,21.5924109 L14.5823996,21.5924109 C13.9650289,21.5924109 13.3594702,20.8431403 13.3594702,20.0796954 C13.3594702,20.0324476 13.3531705,19.986381 13.3417523,19.9414957 C13.7563513,20.0474094 14.1882746,20.102138 14.6292536,20.102138 C15.0466088,20.102138 15.4560893,20.0529216 15.850608,19.9584261 C15.8132036,20.7521884 15.2123696,21.5924109 14.6635082,21.5924109 L14.6635082,21.5924109 Z M11.2530079,12.9421347 C10.8998309,13.5413937 10.713596,14.2276673 10.713596,14.9261466 L10.713596,16.2829446 C10.713596,16.5416261 10.591933,16.7723526 10.4025483,16.9207893 C10.3864053,16.93142 10.3710498,16.9428382 10.3556943,16.9546502 C10.2265504,17.0424522 10.0702391,17.0936373 9.90290329,17.0936373 C9.45562455,17.0936373 9.09221058,16.7298296 9.09221058,16.2829446 L9.09221058,14.9261466 C9.09221058,11.8955969 11.4656227,9.46391252 14.4957787,9.3906785 C14.6087796,9.38792238 14.725324,9.38910358 14.851318,9.39422208 C17.8318639,9.51194774 20.1662966,11.9420572 20.1662966,14.9261466 L20.1662966,16.2829446 C20.1662966,16.7298296 19.8024889,17.0936373 19.3556039,17.0936373 C19.1874807,17.0936373 19.0315631,17.0424522 18.9020255,16.9546502 C18.8874574,16.9428382 18.8721019,16.93142 18.8555652,16.9207893 C18.6661804,16.7723526 18.5449112,16.5416261 18.5449112,16.2829446 L18.5449112,14.9261466 C18.5449112,12.9992257 17.109367,11.3341361 15.2052825,11.0526182 C15.0556646,11.0305693 14.9036843,11.0719111 14.7855649,11.1660129 C14.6670518,11.2605084 14.5934241,11.3994955 14.5816121,11.5502946 C14.5516885,11.9318202 14.4823918,12.3078336 14.3752969,12.6732162 L11.7235167,12.6732162 C11.5301947,12.6732162 11.3506532,12.7751926 11.2530079,12.9421347 L11.2530079,12.9421347 Z M17.6790961,20.5698908 C17.8381636,20.3139655 17.759811,19.9773252 17.503492,19.8178641 C17.3373374,19.7147065 17.1648831,19.6209984 16.9880977,19.5379211 C17.6625594,19.1930125 18.259456,18.6988798 18.7335085,18.0811154 C18.9284055,18.1488371 19.1378705,18.1854542 19.3556039,18.1854542 C20.4045041,18.1854542 21.2581135,17.3318447 21.2581135,16.2829446 L21.2581135,14.9261466 C21.2581135,13.2016036 20.599401,11.5684062 19.4032454,10.3273652 C18.2102396,9.0898678 16.6093282,8.37091448 14.8942348,8.3031927 L14.8934473,8.3031927 C14.7446169,8.29728673 14.6060235,8.29571181 14.4693987,8.29964912 C12.7621799,8.34059717 11.1518189,9.03159557 9.93479552,10.2450754 C8.68706109,11.4888725 8,13.1515997 8,14.9261466 L8,16.2829446 C8,17.3318447 8.85360942,18.1854542 9.90290329,18.1854542 C10.1206367,18.1854542 10.329708,18.1488371 10.5249987,18.0811154 C11.0470864,18.7618768 11.7180045,19.2918391 12.4779059,19.6383226 C10.7939172,20.524218 9.75171048,22.2393114 9.75171048,24.1378837 L9.75171048,28.6067337 C9.75171048,28.7913937 9.84541852,28.963848 10.0005486,29.0642495 L14.9532944,32.278278 C15.0446401,32.3377314 15.1477977,32.36608 15.2497741,32.36608 C15.4285281,32.36608 15.6037385,32.278278 15.7080773,32.1172419 C15.8722633,31.8644664 15.8002104,31.5262512 15.547435,31.3620653 L10.8435273,28.3102541 L10.8435273,24.1378837 C10.8435273,22.8747937 11.4317619,21.7148614 12.4172713,20.9667719 C12.7550927,21.9471628 13.6224827,22.6842278 14.5823996,22.6842278 L14.6635082,22.6842278 C15.7057149,22.6842278 16.5376691,21.7408476 16.8306052,20.686829 C16.8624974,20.7061218 16.8951771,20.7258084 16.9270694,20.745495 C17.1833884,20.9045624 17.5196349,20.8258161 17.6790961,20.5698908 L17.6790961,20.5698908 Z M21.600266,35.2237817 L18.0740086,32.9787259 L18.0740086,31.2872563 C18.0740086,30.0867696 18.6803548,28.9910155 19.6623206,28.3449024 C20.0036856,29.1233092 20.8076849,29.6064175 21.5707361,29.6064175 L21.6372767,29.6064175 C22.4609625,29.6064175 23.1893654,29.0701555 23.5039567,28.3252159 C24.4997031,28.9673916 25.1186487,30.0722016 25.1245547,31.2900124 L25.1324293,32.991719 L21.600266,35.2237817 Z M22.5680575,27.6491793 C22.4999419,28.165361 22.047151,28.5146006 21.6372767,28.5146006 L21.5707361,28.5146006 C21.1368442,28.5146006 20.6545234,28.1476431 20.5923139,27.6397297 C20.9147798,27.7196572 21.2518138,27.7621801 21.5990848,27.7621801 C21.9325752,27.7621801 22.2570097,27.722807 22.5680575,27.6491793 L22.5680575,27.6491793 Z M18.5059318,23.5772103 C18.5059318,23.2228522 18.5661727,22.8814872 18.6764175,22.5641398 C19.5772746,22.8523511 20.5769584,23.0039376 21.5990848,23.0039376 C22.6216049,23.0039376 23.6212886,22.8523511 24.5221458,22.5641398 C24.6323906,22.8814872 24.6922377,23.2228522 24.6922377,23.5772103 C24.6922377,25.2828543 23.3047287,26.6703633 21.5990848,26.6703633 C19.8934408,26.6703633 18.5059318,25.2828543 18.5059318,23.5772103 L18.5059318,23.5772103 Z M21.5990848,20.4840574 C22.5495521,20.4840574 23.4007991,20.9144057 23.9685596,21.590836 C23.2330696,21.801876 22.4263142,21.911727 21.5990848,21.911727 C20.7722491,21.911727 19.9650999,21.801876 19.2296099,21.590836 C19.7977641,20.9144057 20.6490112,20.4840574 21.5990848,20.4840574 L21.5990848,20.4840574 Z M23.7149967,27.1869387 C24.9517066,26.4589296 25.7840546,25.1131561 25.7840546,23.5772103 C25.7840546,22.8858182 25.6155376,22.2330117 25.3178767,21.6577703 C25.3068523,21.6337527 25.2946466,21.6105226 25.2812597,21.5888674 C24.5725434,20.2816795 23.1877905,19.3922405 21.5990848,19.3922405 C20.010379,19.3922405 18.6252324,20.2820732 17.9169098,21.5900486 C17.9035229,21.6109163 17.891711,21.6337527 17.881474,21.6569829 C17.582632,22.232618 17.414115,22.8854245 17.414115,23.5772103 C17.414115,25.1131561 18.2456754,26.4585359 19.4827791,27.186545 C17.9519519,27.9779449 16.9821917,29.548539 16.9821917,31.2872563 L16.9821917,33.2783554 C16.9821917,33.464984 17.0774747,33.6386195 17.2349672,33.739021 L21.3061487,36.3305603 C21.3955257,36.3876513 21.4971084,36.416 21.5990848,36.416 C21.7006674,36.416 21.8018564,36.3880451 21.8908396,36.3317415 L25.9714707,33.7531953 C26.1309318,33.6531876 26.2266085,33.4775834 26.2262148,33.2893799 L26.2163715,31.2845002 C26.2081032,29.5418455 25.2395242,27.97637 23.7149967,27.1869387 L23.7149967,27.1869387 Z M32.1625013,13.2193215 C31.6404137,13.2193215 31.2159713,12.7948792 31.2159713,12.2727915 L31.2159713,11.9692247 C31.2159713,11.7703904 31.1076952,11.5876991 30.9340597,11.4912349 C30.7600305,11.3951645 30.5478094,11.4010704 30.3792924,11.5065904 C29.4189818,12.1097867 28.2732237,12.4287091 27.0664374,12.4287091 C26.5947473,12.4287091 26.1258133,12.3787052 25.6730223,12.2806661 C25.5115925,12.245624 25.3434693,12.2853909 25.2147191,12.3893359 C25.0863627,12.4928873 25.0115538,12.6491986 25.0115538,12.814172 L25.0115538,13.1453 C25.0115538,13.666994 24.5871115,14.0914363 24.0650238,14.0914363 C24.0291942,14.0914363 23.9941522,14.0894676 23.9591101,14.085924 C23.9508417,14.0847429 23.9425734,14.0835617 23.9346987,14.0827742 C23.9224931,14.0811993 23.9102874,14.0792306 23.8984755,14.0768682 C23.8965068,14.0304079 23.8961131,13.9835539 23.8961131,13.9370936 C23.8961131,13.1795546 24.0858915,12.4294965 24.4457619,11.768028 C24.4469431,11.7656656 24.4489118,11.7629095 24.4496993,11.7609408 C24.454424,11.7522787 24.9477693,10.8974881 25.6604229,10.3407521 C25.6619979,10.3391772 25.6635728,10.337996 25.6639665,10.3376022 C26.4659971,9.71708174 27.4274889,9.38949731 28.4437094,9.38949731 C29.1311642,9.38949731 29.7918453,9.5391152 30.4064598,9.8336262 C30.4170906,9.8387447 30.4332336,9.84583186 30.4533138,9.85528142 C31.0604475,10.1245936 31.5266253,10.5612416 31.812868,10.8829201 C31.8160178,10.8864636 31.8191677,10.8900072 31.8223175,10.8939445 C32.3377118,11.4652486 32.6975822,12.1538846 32.8716114,12.8968556 C32.6928574,13.0988397 32.4345697,13.2193215 32.1625013,13.2193215 L32.1625013,13.2193215 Z M28.3645694,17.5574528 C26.7183789,17.5574528 25.258817,16.5770619 24.6193974,15.1068693 C25.3773302,14.8926794 25.9572963,14.2497163 26.079353,13.4575289 C26.4053625,13.4992644 26.7353093,13.5201322 27.0664374,13.5201322 C28.1771533,13.5201322 29.2465275,13.287437 30.2044757,12.8417332 C30.4513452,13.6898304 31.2356579,14.3111383 32.1625013,14.3111383 C32.2302231,14.3111383 32.2971574,14.3075948 32.363698,14.3009013 C31.9786288,16.1557694 30.3269261,17.5574528 28.3645694,17.5574528 L28.3645694,17.5574528 Z M28.3322834,19.8899169 L28.2507811,19.8899169 C27.5971871,19.8899169 27.0455696,19.2564032 27.0455696,18.5067389 C27.0455696,18.4976831 27.0451759,18.4882335 27.0447821,18.4791777 C27.4680433,18.5906036 27.9105972,18.6492696 28.3645694,18.6492696 C28.7527884,18.6492696 29.1311642,18.6059592 29.4953656,18.5240631 C29.4528427,19.2623092 28.9272114,19.8899169 28.3322834,19.8899169 L28.3322834,19.8899169 Z M33.9909894,12.919692 C33.8047545,11.8975656 33.338183,10.9470983 32.6404911,10.1706602 C32.6393099,10.1690852 32.6381287,10.1679041 32.6365538,10.1659354 C32.2794395,9.76275456 31.6876614,9.20838092 30.8966553,8.85717261 L30.8785436,8.84929799 C30.1150987,8.4831279 29.2957439,8.29728673 28.4437094,8.29728673 C27.1833755,8.29728673 25.9911572,8.70440488 24.9958045,9.47414953 C24.9950171,9.474937 24.990686,9.47848058 24.9891111,9.47926804 C24.1339268,10.14743 23.5693161,11.1018347 23.4996257,11.2234976 C23.4964758,11.2286161 23.493326,11.2345221 23.4905698,11.2396406 C23.0417162,12.062539 22.8042962,12.9948947 22.8042962,13.9370936 C22.8042962,14.1327781 22.8145332,14.3304312 22.8346135,14.5249344 C22.8539064,14.707232 22.9625762,14.8674806 23.1247935,14.9525266 C23.2271636,15.0060741 23.3346523,15.0509594 23.444897,15.0860015 C23.8843011,16.4309876 24.8438243,17.5062677 26.0636038,18.1110389 C25.5407286,18.3783825 25.0714009,18.7315594 24.6646765,19.1630889 C24.4579676,19.382791 24.4685984,19.7284871 24.6883004,19.9348022 C24.9083962,20.1415112 25.2536985,20.1308804 25.4600137,19.9111784 C25.6553044,19.703682 25.8687068,19.5194157 26.0994333,19.3591671 C26.4301676,20.2958538 27.2818084,20.9817337 28.2507811,20.9817337 L28.3318897,20.9817337 C29.3024373,20.9817337 30.1536843,20.2466374 30.4643383,19.2520722 C31.6171835,19.9741754 32.3546422,21.2620704 32.3546422,22.6393424 L32.3546422,28.3102541 L27.389297,31.5317634 C27.1365215,31.6959494 27.0644687,32.0341646 27.2286546,32.28694 C27.3329934,32.4479761 27.5082039,32.5357782 27.6869579,32.5357782 C27.7889343,32.5357782 27.8916981,32.5074296 27.9838312,32.4479761 L33.1976209,29.0642495 C33.3531447,28.963848 33.4464591,28.7913937 33.4464591,28.6067337 L33.4464591,22.6393424 C33.4464591,20.7061218 32.3672416,18.9729167 30.6615977,18.1082828 C32.2766834,17.3023149 33.4192916,15.6750235 33.5311113,13.7799948 C33.6850602,13.640614 33.8193226,13.4760343 33.9260238,13.2913743 C33.9913831,13.1791609 34.0146133,13.0476547 33.9909894,12.919692 L33.9909894,12.919692 Z" id="Fill-515" fill="#FFFFFF"></path>
            </g>
        </g>
    </g>
</svg>