<?xml version="1.0" encoding="UTF-8" standalone="no"?>
<svg width="42px" height="46px" viewBox="0 0 42 46" version="1.1" xmlns="http://www.w3.org/2000/svg" xmlns:xlink="http://www.w3.org/1999/xlink">
    <!-- Generator: Sketch 41.2 (35397) - http://www.bohemiancoding.com/sketch -->
    <title>Group 10 Copy 7</title>
    <desc>Created with Sketch.</desc>
    <defs></defs>
    <g id="Homepage" stroke="none" stroke-width="1" fill="none" fill-rule="evenodd">
        <g id="Desktop--Copy" transform="translate(-532.000000, -557.000000)">
            <g id="Group-10-Copy-7" transform="translate(532.000000, 557.000000)">
                <g id="Group-2-Copy-5" fill="#6EB245">
                    <circle id="Oval-2" cx="21" cy="21" r="21"></circle>
                    <polygon id="Rectangle-6" transform="translate(21.242641, 41.242641) rotate(-315.000000) translate(-21.242641, -41.242641) " points="24.2426407 38.2426407 24.2426407 44.2426407 18.2426407 44.2426407"></polygon>
                </g>
                <g id="Group-9" transform="translate(6.000000, 7.000000)" fill="#FFFFFF">
                    <path d="M2.0016,17.5720176 C2.0016,14.8053706 4.1784,9.35484118 5.1332,7.09837059 C6.0876,9.35484118 8.2644,14.8053706 8.2644,17.5720176 C8.2644,19.1799588 7.1148,20.5165471 5.6172,20.7566059 L5.6172,17.7783118 L7.0248,16.3293118 C7.214,16.1345471 7.214,15.8187235 7.0248,15.6243706 C6.836,15.4296059 6.5292,15.4296059 6.3404,15.6243706 L5.6172,16.3684294 L5.6172,15.4448412 C5.6172,15.1697824 5.4004,14.9466059 5.1332,14.9466059 C4.8656,14.9466059 4.6488,15.1697824 4.6488,15.4448412 L4.6488,17.9636059 L3.926,17.2195471 C3.7368,17.0247824 3.43,17.0247824 3.2408,17.2195471 C3.0516,17.4143118 3.0516,17.7297235 3.2408,17.9244882 L4.6488,19.3734882 L4.6488,20.7566059 C3.1512,20.5165471 2.0016,19.1799588 2.0016,17.5720176 Z M21.1132,11.1583706 L22.2104,11.1583706 L22.2104,12.7864882 C22.2104,13.0977824 21.9644,13.3514294 21.6616,13.3514294 C21.3592,13.3514294 21.1132,13.0977824 21.1132,12.7864882 L21.1132,11.1583706 Z M24.212,19.8317824 C24.212,19.3870765 24.402,18.0570765 24.758,16.7159588 C25.276,14.7646059 25.7108,14.4067824 25.7944,14.3544882 C25.8772,14.4067824 26.3124,14.7646059 26.83,16.7159588 C27.1864,18.0570765 27.376,19.3870765 27.376,19.8317824 C27.376,20.4967824 26.9144,21.0613118 26.2784,21.2552529 L26.2784,20.2307824 C26.2784,19.9553118 26.0616,19.7321353 25.7944,19.7321353 C25.5264,19.7321353 25.31,19.9553118 25.31,20.2307824 L25.31,21.2552529 C24.6736,21.0613118 24.212,20.4967824 24.212,19.8317824 Z M29.4096,26.6444294 L26.2784,26.6444294 L26.2784,22.2784882 C27.4536,22.0565471 28.3444,21.0444294 28.3444,19.8317824 C28.3444,19.2182529 28.106,17.6906059 27.7208,16.2922529 C27.1684,14.2857235 26.556,13.3514294 25.7944,13.3514294 C25.032,13.3514294 24.4196,14.2857235 23.8672,16.2922529 C23.482,17.6906059 23.2436,19.2182529 23.2436,19.8317824 C23.2436,21.0444294 24.1344,22.0565471 25.31,22.2784882 L25.31,26.6444294 L22.146,26.6444294 L22.146,14.2663706 C22.746,14.0580176 23.1792,13.4733118 23.1792,12.7864882 L23.1792,10.6597235 C23.1792,10.3842529 22.9624,10.1610765 22.6948,10.1610765 L22.146,10.1610765 L22.146,9.56278235 L23.2116,9.56278235 C23.4788,9.56278235 23.696,9.34001765 23.696,9.06413529 C23.696,8.78907647 23.4788,8.5659 23.2116,8.5659 L20.112,8.5659 C19.8448,8.5659 19.628,8.78907647 19.628,9.06413529 C19.628,9.34001765 19.8448,9.56278235 20.112,9.56278235 L21.1776,9.56278235 L21.1776,10.1610765 L20.6288,10.1610765 C20.3612,10.1610765 20.1448,10.3842529 20.1448,10.6597235 L20.1448,12.7864882 C20.1448,13.4733118 20.578,14.0580176 21.1776,14.2663706 L21.1776,26.6444294 L19.4844,26.6444294 L9.3764,26.6444294 L5.6172,26.6444294 L5.6172,21.7621353 C7.6504,21.5146647 9.2328,19.7304882 9.2328,17.5720176 C9.2328,13.8274294 5.7216,5.99566471 5.5724,5.66419412 C5.4928,5.48837059 5.3216,5.37554706 5.1332,5.37554706 C4.9444,5.37554706 4.7732,5.48837059 4.6936,5.66419412 C4.5444,5.99566471 1.0332,13.8274294 1.0332,17.5720176 C1.0332,19.7304882 2.6152,21.5146647 4.6488,21.7621353 L4.6488,26.6444294 L0.4844,26.6444294 C0.2168,26.6444294 0,26.8676059 0,27.1430765 C0,27.4181353 0.2168,27.6413118 0.4844,27.6413118 L29.4096,27.6413118 C29.6772,27.6413118 29.894,27.4181353 29.894,27.1430765 C29.894,26.8676059 29.6772,26.6444294 29.4096,26.6444294 Z" id="Fill-494"></path>
                    <path d="M11.41508,22.4648118 L17.31348,22.4648118 L17.31348,21.7862235 L11.41508,21.7862235 L11.41508,22.4648118 Z M11.41508,24.0604 L17.31348,24.0604 L17.31348,23.6836353 L11.41508,23.6836353 L11.41508,24.0604 Z M11.41508,26.6590471 L17.31348,26.6590471 L17.31348,25.2784 L11.41508,25.2784 L11.41508,26.6590471 Z M18.49708,26.6590471 L18.49708,25.2788118 L18.75308,25.2788118 C19.07948,25.2788118 19.34468,25.0058118 19.34468,24.6694 C19.34468,24.3329882 19.07948,24.0604 18.75308,24.0604 L18.49708,24.0604 L18.49708,21.1772235 C18.49708,20.8404 18.23188,20.5678118 17.90508,20.5678118 L10.82308,20.5678118 C10.49628,20.5678118 10.23148,20.8404 10.23148,21.1772235 L10.23148,24.0604 L9.97548,24.0604 C9.64868,24.0604 9.38348,24.3329882 9.38348,24.6694 C9.38348,25.0058118 9.64868,25.2788118 9.97548,25.2788118 L10.23148,25.2788118 L10.23148,26.6590471 L18.49708,26.6590471 Z" id="Fill-496"></path>
                    <path d="M17.58424,6.99258824 L12.22624,6.99258824 C11.96384,6.99258824 11.75064,6.77311765 11.75064,6.503 C11.75064,6.23329412 11.96384,6.01341176 12.22624,6.01341176 C12.47624,6.01341176 12.67904,5.80505882 12.67904,5.54770588 C12.67904,5.28994118 12.47624,5.08158824 12.22624,5.08158824 L10.88224,5.08158824 C10.62024,5.08158824 10.40704,4.86170588 10.40704,4.592 C10.40704,4.32188235 10.62024,4.10241176 10.88224,4.10241176 L14.08264,4.10241176 C14.34504,4.10241176 14.55824,4.32188235 14.55824,4.592 C14.55824,4.86170588 14.34504,5.08158824 14.08264,5.08158824 C13.83264,5.08158824 13.62984,5.28994118 13.62984,5.54770588 C13.62984,5.80505882 13.83264,6.01341176 14.08264,6.01341176 L17.58424,6.01341176 C17.84664,6.01341176 18.05984,6.23329412 18.05984,6.503 C18.05984,6.77311765 17.84664,6.99258824 17.58424,6.99258824 M10.86784,6.24647059 C10.85864,6.24647059 10.85024,6.24688235 10.84144,6.24688235 C9.41824,6.24688235 8.26064,5.05482353 8.26064,3.58935294 C8.26064,2.12470588 9.41824,0.932647059 10.84144,0.932647059 C12.12584,0.932647059 13.19384,1.90358824 13.38984,3.17017647 L10.88264,3.17017647 C10.12104,3.17017647 9.50144,3.808 9.50144,4.592 C9.50144,5.376 10.12104,6.01382353 10.88264,6.01382353 L10.92944,6.01382353 C10.90264,6.08835294 10.88224,6.16617647 10.86784,6.24647059 M17.58424,5.08117647 L15.37984,5.08117647 C15.43424,4.92882353 15.46384,4.76370588 15.46384,4.592 C15.46384,3.88623529 14.96184,3.29905882 14.30584,3.18911765 C14.11144,1.39794118 12.63224,0 10.84104,0 C8.91904,0 7.35504,1.61041176 7.35504,3.58935294 C7.35504,5.56870588 8.91904,7.17911765 10.84144,7.17911765 C10.89704,7.17911765 10.95304,7.17705882 11.00904,7.17417647 C11.24264,7.62094118 11.70064,7.92482353 12.22624,7.92482353 L17.58424,7.92482353 C18.34584,7.92482353 18.96544,7.287 18.96544,6.503 C18.96544,5.719 18.34584,5.08117647 17.58424,5.08117647" id="Fill-498"></path>
                </g>
            </g>
        </g>
    </g>
</svg>