<?xml version="1.0" encoding="UTF-8" standalone="no"?>
<svg width="42px" height="46px" viewBox="0 0 42 46" version="1.1" xmlns="http://www.w3.org/2000/svg" xmlns:xlink="http://www.w3.org/1999/xlink">
    <!-- Generator: Sketch 41.2 (35397) - http://www.bohemiancoding.com/sketch -->
    <title>Group 2 Copy 16</title>
    <desc>Created with Sketch.</desc>
    <defs></defs>
    <g id="Homepage" stroke="none" stroke-width="1" fill="none" fill-rule="evenodd">
        <g id="Desktop--Copy" transform="translate(-440.000000, -610.000000)">
            <g id="Group-2-Copy-16" transform="translate(440.000000, 610.000000)">
                <circle id="Oval-2" fill="#235C98" cx="21" cy="21" r="21"></circle>
                <polygon id="Rectangle-6" fill="#235C98" transform="translate(21.242641, 41.242641) rotate(-315.000000) translate(-21.242641, -41.242641) " points="24.2426407 38.2426407 24.2426407 44.2426407 18.2426407 44.2426407"></polygon>
                <g id="Group-2" transform="translate(6.000000, 6.000000)" fill="#FFFFFF">
                    <path d="M14.6619857,0.3477 L13.1988429,0.951128571 C12.4162714,1.27341429 12.0459857,2.17512857 12.3687,2.9517 L12.7445571,3.85941429 C12.0104143,4.40241429 11.3714143,5.04741429 10.8219857,5.78198571 L9.91427143,5.4057 C9.53798571,5.25055714 9.12012857,5.25055714 8.74384286,5.4057 C8.36755714,5.56084286 8.06927143,5.85955714 7.9137,6.23627143 L7.30427143,7.69898571 C6.98198571,8.48155714 7.35227143,9.37727143 8.13484286,9.69955714 L9.47841429,10.2549857 C9.7827,10.3805571 10.1234143,10.2369857 10.2485571,9.9327 C10.3741286,9.62798571 10.2305571,9.2877 9.92627143,9.16212857 L8.5827,8.6067 C8.40312857,8.53512857 8.31998571,8.32641429 8.39155714,8.14684286 L9.00055714,6.68412857 C9.03612857,6.60012857 9.10212857,6.52855714 9.1917,6.49255714 C9.27527143,6.45698571 9.37084286,6.45698571 9.46041429,6.49255714 L10.8039857,7.04798571 C11.0671286,7.15598571 11.3654143,7.06598571 11.5205571,6.83327143 C12.1239857,5.92555714 12.8881286,5.16098571 13.7958429,4.55798571 C14.0289857,4.40241429 14.1241286,4.09812857 14.0169857,3.84141429 L13.4615571,2.49741429 C13.3895571,2.3187 13.4735571,2.11512857 13.6522714,2.03755714 L15.1158429,1.43455714 C15.1994143,1.39898571 15.2945571,1.39898571 15.3845571,1.43455714 C15.4681286,1.47055714 15.5397,1.53612857 15.5757,1.6257 L16.1311286,2.96927143 C16.2382714,3.23198571 16.5129857,3.38155714 16.7937,3.32155714 C17.8565571,3.10684286 18.9438429,3.11284286 20.0067,3.32155714 C20.2814143,3.37555714 20.5621286,3.22641429 20.6692714,2.96927143 L21.2247,1.6257 C21.2967,1.44655714 21.5058429,1.36298571 21.6845571,1.43455714 L23.1481286,2.04398571 C23.2312714,2.07998571 23.3032714,2.14555714 23.3388429,2.2347 C23.3748429,2.3187 23.3748429,2.41384286 23.3388429,2.50384286 L22.7834143,3.84741429 C22.6762714,4.11012857 22.7658429,4.40884286 22.9985571,4.56398571 C23.9062714,5.16698571 24.6708429,5.93155714 25.2734143,6.83927143 C25.4289857,7.07198571 25.7332714,7.16755714 25.9904143,7.05998571 L27.3339857,6.50455714 C27.4235571,6.46898571 27.5131286,6.46898571 27.6027,6.50455714 C27.6862714,6.54055714 27.7578429,6.60612857 27.7938429,6.69612857 L28.3972714,8.15884286 C28.4328429,8.24241429 28.4328429,8.33841429 28.3972714,8.42755714 C28.3612714,8.51155714 28.2952714,8.5827 28.2057,8.6187 L26.8621286,9.17412857 C26.5994143,9.2817 26.4562714,9.55641429 26.5098429,9.83712857 C26.7249857,10.8999857 26.7189857,11.9868429 26.5098429,13.0497 C26.4562714,13.3244143 26.6058429,13.6051286 26.8621286,13.7127 L28.2057,14.2681286 C28.3852714,14.3397 28.4688429,14.5488429 28.3972714,14.7279857 L27.7882714,16.1911286 C27.7162714,16.3702714 27.5071286,16.4538429 27.3284143,16.3822714 L25.9844143,15.8268429 C25.7217,15.7192714 25.4229857,15.8088429 25.2678429,16.0419857 C24.6648429,16.9497 23.9002714,17.7138429 22.9925571,18.3172714 C22.7594143,18.4724143 22.6642714,18.7771286 22.7714143,19.0334143 L23.3268429,20.3774143 C23.3628429,20.4609857 23.3628429,20.5565571 23.3268429,20.6461286 C23.2912714,20.7297 23.2257,20.8012714 23.1361286,20.8372714 L21.6729857,21.4402714 C21.5889857,21.4762714 21.4938429,21.4762714 21.4038429,21.4402714 C21.3207,21.4047 21.2487,21.3387 21.2131286,21.2491286 L20.6572714,19.9055571 C20.5321286,19.6008429 20.1858429,19.4577 19.8875571,19.5828429 C19.5828429,19.7084143 19.4392714,20.0547 19.5648429,20.3534143 L20.1198429,21.6969857 C20.2754143,22.0732714 20.5741286,22.3719857 20.9499857,22.5271286 C21.1411286,22.6047 21.3382714,22.6467 21.5354143,22.6467 C21.7325571,22.6467 21.9352714,22.6047 22.1208429,22.5271286 L23.5839857,21.9241286 C23.9598429,21.7685571 24.2585571,21.4702714 24.4137,21.0939857 C24.5692714,20.7177 24.5692714,20.2998429 24.4137,19.9235571 L24.0374143,19.0158429 C24.7719857,18.4724143 25.4114143,17.8274143 25.9608429,17.0928429 L26.8685571,17.4691286 C27.6507,17.7914143 28.5464143,17.4211286 28.8687,16.6389857 L29.4777,15.1758429 C29.8004143,14.3932714 29.4301286,13.4975571 28.6479857,13.1752714 L27.7402714,12.7989857 C27.8714143,11.8972714 27.8714143,10.9835571 27.7402714,10.0818429 L28.6479857,9.70598571 C29.0242714,9.55041429 29.3225571,9.2517 29.4777,8.87541429 C29.6332714,8.49955714 29.6332714,8.08127143 29.4777,7.70498571 L28.8747,6.24184286 C28.7195571,5.86555714 28.4208429,5.56727143 28.0445571,5.4117 C27.6687,5.25655714 27.2504143,5.25655714 26.8741286,5.4117 L25.9664143,5.78798571 C25.4229857,5.05384286 24.7779857,4.40884286 24.0494143,3.86498571 L24.4257,2.95727143 C24.5812714,2.58141429 24.5812714,2.16312857 24.4257,1.78684286 C24.2705571,1.41098571 23.9718429,1.11227143 23.5959857,0.9567 L22.1324143,0.3477 C21.3502714,0.0249857143 20.4545571,0.3957 20.1318429,1.17784286 L19.7559857,2.08555714 C18.8538429,1.95398571 17.9405571,1.95398571 17.0388429,2.08555714 L16.6621286,1.17784286 C16.5074143,0.801557143 16.2087,0.503271429 15.8324143,0.3477 C15.4561286,0.192557143 15.0382714,0.192557143 14.6619857,0.3477" id="Fill-499"></path>
                    <path d="M23.2015714,11.4017143 C23.1835714,8.76214286 21.0278571,6.63 18.3942857,6.63 L18.3587143,6.63 C17.0742857,6.642 15.8678571,7.14985714 14.9665714,8.06357143 C14.0648571,8.97685714 13.575,10.1892857 13.581,11.4732857 C13.581,11.796 13.8497143,12.0587143 14.172,12.0587143 L14.178,12.0587143 C14.5067143,12.0587143 14.7694286,11.79 14.7634286,11.4612857 C14.7574286,10.494 15.1277143,9.58028571 15.8087143,8.88771429 C16.4892857,8.19471429 17.397,7.81242857 18.3642857,7.80642857 L18.3882857,7.80642857 C20.3768571,7.80642857 22.0011429,9.41871429 22.0131429,11.4077143 C22.0251429,13.4082857 20.4128571,15.0445714 18.4122857,15.0625714 C18.084,15.0625714 17.8208571,15.3312857 17.8268571,15.6595714 C17.8268571,15.9818571 18.096,16.245 18.4178571,16.245 L18.4242857,16.245 C21.0818571,16.227 23.2195714,14.0532857 23.2015714,11.4017143" id="Fill-500"></path>
                    <path d="M5.7459,25.4413286 C5.64432857,25.3757571 5.53118571,25.3397571 5.41718571,25.3397571 C5.26204286,25.3397571 5.1129,25.3997571 4.99932857,25.5129 L4.25275714,26.2594714 C4.22918571,26.2834714 4.20518571,26.2894714 4.18718571,26.2894714 C4.16918571,26.2894714 4.14518571,26.2834714 4.12161429,26.2594714 L3.30947143,25.4473286 C3.27347143,25.4117571 3.27347143,25.3517571 3.30947143,25.3157571 L4.05604286,24.5696143 C4.25275714,24.3724714 4.28875714,24.0557571 4.12761429,23.8230429 C3.69732857,23.1840429 3.40504286,22.4734714 3.2559,21.7209 C3.2019,21.4461857 2.95718571,21.2430429 2.67647143,21.2430429 L1.61918571,21.2430429 C1.56561429,21.2430429 1.52404286,21.2014714 1.52404286,21.1474714 L1.52404286,19.9950429 C1.52404286,19.9414714 1.56561429,19.8994714 1.61918571,19.8994714 L2.67647143,19.8994714 C2.95718571,19.8994714 3.2019,19.7023286 3.2559,19.4216143 C3.40504286,18.6694714 3.69732857,17.9589 4.12761429,17.3199 C4.28275714,17.0867571 4.25275714,16.7700429 4.05604286,16.5733286 L3.30947143,15.8267571 C3.27347143,15.7911857 3.27347143,15.7311857 3.30947143,15.6951857 L4.12161429,14.8834714 C4.14518571,14.8594714 4.16918571,14.8534714 4.18718571,14.8534714 C4.20518571,14.8534714 4.22918571,14.8594714 4.25275714,14.8834714 L4.99932857,15.6416143 C5.19647143,15.8387571 5.51275714,15.8743286 5.7459,15.7131857 C6.3849,15.2833286 7.09547143,14.9906143 7.84804286,14.8414714 C8.12275714,14.7874714 8.32547143,14.5427571 8.32547143,14.2620429 L8.32547143,13.2051857 C8.32547143,13.1511857 8.36747143,13.1096143 8.42147143,13.1096143 L9.5739,13.1096143 C9.62747143,13.1096143 9.66947143,13.1511857 9.66947143,13.2051857 L9.66947143,14.2620429 C9.66947143,14.5427571 9.86661429,14.7874714 10.1473286,14.8414714 C10.8994714,14.9906143 11.6100429,15.2833286 12.2494714,15.7131857 C12.4821857,15.8687571 12.7989,15.8387571 12.9960429,15.6416143 L13.7421857,14.8950429 C13.7661857,14.8714714 13.7897571,14.8650429 13.8077571,14.8650429 C13.8257571,14.8650429 13.8497571,14.8714714 13.8733286,14.8950429 L14.6854714,15.7071857 C14.7094714,15.7311857 14.7154714,15.7551857 14.7154714,15.7727571 C14.7154714,15.7911857 14.7094714,15.8151857 14.6854714,15.8387571 L13.9389,16.5849 C13.7421857,16.7820429 13.7066143,17.0987571 13.8677571,17.3314714 C14.2976143,17.9709 14.5903286,18.6814714 14.7394714,19.4336143 C14.7930429,19.7087571 15.0381857,19.9114714 15.3184714,19.9114714 L16.3757571,19.9114714 C16.4297571,19.9114714 16.4713286,19.9530429 16.4713286,20.0070429 L16.4713286,21.1594714 C16.4713286,21.2130429 16.4297571,21.2550429 16.3757571,21.2550429 L15.3184714,21.2550429 C15.0381857,21.2550429 14.7930429,21.4521857 14.7394714,21.7329 C14.5903286,22.4854714 14.2976143,23.1960429 13.8677571,23.8350429 C13.7121857,24.0677571 13.7421857,24.3844714 13.9389,24.5811857 L14.6854714,25.3277571 C14.7094714,25.3517571 14.7154714,25.3757571 14.7154714,25.3933286 C14.7154714,25.4117571 14.7094714,25.4353286 14.6854714,25.4593286 L13.8733286,26.2714714 C13.8497571,26.2954714 13.8257571,26.3010429 13.8077571,26.3010429 C13.7897571,26.3010429 13.7661857,26.2954714 13.7421857,26.2714714 L12.9960429,25.5249 C12.7989,25.3277571 12.4821857,25.2921857 12.2494714,25.4533286 C11.6100429,25.8831857 10.8994714,26.1759 10.1473286,26.3250429 C9.87261429,26.3790429 9.66947143,26.6237571 9.66947143,26.9044714 L9.66947143,27.9613286 C9.66947143,28.0153286 9.62747143,28.0573286 9.5739,28.0573286 L8.42147143,28.0573286 C8.36747143,28.0573286 8.32547143,28.0153286 8.32547143,27.9613286 L8.32547143,26.9044714 C8.32547143,26.6237571 8.12832857,26.3790429 7.84804286,26.3250429 C7.09547143,26.1639 6.3849,25.8711857 5.7459,25.4413286 M8.41504286,29.2277571 L9.5679,29.2277571 C10.2724714,29.2277571 10.8459,28.6543286 10.8459,27.9497571 L10.8459,27.3583286 C11.4193286,27.2031857 11.9687571,26.9760429 12.4821857,26.6777571 L12.9000429,27.0956143 C13.1391857,27.3343286 13.4614714,27.4719 13.8017571,27.4719 C14.1424714,27.4719 14.4647571,27.3403286 14.7034714,27.0956143 L15.5156143,26.2834714 C15.7547571,26.0447571 15.8919,25.7220429 15.8919,25.3817571 C15.8919,25.0410429 15.7607571,24.7187571 15.5156143,24.4800429 L15.0977571,24.0617571 C15.3964714,23.5483286 15.6231857,22.9989 15.7783286,22.4254714 L16.3697571,22.4254714 C17.0743286,22.4254714 17.6477571,21.8524714 17.6477571,21.1474714 L17.6477571,19.9950429 C17.6477571,19.2904714 17.0743286,18.7170429 16.3697571,18.7170429 L15.7783286,18.7170429 C15.6231857,18.1440429 15.3964714,17.5946143 15.0977571,17.0807571 L15.5156143,16.6629 C15.7547571,16.4241857 15.8919,16.1014714 15.8919,15.7611857 C15.8919,15.4204714 15.7607571,15.0981857 15.5156143,14.8594714 L14.7034714,14.0469 C14.4647571,13.8081857 14.1424714,13.6710429 13.8017571,13.6710429 C13.4614714,13.6710429 13.1391857,13.8021857 12.9000429,14.0469 L12.4821857,14.4651857 C11.9687571,14.1664714 11.4193286,13.9397571 10.8459,13.7841857 L10.8459,13.1931857 C10.8459,12.4886143 10.2724714,11.9151857 9.5679,11.9151857 L8.41504286,11.9151857 C7.7109,11.9151857 7.13747143,12.4886143 7.13747143,13.1931857 L7.13747143,13.7841857 C6.56404286,13.9397571 6.01461429,14.1664714 5.50118571,14.4651857 L5.08332857,14.0469 C4.84418571,13.8081857 4.52147143,13.6710429 4.18118571,13.6710429 C3.8409,13.6710429 3.51861429,13.8021857 3.27947143,14.0469 L2.46732857,14.8594714 C1.9719,15.3553286 1.9719,16.1670429 2.46732857,16.6629 L2.88561429,17.0807571 C2.5869,17.5946143 2.35975714,18.1440429 2.20461429,18.7170429 L1.61361429,18.7170429 C0.908614286,18.7170429 0.335614286,19.2904714 0.335614286,19.9950429 L0.335614286,21.1474714 C0.335614286,21.8524714 0.908614286,22.4254714 1.61361429,22.4254714 L2.20461429,22.4254714 C2.35975714,22.9989 2.5869,23.5483286 2.88561429,24.0617571 L2.46732857,24.4800429 C1.9719,24.9754714 1.9719,25.7876143 2.46732857,26.2834714 L3.27947143,27.0956143 C3.51861429,27.3343286 3.8409,27.4719 4.18118571,27.4719 C4.52147143,27.4719 4.84418571,27.3403286 5.08332857,27.0956143 L5.50118571,26.6777571 C6.01461429,26.9760429 6.56404286,27.2031857 7.13747143,27.3583286 L7.13747143,27.9497571 C7.14304286,28.6543286 7.71647143,29.2277571 8.41504286,29.2277571" id="Fill-501"></path>
                    <path d="M6.66565714,20.5804714 C6.66565714,19.2960429 7.71051429,18.2511857 8.99451429,18.2511857 C10.2785143,18.2511857 11.3233714,19.2960429 11.3233714,20.5804714 C11.3233714,21.8644714 10.2785143,22.9093286 8.99451429,22.9093286 C7.71051429,22.9093286 6.66565714,21.8580429 6.66565714,20.5804714 M12.5002286,20.5804714 C12.5002286,18.6454714 10.9235143,17.0687571 8.98894286,17.0687571 C7.05394286,17.0687571 5.48322857,18.6454714 5.48322857,20.5804714 C5.48322857,22.5150429 7.05951429,24.0917571 8.99451429,24.0917571 C10.9295143,24.0917571 12.5002286,22.5150429 12.5002286,20.5804714" id="Fill-502"></path>
                </g>
            </g>
        </g>
    </g>
</svg>