<?xml version="1.0" encoding="UTF-8" standalone="no"?>
<svg width="42px" height="46px" viewBox="0 0 42 46" version="1.1" xmlns="http://www.w3.org/2000/svg" xmlns:xlink="http://www.w3.org/1999/xlink">
    <!-- Generator: Sketch 41.2 (35397) - http://www.bohemiancoding.com/sketch -->
    <title>Group 11 Copy 10</title>
    <desc>Created with Sketch.</desc>
    <defs></defs>
    <g id="Homepage" stroke="none" stroke-width="1" fill="none" fill-rule="evenodd">
        <g id="Desktop--Copy" transform="translate(-676.000000, -554.000000)">
            <g id="Group-11-Copy-10" transform="translate(676.000000, 554.000000)">
                <g id="Group-2-Copy-10" fill="#D5234C">
                    <circle id="Oval-2" cx="21" cy="21" r="21"></circle>
                    <polygon id="Rectangle-6" transform="translate(21.242641, 41.242641) rotate(-315.000000) translate(-21.242641, -41.242641) " points="24.2426407 38.2426407 24.2426407 44.2426407 18.2426407 44.2426407"></polygon>
                </g>
                <g id="Group" transform="translate(6.000000, 10.000000)" fill="#FFFFFF">
                    <path d="M11.7131446,22.8754286 L19.6637108,22.8754286 L19.6637108,1.36266667 L11.7131446,1.36266667 L11.7131446,22.8754286 Z M2.25142169,22.8754286 L10.727494,22.8754286 L10.727494,11.5493333 L2.25142169,11.5493333 L2.25142169,22.8754286 Z M2.25142169,10.544 L10.727494,10.544 L10.727494,9.94057143 L2.25142169,9.94057143 L2.25142169,10.544 Z M23.3370241,5.65142857 C23.5712048,5.65142857 23.7732651,5.48342857 23.8195783,5.24914286 C23.8968916,4.86095238 24.2356506,4.57904762 24.6244578,4.57904762 C25.0136386,4.57904762 25.3520241,4.86095238 25.4289639,5.24914286 C25.4756506,5.48342857 25.6777108,5.65142857 25.9122651,5.65142857 L28.5999277,5.65142857 L28.5999277,22.8754286 L20.6493614,22.8754286 L20.6493614,5.65142857 L23.3370241,5.65142857 Z M30.1435783,22.8754286 L29.5855783,22.8754286 L29.5855783,5.14895238 C29.5855783,4.87161905 29.3644699,4.64647619 29.0925663,4.64647619 L26.2655904,4.64647619 C25.975759,4.00647619 25.3389518,3.57409524 24.6244578,3.57409524 C23.9099639,3.57409524 23.2731566,4.00647619 22.9833253,4.64647619 L20.6493614,4.64647619 L20.6493614,1.36266667 L20.6818554,1.36266667 C20.9541325,1.36266667 21.1748675,1.13752381 21.1748675,0.859809524 C21.1748675,0.58247619 20.9541325,0.357333333 20.6818554,0.357333333 L10.695,0.357333333 C10.4223494,0.357333333 10.201988,0.58247619 10.201988,0.859809524 C10.201988,1.13752381 10.4223494,1.36266667 10.695,1.36266667 L10.727494,1.36266667 L10.727494,8.9352381 L1.23290361,8.9352381 C0.961,8.9352381 0.74026506,9.1607619 0.74026506,9.43809524 C0.74026506,9.71580952 0.961,9.94057143 1.23290361,9.94057143 L1.26614458,9.94057143 L1.26614458,22.8754286 L0.70739759,22.8754286 C0.435493976,22.8754286 0.214759036,23.1005714 0.214759036,23.3779048 C0.214759036,23.655619 0.435493976,23.8807619 0.70739759,23.8807619 L30.1435783,23.8807619 C30.4158554,23.8807619 30.6362169,23.655619 30.6362169,23.3779048 C30.6362169,23.1005714 30.4158554,22.8754286 30.1435783,22.8754286 L30.1435783,22.8754286 Z" id="Fill-503"></path>
                    <path d="M22.226253,17.5139048 L23.3433735,17.5139048 L23.3433735,16.3744762 L22.226253,16.3744762 L22.226253,17.5139048 Z M22.226253,20.1946667 L23.3433735,20.1946667 L23.3433735,18.5192381 L22.226253,18.5192381 L22.226253,20.1946667 Z M21.733241,21.2 L23.836012,21.2 C24.1082892,21.2 24.3290241,20.9748571 24.3290241,20.6975238 L24.3290241,15.872 C24.3290241,15.5942857 24.1082892,15.3691429 23.836012,15.3691429 L21.733241,15.3691429 C21.4613373,15.3691429 21.2406024,15.5942857 21.2406024,15.872 L21.2406024,20.6975238 C21.2406024,20.9748571 21.4613373,21.2 21.733241,21.2 L21.733241,21.2 Z" id="Fill-504"></path>
                    <path d="M25.9059157,17.5139048 L27.0226627,17.5139048 L27.0226627,16.3744762 L25.9059157,16.3744762 L25.9059157,17.5139048 Z M25.9059157,20.1946667 L27.0226627,20.1946667 L27.0226627,18.5192381 L25.9059157,18.5192381 L25.9059157,20.1946667 Z M25.4129036,21.2 L27.5153012,21.2 C27.7879518,21.2 28.0083133,20.9748571 28.0083133,20.6975238 L28.0083133,15.872 C28.0083133,15.5942857 27.7879518,15.3691429 27.5153012,15.3691429 L25.4129036,15.3691429 C25.141,15.3691429 24.9202651,15.5942857 24.9202651,15.872 L24.9202651,20.6975238 C24.9202651,20.9748571 25.141,21.2 25.4129036,21.2 L25.4129036,21.2 Z" id="Fill-505"></path>
                    <path d="M22.226253,10.007619 L23.3433735,10.007619 L23.3433735,8.86857143 L22.226253,8.86857143 L22.226253,10.007619 Z M22.226253,12.688381 L23.3433735,12.688381 L23.3433735,11.0129524 L22.226253,11.0129524 L22.226253,12.688381 Z M21.733241,13.6937143 L23.836012,13.6937143 C24.1082892,13.6937143 24.3290241,13.4685714 24.3290241,13.1912381 L24.3290241,8.49980952 C24.3290241,8.14895238 24.0489036,7.86361905 23.7045422,7.86361905 L21.8650843,7.86361905 C21.5207229,7.86361905 21.2406024,8.14895238 21.2406024,8.49980952 L21.2406024,13.1912381 C21.2406024,13.4685714 21.4613373,13.6937143 21.733241,13.6937143 L21.733241,13.6937143 Z" id="Fill-506"></path>
                    <path d="M25.9059157,10.007619 L27.0226627,10.007619 L27.0226627,8.86857143 L25.9059157,8.86857143 L25.9059157,10.007619 Z M25.9059157,12.688381 L27.0226627,12.688381 L27.0226627,11.0129524 L25.9059157,11.0129524 L25.9059157,12.688381 Z M25.4129036,13.6937143 L27.5153012,13.6937143 C27.7879518,13.6937143 28.0083133,13.4685714 28.0083133,13.1912381 L28.0083133,8.49980952 C28.0083133,8.14895238 27.7285663,7.86361905 27.3842048,7.86361905 L25.544,7.86361905 C25.2003855,7.86361905 24.9202651,8.14895238 24.9202651,8.49980952 L24.9202651,13.1912381 C24.9202651,13.4685714 25.141,13.6937143 25.4129036,13.6937143 L25.4129036,13.6937143 Z" id="Fill-507"></path>
                    <path d="M13.2900361,20.1946667 L14.4071566,20.1946667 L14.4071566,18.5192381 L13.2900361,18.5192381 L13.2900361,20.1946667 Z M13.2900361,17.5139048 L14.4071566,17.5139048 L14.4071566,16.9108571 L13.2900361,16.9108571 L13.2900361,17.5139048 Z M14.9001687,15.9055238 L12.7973976,15.9055238 C12.5251205,15.9055238 12.3043855,16.1302857 12.3043855,16.408381 L12.3043855,20.6975238 C12.3043855,20.9748571 12.5251205,21.2 12.7973976,21.2 L14.9001687,21.2 C15.1720723,21.2 15.3928072,20.9748571 15.3928072,20.6975238 L15.3928072,16.408381 C15.3928072,16.1302857 15.1720723,15.9055238 14.9001687,15.9055238 L14.9001687,15.9055238 Z" id="Fill-508"></path>
                    <path d="M16.9696988,20.1946667 L18.0868193,20.1946667 L18.0868193,18.5192381 L16.9696988,18.5192381 L16.9696988,20.1946667 Z M16.9696988,17.5139048 L18.0868193,17.5139048 L18.0868193,16.9108571 L16.9696988,16.9108571 L16.9696988,17.5139048 Z M18.5794578,15.9055238 L16.4770602,15.9055238 C16.2047831,15.9055238 15.9840482,16.1302857 15.9840482,16.408381 L15.9840482,20.6975238 C15.9840482,20.9748571 16.2047831,21.2 16.4770602,21.2 L18.5794578,21.2 C18.8517349,21.2 19.0724699,20.9748571 19.0724699,20.6975238 L19.0724699,16.408381 C19.0724699,16.1302857 18.8517349,15.9055238 18.5794578,15.9055238 L18.5794578,15.9055238 Z" id="Fill-509"></path>
                    <path d="M13.2900361,13.7607619 L14.4071566,13.7607619 L14.4071566,12.0853333 L13.2900361,12.0853333 L13.2900361,13.7607619 Z M13.2900361,11.08 L14.4071566,11.08 L14.4071566,10.4769524 L13.2900361,10.4769524 L13.2900361,11.08 Z M14.9001687,9.47161905 L12.7973976,9.47161905 C12.5251205,9.47161905 12.3043855,9.6967619 12.3043855,9.97447619 L12.3043855,14.263619 C12.3043855,14.5409524 12.5251205,14.7660952 12.7973976,14.7660952 L14.9001687,14.7660952 C15.1720723,14.7660952 15.3928072,14.5409524 15.3928072,14.263619 L15.3928072,9.97447619 C15.3928072,9.6967619 15.1720723,9.47161905 14.9001687,9.47161905 L14.9001687,9.47161905 Z" id="Fill-510"></path>
                    <path d="M16.9696988,13.7607619 L18.0868193,13.7607619 L18.0868193,12.0853333 L16.9696988,12.0853333 L16.9696988,13.7607619 Z M16.9696988,11.08 L18.0868193,11.08 L18.0868193,10.4769524 L16.9696988,10.4769524 L16.9696988,11.08 Z M18.5794578,9.47161905 L16.4770602,9.47161905 C16.2047831,9.47161905 15.9840482,9.6967619 15.9840482,9.97447619 L15.9840482,14.263619 C15.9840482,14.5409524 16.2047831,14.7660952 16.4770602,14.7660952 L18.5794578,14.7660952 C18.8517349,14.7660952 19.0724699,14.5409524 19.0724699,14.263619 L19.0724699,9.97447619 C19.0724699,9.6967619 18.8517349,9.47161905 18.5794578,9.47161905 L18.5794578,9.47161905 Z" id="Fill-511"></path>
                    <path d="M13.2900361,7.32685714 L14.4071566,7.32685714 L14.4071566,5.65142857 L13.2900361,5.65142857 L13.2900361,7.32685714 Z M13.2900361,4.64647619 L14.4071566,4.64647619 L14.4071566,4.04342857 L13.2900361,4.04342857 L13.2900361,4.64647619 Z M14.9001687,3.03809524 L12.7973976,3.03809524 C12.5251205,3.03809524 12.3043855,3.2632381 12.3043855,3.54057143 L12.3043855,7.82971429 C12.3043855,8.10704762 12.5251205,8.33219048 12.7973976,8.33219048 L14.9001687,8.33219048 C15.1720723,8.33219048 15.3928072,8.10704762 15.3928072,7.82971429 L15.3928072,3.54057143 C15.3928072,3.2632381 15.1720723,3.03809524 14.9001687,3.03809524 L14.9001687,3.03809524 Z" id="Fill-512"></path>
                    <path d="M16.9696988,7.32685714 L18.0868193,7.32685714 L18.0868193,5.65142857 L16.9696988,5.65142857 L16.9696988,7.32685714 Z M16.9696988,4.64647619 L18.0868193,4.64647619 L18.0868193,4.04342857 L16.9696988,4.04342857 L16.9696988,4.64647619 Z M18.5794578,3.03809524 L16.4770602,3.03809524 C16.2047831,3.03809524 15.9840482,3.2632381 15.9840482,3.54057143 L15.9840482,7.82971429 C15.9840482,8.10704762 16.2047831,8.33219048 16.4770602,8.33219048 L18.5794578,8.33219048 C18.8517349,8.33219048 19.0724699,8.10704762 19.0724699,7.82971429 L19.0724699,3.54057143 C19.0724699,3.2632381 18.8517349,3.03809524 18.5794578,3.03809524 L18.5794578,3.03809524 Z" id="Fill-513"></path>
                    <path d="M6.98209639,20.7306667 L9.15060241,20.7306667 L9.15060241,19.0552381 L6.98209639,19.0552381 L6.98209639,20.7306667 Z M3.82831325,20.7306667 L5.99644578,20.7306667 L5.99644578,19.0552381 L3.82831325,19.0552381 L3.82831325,20.7306667 Z M3.82831325,15.3691429 L5.99644578,15.3691429 L5.99644578,13.6937143 L3.82831325,13.6937143 L3.82831325,15.3691429 Z M6.98209639,15.3691429 L9.15060241,15.3691429 L9.15060241,13.6937143 L6.98209639,13.6937143 L6.98209639,15.3691429 Z M6.98209639,18.0499048 L9.15060241,18.0499048 L9.15060241,16.3744762 L6.98209639,16.3744762 L6.98209639,18.0499048 Z M3.82831325,18.0499048 L5.99644578,18.0499048 L5.99644578,16.3744762 L3.82831325,16.3744762 L3.82831325,18.0499048 Z M9.64361446,12.688381 L3.3356747,12.688381 C3.06377108,12.688381 2.84303614,12.9135238 2.84303614,13.1912381 L2.84303614,21.2335238 C2.84303614,21.5108571 3.06377108,21.736 3.3356747,21.736 L9.64361446,21.736 C9.91551807,21.736 10.136253,21.5108571 10.136253,21.2335238 L10.136253,13.1912381 C10.136253,12.9135238 9.91551807,12.688381 9.64361446,12.688381 L9.64361446,12.688381 Z" id="Fill-514"></path>
                </g>
            </g>
        </g>
    </g>
</svg>