<?xml version="1.0" encoding="UTF-8" standalone="no"?>
<svg width="36px" height="85px" viewBox="0 0 36 85" version="1.1" xmlns="http://www.w3.org/2000/svg" xmlns:xlink="http://www.w3.org/1999/xlink">
    <!-- Generator: Sketch 41.2 (35397) - http://www.bohemiancoding.com/sketch -->
    <title>logo</title>
    <desc>Created with Sketch.</desc>
    <defs></defs>
    <g id="Page-1" stroke="none" stroke-width="1" fill="none" fill-rule="evenodd">
        <g id="logo" fill="#1F8994">
            <g id="test">
                <g id="Group-7">
                    <path d="M11.4146341,6.39398477 C11.4146341,9.92515228 14.327561,12.7879695 17.9205366,12.7879695 C21.5135122,12.7879695 24.426,9.92515228 24.426,6.39398477 C24.426,2.86281726 21.5135122,0 17.9205366,0 C14.327561,0 11.4146341,2.86281726 11.4146341,6.39398477" id="Fill-575"></path>
                    <path d="M30.1440984,19.2689974 C27.4884399,16.8001142 24.1922447,15.2204949 20.632196,14.6811548 C20.0487325,14.5931345 19.5236594,15.0397081 19.5236594,15.620038 L19.5236594,19.6379061 C19.5271716,19.638769 19.5311228,19.638769 19.535074,19.6396319 C19.534635,22.9045812 19.5315618,40.185901 19.5315618,40.185901 C19.5315618,40.6562055 19.948635,41.0182106 20.4245374,40.966434 C22.7118545,40.718769 24.3507325,39.0640736 25.0083911,38.1515101 C25.330196,37.7040736 25.7889764,36.6443781 25.7889764,34.8416878 C25.7889764,34.8416878 25.7898545,27.760368 25.7907325,23.6717385 C25.7911716,23.1052157 26.4883423,22.8277791 26.8944399,23.2299111 C29.8407325,26.144505 31.3400008,30.4734644 30.2288301,35.0772715 C29.147513,39.558972 25.5760496,43.0879822 21.0198545,44.1692512 C12.6472203,46.1557487 5.14780571,39.9412563 5.14780571,32.0375507 C5.14780571,28.6781091 6.503074,25.6237182 8.70434229,23.3748857 C9.10561058,22.9645558 9.81112278,23.2445812 9.8115618,23.8136929 C9.81243985,27.8898096 9.8133179,34.8101903 9.8133179,34.8101903 C9.8133179,37.0339974 10.3502447,37.7303934 10.7071716,38.1515101 C11.5123423,39.0998857 13.0067813,40.7010786 15.2054155,40.9979314 C15.6620008,41.0596319 16.0707325,40.7148857 16.0707325,40.2614086 C16.0707325,40.2614086 16.0676594,22.9710279 16.0672203,19.6590482 C16.0685374,19.6586167 16.0698545,19.6586167 16.0716106,19.6581852 L16.0716106,15.6420431 C16.0716106,15.056967 15.5373179,14.6112563 14.9490252,14.7057487 C11.2862447,15.2947081 7.91102522,16.9878045 5.23473254,19.6176269 C1.08551302,23.6954695 -0.772438196,29.4254187 0.297025219,35.2981852 C0.730342292,37.6755964 1.68126912,39.938236 3.08263497,41.9225761 C7.14448863,47.673236 13.9164399,50.4872969 20.920196,49.3551142 C23.4906838,48.940038 25.9378057,47.9571446 28.0648789,46.4793528 C32.6803423,43.2730837 35.4018545,38.3948604 35.7135618,33.0692005 C36.0160496,27.8949873 33.9750252,22.830368 30.1440984,19.2689974" id="Fill-576"></path>
                    <path d="M24.480439,83.5200512 C25.4322439,83.0834014 25.5727317,82.7472847 25.5709756,82.2303811 L25.5727317,58.1067771 C25.5727317,57.6895436 25.2254634,57.3866502 24.8009268,57.3862187 L20.0906341,57.3857872 C19.6660976,57.3853557 19.3183902,57.7197466 19.3183902,58.1067771 L19.3170732,84.1193659 C19.3170732,84.5767263 19.601561,85.168706 20.7886829,84.782107 L24.480439,83.5200512 Z" id="Fill-577"></path>
                    <path d="M10.7508293,83.5200512 C9.79902439,83.0834014 9.65853659,82.7472847 9.66029268,82.2303811 L9.65853659,58.1067771 C9.65853659,57.6895436 10.0058049,57.3866502 10.4303415,57.3862187 L15.1406341,57.3857872 C15.5651707,57.3853557 15.912878,57.7197466 15.912878,58.1067771 L15.9141951,84.1193659 C15.9141951,84.5767263 15.6297073,85.168706 14.4425854,84.782107 L10.7508293,83.5200512 Z" id="Fill-578"></path>
                </g>
            </g>
        </g>
    </g>
</svg>