<?xml version="1.0" encoding="UTF-8" standalone="no"?>
<svg width="350px" height="45px" viewBox="0 0 350 45" version="1.1" xmlns="http://www.w3.org/2000/svg" xmlns:xlink="http://www.w3.org/1999/xlink">
    <!-- Generator: Sketch 41.2 (35397) - http://www.bohemiancoding.com/sketch -->
    <title>Group 3</title>
    <desc>Created with Sketch.</desc>
    <defs></defs>
    <g id="Page-1" stroke="none" stroke-width="1" fill="none" fill-rule="evenodd">
        <g id="Group-3">
            <g id="Group-Copy-2">
                <rect id="Rectangle" fill="#F1B233" x="0" y="0" width="48" height="45"></rect>
                <rect id="Rectangle-2" fill="#D6264D" x="59" y="0" width="48" height="45"></rect>
                <rect id="Rectangle-3" fill="#1F8994" x="121" y="0" width="109" height="45"></rect>
                <rect id="Rectangle-4" fill="#4FAC37" x="244" y="0" width="48" height="45"></rect>
                <rect id="Rectangle-5" fill="#285395" x="302" y="0" width="48" height="45"></rect>
            </g>
            <g id="park" transform="translate(130.000000, 9.000000)" fill="#FFFFFF">
                <g id="rewitalizacja-copy-2">
                    <g id="test">
                        <g id="Artboard">
                            <g id="Group-8">
                                <path d="M3.98,3.12469486 C3.98,2.70067236 3.87061225,2.40333213 3.6522449,2.2338845 C3.43387755,2.06403343 3.08244898,1.97930962 2.59877551,1.97930962 L2.14244898,1.97930962 L2.14244898,4.1542909 L2.56367347,4.1542909 C3.5077551,4.1542909 3.98,3.81136119 3.98,3.12469486 L3.98,3.12469486 Z M6.63714286,8.51676029 L4.06204082,8.51676029 L2.14244898,5.27667968 L2.14244898,8.51676029 L0,8.51676029 L0,0.24368182 L2.52857143,0.24368182 C3.24653061,0.24368182 3.76163265,0.266678283 4.07346939,0.313074656 C4.56530612,0.390132981 4.97102041,0.552318563 5.29102041,0.79882451 C5.91551023,1.27731232 6.22775509,1.95227869 6.22775509,2.82372361 C6.22775509,4.13532891 5.60326531,4.92205001 4.35469388,5.18429039 L6.63714286,8.51676029 Z" id="Fill-516"></path>
                                <polygon id="Fill-517" points="12.882449 8.51676029 7.75510206 8.51676029 7.75510206 0.24368182 12.882449 0.24368182 12.882449 2.06040241 9.97959183 2.06040241 9.97959183 3.49505896 12.7187755 3.49505896 12.7187755 5.26538317 9.97959183 5.26538317 9.97959183 6.66534332 12.882449 6.66534332"></polygon>
                                <path d="M24.6383674,0.24368182 L22.2738775,8.51676029 L20.1551021,8.51676029 L19.1248979,4.98740838 C19.0779592,4.82562625 18.9840817,4.45526215 18.8436735,3.87671955 C18.7812245,4.13895992 18.6877551,4.50932402 18.5628571,4.98740838 L17.5444898,8.51676029 L15.4257143,8.51676029 L13.0612245,0.24368182 L15.3673469,0.24368182 L16.3269388,4.20068727 C16.4281633,4.61744774 16.5142857,5.03017373 16.5844898,5.43886526 C16.6469388,5.10723206 16.7444898,4.69450606 16.8771429,4.20068727 L17.9306122,0.24368182 L19.7685714,0.24368182 L20.8220408,4.17769081 C20.9314286,4.57871685 21.0134694,4.94141545 21.0677551,5.26538317 L21.0914286,5.39246889 C21.1538775,5.0842356 21.2395918,4.67917509 21.3489796,4.17769081 L22.3322449,0.24368182 L24.6383674,0.24368182 Z" id="Fill-518"></path>
                                <polygon id="Fill-519" points="25.7142857 8.51676029 28.0204082 8.51676029 28.0204082 0.24368182 25.7142857 0.24368182"></polygon>
                                <polygon id="Fill-520" points="34.9963265 2.18748813 33.1232653 2.18748813 33.1232653 8.51676029 30.8408163 8.51676029 30.8408163 2.18748813 28.9795918 2.18748813 28.9795918 0.24368182 34.9963265 0.24368182"></polygon>
                                <path d="M40.1608163,5.42716531 L39.3061225,2.69663789 C39.2906122,2.64257603 39.1967347,2.27261539 39.0253061,1.58594906 C38.8848979,2.14109176 38.7873469,2.51145585 38.7326531,2.69663789 L37.8897959,5.42716531 L40.1608163,5.42716531 Z M43.3330612,8.51676029 L41.0620408,8.51676029 L40.6408163,7.03570741 L37.3979592,7.03570741 L36.9648979,8.51676029 L34.6938775,8.51676029 L37.5853061,0.24368182 L40.4416326,0.24368182 L43.3330612,8.51676029 Z" id="Fill-521"></path>
                                <polygon id="Fill-522" points="49.197551 8.51676029 44.0816326 8.51676029 44.0816326 0.24368182 46.3644898 0.24368182 46.3644898 6.572954 49.197551 6.572954"></polygon>
                                <polygon id="Fill-523" points="50.6122449 8.51676029 52.9179592 8.51676029 52.9179592 0.24368182 50.6122449 0.24368182"></polygon>
                                <polygon id="Fill-524" points="61.7555103 0.24368182 57.5416326 6.71173966 61.2755103 6.71173966 61.2755103 8.51676029 53.877551 8.51676029 58.1036737 2.0370025 54.7085714 2.0370025 54.7085714 0.24368182"></polygon>
                                <path d="M67.099592,5.42716531 L66.2448977,2.69663789 C66.229388,2.64257603 66.1359183,2.27261539 65.9640817,1.58594906 C65.8236737,2.14109176 65.7261223,2.51145585 65.6714286,2.69663789 L64.8289794,5.42716531 L67.099592,5.42716531 Z M70.2718366,8.51676029 L68.0008166,8.51676029 L67.579592,7.03570741 L64.3367349,7.03570741 L63.9036737,8.51676029 L61.6326531,8.51676029 L64.5240817,0.24368182 L67.380408,0.24368182 L70.2718366,8.51676029 Z" id="Fill-525"></path>
                                <path d="M77.0273469,8.4009711 C76.3016326,8.74793526 75.579592,8.92182081 74.8616326,8.92182081 C73.6285714,8.92182081 72.6122451,8.5107086 71.8122451,7.68929107 C71.0122451,6.86787355 70.6122451,5.83222582 70.6122451,4.58275132 C70.6122451,3.33287337 71.0122451,2.29762909 71.8122451,1.47580811 C72.6122451,0.654390585 73.6285714,0.24368182 74.8616326,0.24368182 C75.579592,0.24368182 76.3016326,0.417163911 77.0273469,0.764128094 L77.0273469,3.22878412 C76.4261223,2.56551771 75.7824491,2.2338845 75.0959183,2.2338845 C74.44,2.2338845 73.909388,2.45779743 73.5036737,2.9048164 C73.0979594,3.35223882 72.8951023,3.9271504 72.8951023,4.62874424 C72.8951023,5.27667968 73.0979594,5.82254312 73.5036737,6.26593107 C73.909388,6.70972244 74.44,6.93161813 75.0959183,6.93161813 C75.7824491,6.93161813 76.4261223,6.59998495 77.0273469,5.93631505 L77.0273469,8.4009711 Z" id="Fill-526"></path>
                                <path d="M82.1061223,5.6006474 C82.1061223,6.49549225 81.9840817,7.1551276 81.7412246,7.5791501 C81.2942857,8.35054028 80.5808166,8.73623535 79.6008166,8.73623535 C78.5473469,8.73623535 77.7277549,8.29688182 77.1428571,7.41736799 L78.5355103,6.16789349 C78.6061223,6.67663981 78.8440817,6.93121471 79.249796,6.93121471 C79.5073469,6.93121471 79.6751023,6.75047056 79.7530611,6.38777196 C79.8,6.14086255 79.8232651,5.60871633 79.8232651,4.79092983 L79.8232651,0.24368182 L82.1061223,0.24368182 L82.1061223,5.6006474 Z" id="Fill-527"></path>
                                <path d="M88.3240817,5.42716531 L87.469388,2.69663789 C87.4538777,2.64257603 87.360408,2.27261539 87.1885714,1.58594906 C87.0481634,2.14109176 86.950612,2.51145585 86.8959183,2.69663789 L86.0534691,5.42716531 L88.3240817,5.42716531 Z M91.4963263,8.51676029 L89.2253063,8.51676029 L88.8040817,7.03570741 L85.5612246,7.03570741 L85.1281634,8.51676029 L82.8571429,8.51676029 L85.7485714,0.24368182 L88.6048977,0.24368182 L91.4963263,8.51676029 Z" id="Fill-528"></path>
                                <polygon id="Fill-529" points="10.7146939 27.8051446 0.408163265 27.8051446 0.408163265 11.1367433 5.00693878 11.1367433 5.00693878 23.8884839 10.7146939 23.8884839"></polygon>
                                <polygon id="Fill-530" points="23.3914286 27.8051446 13.0612245 27.8051446 13.0612245 11.1367433 23.3914286 11.1367433 23.3914286 14.796812 17.542449 14.796812 17.542449 17.6875077 23.0612245 17.6875077 23.0612245 21.2543803 17.542449 21.2543803 17.542449 24.0752797 23.3914286 24.0752797"></polygon>
                                <path d="M37.3506122,22.3662794 C37.3506122,24.1228864 36.7644898,25.5405982 35.5934694,26.6206251 C34.4220408,27.7010554 32.8534694,28.2412706 30.8881633,28.2412706 C28.6395918,28.2412706 26.6428571,27.4250979 24.8979592,25.7935593 L26.9730612,22.4130792 C28.3253061,23.936494 29.6620408,24.697798 30.982449,24.697798 C31.6114286,24.697798 32.1183674,24.5344021 32.5040817,24.2080137 C32.8889796,23.8816253 33.0816326,23.4701096 33.0816326,22.9726598 C33.0816326,22.3509484 32.8457143,21.8768985 32.3738775,21.5505101 C32.0122449,21.2862525 31.3044898,21.0223983 30.2514286,20.7577373 C28.6791837,20.3538871 27.5469388,19.810041 26.8551021,19.1257953 C26.1004082,18.4112912 25.7232653,17.4163915 25.7232653,16.1419034 C25.7232653,14.5720922 26.257551,13.278642 27.3269388,12.2603424 C28.3959183,11.2428498 29.8032653,10.7332966 31.5485714,10.7332966 C33.4355102,10.7332966 35.1016326,11.2311499 36.5485714,12.2252426 L35.1097959,15.4891265 C34.0563265,14.6031575 32.9791837,14.1601731 31.8787755,14.1601731 C31.3281633,14.1601731 30.88,14.2925036 30.5342857,14.5567612 C30.1885714,14.8210188 30.0155102,15.1550727 30.0155102,15.5589229 C30.0155102,16.0874381 30.2751021,16.4916917 30.7938775,16.7712803 C31.0767347,16.9270107 31.7138775,17.136803 32.7040817,17.4006572 C34.3232653,17.8202417 35.4714286,18.3644913 36.1477551,19.0325991 C36.9493878,19.7943066 37.3506122,20.9058023 37.3506122,22.3662794" id="Fill-531"></path>
                                <polygon id="Fill-532" points="54.24 11.1367433 45.7489796 24.1684759 53.2730612 24.1684759 53.2730612 27.8051446 38.3673469 27.8051446 46.8812245 14.7504156 40.0416326 14.7504156 40.0416326 11.1367433"></polygon>
                                <path d="M72.4040817,27.8051446 L67.9934691,27.8051446 L61.6257143,19.2028536 C61.3428571,18.8147379 60.8314286,17.8432382 60.0926531,16.288758 C60.2653063,17.6564424 60.3518366,18.7522037 60.3518366,19.5756384 L60.3518366,27.8051446 L55.9183674,27.8051446 L55.9183674,11.1367433 L60.3518366,11.1367433 L66.72,19.7156344 C66.9873469,20.0734917 67.4983674,21.0526569 68.2530611,22.65313 C68.08,21.2854456 67.9934691,20.1900878 67.9934691,19.3658461 L67.9934691,11.1367433 L72.4040817,11.1367433 L72.4040817,27.8051446 Z" id="Fill-533"></path>
                                <path d="M84.8918366,21.5807686 L83.169796,16.0789657 C83.1387754,15.9704385 82.949796,15.2244655 82.6040817,13.8410467 C82.3208166,14.9598045 82.1244897,15.7057774 82.0142857,16.0789657 L80.3163263,21.5807686 L84.8918366,21.5807686 Z M91.2832651,27.8051446 L86.7077549,27.8051446 L85.8587754,24.8212527 L79.3257143,24.8212527 L78.4530611,27.8051446 L73.8775509,27.8051446 L79.7032651,11.1367433 L85.4575509,11.1367433 L91.2832651,27.8051446 Z" id="Fill-534"></path>
                            </g>
                        </g>
                    </g>
                </g>
                <path d="M126.0016,17.5720176 C126.0016,14.8053706 128.1784,9.35484118 129.1332,7.09837059 C130.0876,9.35484118 132.2644,14.8053706 132.2644,17.5720176 C132.2644,19.1799588 131.1148,20.5165471 129.6172,20.7566059 L129.6172,17.7783118 L131.0248,16.3293118 C131.214,16.1345471 131.214,15.8187235 131.0248,15.6243706 C130.836,15.4296059 130.5292,15.4296059 130.3404,15.6243706 L129.6172,16.3684294 L129.6172,15.4448412 C129.6172,15.1697824 129.4004,14.9466059 129.1332,14.9466059 C128.8656,14.9466059 128.6488,15.1697824 128.6488,15.4448412 L128.6488,17.9636059 L127.926,17.2195471 C127.7368,17.0247824 127.43,17.0247824 127.2408,17.2195471 C127.0516,17.4143118 127.0516,17.7297235 127.2408,17.9244882 L128.6488,19.3734882 L128.6488,20.7566059 C127.1512,20.5165471 126.0016,19.1799588 126.0016,17.5720176 Z M145.1132,11.1583706 L146.2104,11.1583706 L146.2104,12.7864882 C146.2104,13.0977824 145.9644,13.3514294 145.6616,13.3514294 C145.3592,13.3514294 145.1132,13.0977824 145.1132,12.7864882 L145.1132,11.1583706 Z M148.212,19.8317824 C148.212,19.3870765 148.402,18.0570765 148.758,16.7159588 C149.276,14.7646059 149.7108,14.4067824 149.7944,14.3544882 C149.8772,14.4067824 150.3124,14.7646059 150.83,16.7159588 C151.1864,18.0570765 151.376,19.3870765 151.376,19.8317824 C151.376,20.4967824 150.9144,21.0613118 150.2784,21.2552529 L150.2784,20.2307824 C150.2784,19.9553118 150.0616,19.7321353 149.7944,19.7321353 C149.5264,19.7321353 149.31,19.9553118 149.31,20.2307824 L149.31,21.2552529 C148.6736,21.0613118 148.212,20.4967824 148.212,19.8317824 Z M153.4096,26.6444294 L150.2784,26.6444294 L150.2784,22.2784882 C151.4536,22.0565471 152.3444,21.0444294 152.3444,19.8317824 C152.3444,19.2182529 152.106,17.6906059 151.7208,16.2922529 C151.1684,14.2857235 150.556,13.3514294 149.7944,13.3514294 C149.032,13.3514294 148.4196,14.2857235 147.8672,16.2922529 C147.482,17.6906059 147.2436,19.2182529 147.2436,19.8317824 C147.2436,21.0444294 148.1344,22.0565471 149.31,22.2784882 L149.31,26.6444294 L146.146,26.6444294 L146.146,14.2663706 C146.746,14.0580176 147.1792,13.4733118 147.1792,12.7864882 L147.1792,10.6597235 C147.1792,10.3842529 146.9624,10.1610765 146.6948,10.1610765 L146.146,10.1610765 L146.146,9.56278235 L147.2116,9.56278235 C147.4788,9.56278235 147.696,9.34001765 147.696,9.06413529 C147.696,8.78907647 147.4788,8.5659 147.2116,8.5659 L144.112,8.5659 C143.8448,8.5659 143.628,8.78907647 143.628,9.06413529 C143.628,9.34001765 143.8448,9.56278235 144.112,9.56278235 L145.1776,9.56278235 L145.1776,10.1610765 L144.6288,10.1610765 C144.3612,10.1610765 144.1448,10.3842529 144.1448,10.6597235 L144.1448,12.7864882 C144.1448,13.4733118 144.578,14.0580176 145.1776,14.2663706 L145.1776,26.6444294 L143.4844,26.6444294 L133.3764,26.6444294 L129.6172,26.6444294 L129.6172,21.7621353 C131.6504,21.5146647 133.2328,19.7304882 133.2328,17.5720176 C133.2328,13.8274294 129.7216,5.99566471 129.5724,5.66419412 C129.4928,5.48837059 129.3216,5.37554706 129.1332,5.37554706 C128.9444,5.37554706 128.7732,5.48837059 128.6936,5.66419412 C128.5444,5.99566471 125.0332,13.8274294 125.0332,17.5720176 C125.0332,19.7304882 126.6152,21.5146647 128.6488,21.7621353 L128.6488,26.6444294 L124.4844,26.6444294 C124.2168,26.6444294 124,26.8676059 124,27.1430765 C124,27.4181353 124.2168,27.6413118 124.4844,27.6413118 L153.4096,27.6413118 C153.6772,27.6413118 153.894,27.4181353 153.894,27.1430765 C153.894,26.8676059 153.6772,26.6444294 153.4096,26.6444294 Z" id="Fill-494"></path>
                <path d="M135.41508,22.4648118 L141.31348,22.4648118 L141.31348,21.7862235 L135.41508,21.7862235 L135.41508,22.4648118 Z M135.41508,24.0604 L141.31348,24.0604 L141.31348,23.6836353 L135.41508,23.6836353 L135.41508,24.0604 Z M135.41508,26.6590471 L141.31348,26.6590471 L141.31348,25.2784 L135.41508,25.2784 L135.41508,26.6590471 Z M142.49708,26.6590471 L142.49708,25.2788118 L142.75308,25.2788118 C143.07948,25.2788118 143.34468,25.0058118 143.34468,24.6694 C143.34468,24.3329882 143.07948,24.0604 142.75308,24.0604 L142.49708,24.0604 L142.49708,21.1772235 C142.49708,20.8404 142.23188,20.5678118 141.90508,20.5678118 L134.82308,20.5678118 C134.49628,20.5678118 134.23148,20.8404 134.23148,21.1772235 L134.23148,24.0604 L133.97548,24.0604 C133.64868,24.0604 133.38348,24.3329882 133.38348,24.6694 C133.38348,25.0058118 133.64868,25.2788118 133.97548,25.2788118 L134.23148,25.2788118 L134.23148,26.6590471 L142.49708,26.6590471 Z" id="Fill-496"></path>
                <path d="M141.58424,6.99258824 L136.22624,6.99258824 C135.96384,6.99258824 135.75064,6.77311765 135.75064,6.503 C135.75064,6.23329412 135.96384,6.01341176 136.22624,6.01341176 C136.47624,6.01341176 136.67904,5.80505882 136.67904,5.54770588 C136.67904,5.28994118 136.47624,5.08158824 136.22624,5.08158824 L134.88224,5.08158824 C134.62024,5.08158824 134.40704,4.86170588 134.40704,4.592 C134.40704,4.32188235 134.62024,4.10241176 134.88224,4.10241176 L138.08264,4.10241176 C138.34504,4.10241176 138.55824,4.32188235 138.55824,4.592 C138.55824,4.86170588 138.34504,5.08158824 138.08264,5.08158824 C137.83264,5.08158824 137.62984,5.28994118 137.62984,5.54770588 C137.62984,5.80505882 137.83264,6.01341176 138.08264,6.01341176 L141.58424,6.01341176 C141.84664,6.01341176 142.05984,6.23329412 142.05984,6.503 C142.05984,6.77311765 141.84664,6.99258824 141.58424,6.99258824 M134.86784,6.24647059 C134.85864,6.24647059 134.85024,6.24688235 134.84144,6.24688235 C133.41824,6.24688235 132.26064,5.05482353 132.26064,3.58935294 C132.26064,2.12470588 133.41824,0.932647059 134.84144,0.932647059 C136.12584,0.932647059 137.19384,1.90358824 137.38984,3.17017647 L134.88264,3.17017647 C134.12104,3.17017647 133.50144,3.808 133.50144,4.592 C133.50144,5.376 134.12104,6.01382353 134.88264,6.01382353 L134.92944,6.01382353 C134.90264,6.08835294 134.88224,6.16617647 134.86784,6.24647059 M141.58424,5.08117647 L139.37984,5.08117647 C139.43424,4.92882353 139.46384,4.76370588 139.46384,4.592 C139.46384,3.88623529 138.96184,3.29905882 138.30584,3.18911765 C138.11144,1.39794118 136.63224,0 134.84104,0 C132.91904,0 131.35504,1.61041176 131.35504,3.58935294 C131.35504,5.56870588 132.91904,7.17911765 134.84144,7.17911765 C134.89704,7.17911765 134.95304,7.17705882 135.00904,7.17417647 C135.24264,7.62094118 135.70064,7.92482353 136.22624,7.92482353 L141.58424,7.92482353 C142.34584,7.92482353 142.96544,7.287 142.96544,6.503 C142.96544,5.719 142.34584,5.08117647 141.58424,5.08117647" id="Fill-498"></path>
            </g>
            <g id="building" transform="translate(67.000000, 11.000000)" fill="#FFFFFF">
                <path d="M11.7131446,22.8754286 L19.6637108,22.8754286 L19.6637108,1.36266667 L11.7131446,1.36266667 L11.7131446,22.8754286 Z M2.25142169,22.8754286 L10.727494,22.8754286 L10.727494,11.5493333 L2.25142169,11.5493333 L2.25142169,22.8754286 Z M2.25142169,10.544 L10.727494,10.544 L10.727494,9.94057143 L2.25142169,9.94057143 L2.25142169,10.544 Z M23.3370241,5.65142857 C23.5712048,5.65142857 23.7732651,5.48342857 23.8195783,5.24914286 C23.8968916,4.86095238 24.2356506,4.57904762 24.6244578,4.57904762 C25.0136386,4.57904762 25.3520241,4.86095238 25.4289639,5.24914286 C25.4756506,5.48342857 25.6777108,5.65142857 25.9122651,5.65142857 L28.5999277,5.65142857 L28.5999277,22.8754286 L20.6493614,22.8754286 L20.6493614,5.65142857 L23.3370241,5.65142857 Z M30.1435783,22.8754286 L29.5855783,22.8754286 L29.5855783,5.14895238 C29.5855783,4.87161905 29.3644699,4.64647619 29.0925663,4.64647619 L26.2655904,4.64647619 C25.975759,4.00647619 25.3389518,3.57409524 24.6244578,3.57409524 C23.9099639,3.57409524 23.2731566,4.00647619 22.9833253,4.64647619 L20.6493614,4.64647619 L20.6493614,1.36266667 L20.6818554,1.36266667 C20.9541325,1.36266667 21.1748675,1.13752381 21.1748675,0.859809524 C21.1748675,0.58247619 20.9541325,0.357333333 20.6818554,0.357333333 L10.695,0.357333333 C10.4223494,0.357333333 10.201988,0.58247619 10.201988,0.859809524 C10.201988,1.13752381 10.4223494,1.36266667 10.695,1.36266667 L10.727494,1.36266667 L10.727494,8.9352381 L1.23290361,8.9352381 C0.961,8.9352381 0.74026506,9.1607619 0.74026506,9.43809524 C0.74026506,9.71580952 0.961,9.94057143 1.23290361,9.94057143 L1.26614458,9.94057143 L1.26614458,22.8754286 L0.70739759,22.8754286 C0.435493976,22.8754286 0.214759036,23.1005714 0.214759036,23.3779048 C0.214759036,23.655619 0.435493976,23.8807619 0.70739759,23.8807619 L30.1435783,23.8807619 C30.4158554,23.8807619 30.6362169,23.655619 30.6362169,23.3779048 C30.6362169,23.1005714 30.4158554,22.8754286 30.1435783,22.8754286 L30.1435783,22.8754286 Z" id="Fill-503"></path>
                <path d="M22.226253,17.5139048 L23.3433735,17.5139048 L23.3433735,16.3744762 L22.226253,16.3744762 L22.226253,17.5139048 Z M22.226253,20.1946667 L23.3433735,20.1946667 L23.3433735,18.5192381 L22.226253,18.5192381 L22.226253,20.1946667 Z M21.733241,21.2 L23.836012,21.2 C24.1082892,21.2 24.3290241,20.9748571 24.3290241,20.6975238 L24.3290241,15.872 C24.3290241,15.5942857 24.1082892,15.3691429 23.836012,15.3691429 L21.733241,15.3691429 C21.4613373,15.3691429 21.2406024,15.5942857 21.2406024,15.872 L21.2406024,20.6975238 C21.2406024,20.9748571 21.4613373,21.2 21.733241,21.2 L21.733241,21.2 Z" id="Fill-504"></path>
                <path d="M25.9059157,17.5139048 L27.0226627,17.5139048 L27.0226627,16.3744762 L25.9059157,16.3744762 L25.9059157,17.5139048 Z M25.9059157,20.1946667 L27.0226627,20.1946667 L27.0226627,18.5192381 L25.9059157,18.5192381 L25.9059157,20.1946667 Z M25.4129036,21.2 L27.5153012,21.2 C27.7879518,21.2 28.0083133,20.9748571 28.0083133,20.6975238 L28.0083133,15.872 C28.0083133,15.5942857 27.7879518,15.3691429 27.5153012,15.3691429 L25.4129036,15.3691429 C25.141,15.3691429 24.9202651,15.5942857 24.9202651,15.872 L24.9202651,20.6975238 C24.9202651,20.9748571 25.141,21.2 25.4129036,21.2 L25.4129036,21.2 Z" id="Fill-505"></path>
                <path d="M22.226253,10.007619 L23.3433735,10.007619 L23.3433735,8.86857143 L22.226253,8.86857143 L22.226253,10.007619 Z M22.226253,12.688381 L23.3433735,12.688381 L23.3433735,11.0129524 L22.226253,11.0129524 L22.226253,12.688381 Z M21.733241,13.6937143 L23.836012,13.6937143 C24.1082892,13.6937143 24.3290241,13.4685714 24.3290241,13.1912381 L24.3290241,8.49980952 C24.3290241,8.14895238 24.0489036,7.86361905 23.7045422,7.86361905 L21.8650843,7.86361905 C21.5207229,7.86361905 21.2406024,8.14895238 21.2406024,8.49980952 L21.2406024,13.1912381 C21.2406024,13.4685714 21.4613373,13.6937143 21.733241,13.6937143 L21.733241,13.6937143 Z" id="Fill-506"></path>
                <path d="M25.9059157,10.007619 L27.0226627,10.007619 L27.0226627,8.86857143 L25.9059157,8.86857143 L25.9059157,10.007619 Z M25.9059157,12.688381 L27.0226627,12.688381 L27.0226627,11.0129524 L25.9059157,11.0129524 L25.9059157,12.688381 Z M25.4129036,13.6937143 L27.5153012,13.6937143 C27.7879518,13.6937143 28.0083133,13.4685714 28.0083133,13.1912381 L28.0083133,8.49980952 C28.0083133,8.14895238 27.7285663,7.86361905 27.3842048,7.86361905 L25.544,7.86361905 C25.2003855,7.86361905 24.9202651,8.14895238 24.9202651,8.49980952 L24.9202651,13.1912381 C24.9202651,13.4685714 25.141,13.6937143 25.4129036,13.6937143 L25.4129036,13.6937143 Z" id="Fill-507"></path>
                <path d="M13.2900361,20.1946667 L14.4071566,20.1946667 L14.4071566,18.5192381 L13.2900361,18.5192381 L13.2900361,20.1946667 Z M13.2900361,17.5139048 L14.4071566,17.5139048 L14.4071566,16.9108571 L13.2900361,16.9108571 L13.2900361,17.5139048 Z M14.9001687,15.9055238 L12.7973976,15.9055238 C12.5251205,15.9055238 12.3043855,16.1302857 12.3043855,16.408381 L12.3043855,20.6975238 C12.3043855,20.9748571 12.5251205,21.2 12.7973976,21.2 L14.9001687,21.2 C15.1720723,21.2 15.3928072,20.9748571 15.3928072,20.6975238 L15.3928072,16.408381 C15.3928072,16.1302857 15.1720723,15.9055238 14.9001687,15.9055238 L14.9001687,15.9055238 Z" id="Fill-508"></path>
                <path d="M16.9696988,20.1946667 L18.0868193,20.1946667 L18.0868193,18.5192381 L16.9696988,18.5192381 L16.9696988,20.1946667 Z M16.9696988,17.5139048 L18.0868193,17.5139048 L18.0868193,16.9108571 L16.9696988,16.9108571 L16.9696988,17.5139048 Z M18.5794578,15.9055238 L16.4770602,15.9055238 C16.2047831,15.9055238 15.9840482,16.1302857 15.9840482,16.408381 L15.9840482,20.6975238 C15.9840482,20.9748571 16.2047831,21.2 16.4770602,21.2 L18.5794578,21.2 C18.8517349,21.2 19.0724699,20.9748571 19.0724699,20.6975238 L19.0724699,16.408381 C19.0724699,16.1302857 18.8517349,15.9055238 18.5794578,15.9055238 L18.5794578,15.9055238 Z" id="Fill-509"></path>
                <path d="M13.2900361,13.7607619 L14.4071566,13.7607619 L14.4071566,12.0853333 L13.2900361,12.0853333 L13.2900361,13.7607619 Z M13.2900361,11.08 L14.4071566,11.08 L14.4071566,10.4769524 L13.2900361,10.4769524 L13.2900361,11.08 Z M14.9001687,9.47161905 L12.7973976,9.47161905 C12.5251205,9.47161905 12.3043855,9.6967619 12.3043855,9.97447619 L12.3043855,14.263619 C12.3043855,14.5409524 12.5251205,14.7660952 12.7973976,14.7660952 L14.9001687,14.7660952 C15.1720723,14.7660952 15.3928072,14.5409524 15.3928072,14.263619 L15.3928072,9.97447619 C15.3928072,9.6967619 15.1720723,9.47161905 14.9001687,9.47161905 L14.9001687,9.47161905 Z" id="Fill-510"></path>
                <path d="M16.9696988,13.7607619 L18.0868193,13.7607619 L18.0868193,12.0853333 L16.9696988,12.0853333 L16.9696988,13.7607619 Z M16.9696988,11.08 L18.0868193,11.08 L18.0868193,10.4769524 L16.9696988,10.4769524 L16.9696988,11.08 Z M18.5794578,9.47161905 L16.4770602,9.47161905 C16.2047831,9.47161905 15.9840482,9.6967619 15.9840482,9.97447619 L15.9840482,14.263619 C15.9840482,14.5409524 16.2047831,14.7660952 16.4770602,14.7660952 L18.5794578,14.7660952 C18.8517349,14.7660952 19.0724699,14.5409524 19.0724699,14.263619 L19.0724699,9.97447619 C19.0724699,9.6967619 18.8517349,9.47161905 18.5794578,9.47161905 L18.5794578,9.47161905 Z" id="Fill-511"></path>
                <path d="M13.2900361,7.32685714 L14.4071566,7.32685714 L14.4071566,5.65142857 L13.2900361,5.65142857 L13.2900361,7.32685714 Z M13.2900361,4.64647619 L14.4071566,4.64647619 L14.4071566,4.04342857 L13.2900361,4.04342857 L13.2900361,4.64647619 Z M14.9001687,3.03809524 L12.7973976,3.03809524 C12.5251205,3.03809524 12.3043855,3.2632381 12.3043855,3.54057143 L12.3043855,7.82971429 C12.3043855,8.10704762 12.5251205,8.33219048 12.7973976,8.33219048 L14.9001687,8.33219048 C15.1720723,8.33219048 15.3928072,8.10704762 15.3928072,7.82971429 L15.3928072,3.54057143 C15.3928072,3.2632381 15.1720723,3.03809524 14.9001687,3.03809524 L14.9001687,3.03809524 Z" id="Fill-512"></path>
                <path d="M16.9696988,7.32685714 L18.0868193,7.32685714 L18.0868193,5.65142857 L16.9696988,5.65142857 L16.9696988,7.32685714 Z M16.9696988,4.64647619 L18.0868193,4.64647619 L18.0868193,4.04342857 L16.9696988,4.04342857 L16.9696988,4.64647619 Z M18.5794578,3.03809524 L16.4770602,3.03809524 C16.2047831,3.03809524 15.9840482,3.2632381 15.9840482,3.54057143 L15.9840482,7.82971429 C15.9840482,8.10704762 16.2047831,8.33219048 16.4770602,8.33219048 L18.5794578,8.33219048 C18.8517349,8.33219048 19.0724699,8.10704762 19.0724699,7.82971429 L19.0724699,3.54057143 C19.0724699,3.2632381 18.8517349,3.03809524 18.5794578,3.03809524 L18.5794578,3.03809524 Z" id="Fill-513"></path>
                <path d="M6.98209639,20.7306667 L9.15060241,20.7306667 L9.15060241,19.0552381 L6.98209639,19.0552381 L6.98209639,20.7306667 Z M3.82831325,20.7306667 L5.99644578,20.7306667 L5.99644578,19.0552381 L3.82831325,19.0552381 L3.82831325,20.7306667 Z M3.82831325,15.3691429 L5.99644578,15.3691429 L5.99644578,13.6937143 L3.82831325,13.6937143 L3.82831325,15.3691429 Z M6.98209639,15.3691429 L9.15060241,15.3691429 L9.15060241,13.6937143 L6.98209639,13.6937143 L6.98209639,15.3691429 Z M6.98209639,18.0499048 L9.15060241,18.0499048 L9.15060241,16.3744762 L6.98209639,16.3744762 L6.98209639,18.0499048 Z M3.82831325,18.0499048 L5.99644578,18.0499048 L5.99644578,16.3744762 L3.82831325,16.3744762 L3.82831325,18.0499048 Z M9.64361446,12.688381 L3.3356747,12.688381 C3.06377108,12.688381 2.84303614,12.9135238 2.84303614,13.1912381 L2.84303614,21.2335238 C2.84303614,21.5108571 3.06377108,21.736 3.3356747,21.736 L9.64361446,21.736 C9.91551807,21.736 10.136253,21.5108571 10.136253,21.2335238 L10.136253,13.1912381 C10.136253,12.9135238 9.91551807,12.688381 9.64361446,12.688381 L9.64361446,12.688381 Z" id="Fill-514"></path>
            </g>
            <g id="cog" transform="translate(312.000000, 8.000000)" fill="#FFFFFF">
                <path d="M14.6619857,0.3477 L13.1988429,0.951128571 C12.4162714,1.27341429 12.0459857,2.17512857 12.3687,2.9517 L12.7445571,3.85941429 C12.0104143,4.40241429 11.3714143,5.04741429 10.8219857,5.78198571 L9.91427143,5.4057 C9.53798571,5.25055714 9.12012857,5.25055714 8.74384286,5.4057 C8.36755714,5.56084286 8.06927143,5.85955714 7.9137,6.23627143 L7.30427143,7.69898571 C6.98198571,8.48155714 7.35227143,9.37727143 8.13484286,9.69955714 L9.47841429,10.2549857 C9.7827,10.3805571 10.1234143,10.2369857 10.2485571,9.9327 C10.3741286,9.62798571 10.2305571,9.2877 9.92627143,9.16212857 L8.5827,8.6067 C8.40312857,8.53512857 8.31998571,8.32641429 8.39155714,8.14684286 L9.00055714,6.68412857 C9.03612857,6.60012857 9.10212857,6.52855714 9.1917,6.49255714 C9.27527143,6.45698571 9.37084286,6.45698571 9.46041429,6.49255714 L10.8039857,7.04798571 C11.0671286,7.15598571 11.3654143,7.06598571 11.5205571,6.83327143 C12.1239857,5.92555714 12.8881286,5.16098571 13.7958429,4.55798571 C14.0289857,4.40241429 14.1241286,4.09812857 14.0169857,3.84141429 L13.4615571,2.49741429 C13.3895571,2.3187 13.4735571,2.11512857 13.6522714,2.03755714 L15.1158429,1.43455714 C15.1994143,1.39898571 15.2945571,1.39898571 15.3845571,1.43455714 C15.4681286,1.47055714 15.5397,1.53612857 15.5757,1.6257 L16.1311286,2.96927143 C16.2382714,3.23198571 16.5129857,3.38155714 16.7937,3.32155714 C17.8565571,3.10684286 18.9438429,3.11284286 20.0067,3.32155714 C20.2814143,3.37555714 20.5621286,3.22641429 20.6692714,2.96927143 L21.2247,1.6257 C21.2967,1.44655714 21.5058429,1.36298571 21.6845571,1.43455714 L23.1481286,2.04398571 C23.2312714,2.07998571 23.3032714,2.14555714 23.3388429,2.2347 C23.3748429,2.3187 23.3748429,2.41384286 23.3388429,2.50384286 L22.7834143,3.84741429 C22.6762714,4.11012857 22.7658429,4.40884286 22.9985571,4.56398571 C23.9062714,5.16698571 24.6708429,5.93155714 25.2734143,6.83927143 C25.4289857,7.07198571 25.7332714,7.16755714 25.9904143,7.05998571 L27.3339857,6.50455714 C27.4235571,6.46898571 27.5131286,6.46898571 27.6027,6.50455714 C27.6862714,6.54055714 27.7578429,6.60612857 27.7938429,6.69612857 L28.3972714,8.15884286 C28.4328429,8.24241429 28.4328429,8.33841429 28.3972714,8.42755714 C28.3612714,8.51155714 28.2952714,8.5827 28.2057,8.6187 L26.8621286,9.17412857 C26.5994143,9.2817 26.4562714,9.55641429 26.5098429,9.83712857 C26.7249857,10.8999857 26.7189857,11.9868429 26.5098429,13.0497 C26.4562714,13.3244143 26.6058429,13.6051286 26.8621286,13.7127 L28.2057,14.2681286 C28.3852714,14.3397 28.4688429,14.5488429 28.3972714,14.7279857 L27.7882714,16.1911286 C27.7162714,16.3702714 27.5071286,16.4538429 27.3284143,16.3822714 L25.9844143,15.8268429 C25.7217,15.7192714 25.4229857,15.8088429 25.2678429,16.0419857 C24.6648429,16.9497 23.9002714,17.7138429 22.9925571,18.3172714 C22.7594143,18.4724143 22.6642714,18.7771286 22.7714143,19.0334143 L23.3268429,20.3774143 C23.3628429,20.4609857 23.3628429,20.5565571 23.3268429,20.6461286 C23.2912714,20.7297 23.2257,20.8012714 23.1361286,20.8372714 L21.6729857,21.4402714 C21.5889857,21.4762714 21.4938429,21.4762714 21.4038429,21.4402714 C21.3207,21.4047 21.2487,21.3387 21.2131286,21.2491286 L20.6572714,19.9055571 C20.5321286,19.6008429 20.1858429,19.4577 19.8875571,19.5828429 C19.5828429,19.7084143 19.4392714,20.0547 19.5648429,20.3534143 L20.1198429,21.6969857 C20.2754143,22.0732714 20.5741286,22.3719857 20.9499857,22.5271286 C21.1411286,22.6047 21.3382714,22.6467 21.5354143,22.6467 C21.7325571,22.6467 21.9352714,22.6047 22.1208429,22.5271286 L23.5839857,21.9241286 C23.9598429,21.7685571 24.2585571,21.4702714 24.4137,21.0939857 C24.5692714,20.7177 24.5692714,20.2998429 24.4137,19.9235571 L24.0374143,19.0158429 C24.7719857,18.4724143 25.4114143,17.8274143 25.9608429,17.0928429 L26.8685571,17.4691286 C27.6507,17.7914143 28.5464143,17.4211286 28.8687,16.6389857 L29.4777,15.1758429 C29.8004143,14.3932714 29.4301286,13.4975571 28.6479857,13.1752714 L27.7402714,12.7989857 C27.8714143,11.8972714 27.8714143,10.9835571 27.7402714,10.0818429 L28.6479857,9.70598571 C29.0242714,9.55041429 29.3225571,9.2517 29.4777,8.87541429 C29.6332714,8.49955714 29.6332714,8.08127143 29.4777,7.70498571 L28.8747,6.24184286 C28.7195571,5.86555714 28.4208429,5.56727143 28.0445571,5.4117 C27.6687,5.25655714 27.2504143,5.25655714 26.8741286,5.4117 L25.9664143,5.78798571 C25.4229857,5.05384286 24.7779857,4.40884286 24.0494143,3.86498571 L24.4257,2.95727143 C24.5812714,2.58141429 24.5812714,2.16312857 24.4257,1.78684286 C24.2705571,1.41098571 23.9718429,1.11227143 23.5959857,0.9567 L22.1324143,0.3477 C21.3502714,0.0249857143 20.4545571,0.3957 20.1318429,1.17784286 L19.7559857,2.08555714 C18.8538429,1.95398571 17.9405571,1.95398571 17.0388429,2.08555714 L16.6621286,1.17784286 C16.5074143,0.801557143 16.2087,0.503271429 15.8324143,0.3477 C15.4561286,0.192557143 15.0382714,0.192557143 14.6619857,0.3477" id="Fill-499"></path>
                <path d="M23.2015714,11.4017143 C23.1835714,8.76214286 21.0278571,6.63 18.3942857,6.63 L18.3587143,6.63 C17.0742857,6.642 15.8678571,7.14985714 14.9665714,8.06357143 C14.0648571,8.97685714 13.575,10.1892857 13.581,11.4732857 C13.581,11.796 13.8497143,12.0587143 14.172,12.0587143 L14.178,12.0587143 C14.5067143,12.0587143 14.7694286,11.79 14.7634286,11.4612857 C14.7574286,10.494 15.1277143,9.58028571 15.8087143,8.88771429 C16.4892857,8.19471429 17.397,7.81242857 18.3642857,7.80642857 L18.3882857,7.80642857 C20.3768571,7.80642857 22.0011429,9.41871429 22.0131429,11.4077143 C22.0251429,13.4082857 20.4128571,15.0445714 18.4122857,15.0625714 C18.084,15.0625714 17.8208571,15.3312857 17.8268571,15.6595714 C17.8268571,15.9818571 18.096,16.245 18.4178571,16.245 L18.4242857,16.245 C21.0818571,16.227 23.2195714,14.0532857 23.2015714,11.4017143" id="Fill-500"></path>
                <path d="M5.7459,25.4413286 C5.64432857,25.3757571 5.53118571,25.3397571 5.41718571,25.3397571 C5.26204286,25.3397571 5.1129,25.3997571 4.99932857,25.5129 L4.25275714,26.2594714 C4.22918571,26.2834714 4.20518571,26.2894714 4.18718571,26.2894714 C4.16918571,26.2894714 4.14518571,26.2834714 4.12161429,26.2594714 L3.30947143,25.4473286 C3.27347143,25.4117571 3.27347143,25.3517571 3.30947143,25.3157571 L4.05604286,24.5696143 C4.25275714,24.3724714 4.28875714,24.0557571 4.12761429,23.8230429 C3.69732857,23.1840429 3.40504286,22.4734714 3.2559,21.7209 C3.2019,21.4461857 2.95718571,21.2430429 2.67647143,21.2430429 L1.61918571,21.2430429 C1.56561429,21.2430429 1.52404286,21.2014714 1.52404286,21.1474714 L1.52404286,19.9950429 C1.52404286,19.9414714 1.56561429,19.8994714 1.61918571,19.8994714 L2.67647143,19.8994714 C2.95718571,19.8994714 3.2019,19.7023286 3.2559,19.4216143 C3.40504286,18.6694714 3.69732857,17.9589 4.12761429,17.3199 C4.28275714,17.0867571 4.25275714,16.7700429 4.05604286,16.5733286 L3.30947143,15.8267571 C3.27347143,15.7911857 3.27347143,15.7311857 3.30947143,15.6951857 L4.12161429,14.8834714 C4.14518571,14.8594714 4.16918571,14.8534714 4.18718571,14.8534714 C4.20518571,14.8534714 4.22918571,14.8594714 4.25275714,14.8834714 L4.99932857,15.6416143 C5.19647143,15.8387571 5.51275714,15.8743286 5.7459,15.7131857 C6.3849,15.2833286 7.09547143,14.9906143 7.84804286,14.8414714 C8.12275714,14.7874714 8.32547143,14.5427571 8.32547143,14.2620429 L8.32547143,13.2051857 C8.32547143,13.1511857 8.36747143,13.1096143 8.42147143,13.1096143 L9.5739,13.1096143 C9.62747143,13.1096143 9.66947143,13.1511857 9.66947143,13.2051857 L9.66947143,14.2620429 C9.66947143,14.5427571 9.86661429,14.7874714 10.1473286,14.8414714 C10.8994714,14.9906143 11.6100429,15.2833286 12.2494714,15.7131857 C12.4821857,15.8687571 12.7989,15.8387571 12.9960429,15.6416143 L13.7421857,14.8950429 C13.7661857,14.8714714 13.7897571,14.8650429 13.8077571,14.8650429 C13.8257571,14.8650429 13.8497571,14.8714714 13.8733286,14.8950429 L14.6854714,15.7071857 C14.7094714,15.7311857 14.7154714,15.7551857 14.7154714,15.7727571 C14.7154714,15.7911857 14.7094714,15.8151857 14.6854714,15.8387571 L13.9389,16.5849 C13.7421857,16.7820429 13.7066143,17.0987571 13.8677571,17.3314714 C14.2976143,17.9709 14.5903286,18.6814714 14.7394714,19.4336143 C14.7930429,19.7087571 15.0381857,19.9114714 15.3184714,19.9114714 L16.3757571,19.9114714 C16.4297571,19.9114714 16.4713286,19.9530429 16.4713286,20.0070429 L16.4713286,21.1594714 C16.4713286,21.2130429 16.4297571,21.2550429 16.3757571,21.2550429 L15.3184714,21.2550429 C15.0381857,21.2550429 14.7930429,21.4521857 14.7394714,21.7329 C14.5903286,22.4854714 14.2976143,23.1960429 13.8677571,23.8350429 C13.7121857,24.0677571 13.7421857,24.3844714 13.9389,24.5811857 L14.6854714,25.3277571 C14.7094714,25.3517571 14.7154714,25.3757571 14.7154714,25.3933286 C14.7154714,25.4117571 14.7094714,25.4353286 14.6854714,25.4593286 L13.8733286,26.2714714 C13.8497571,26.2954714 13.8257571,26.3010429 13.8077571,26.3010429 C13.7897571,26.3010429 13.7661857,26.2954714 13.7421857,26.2714714 L12.9960429,25.5249 C12.7989,25.3277571 12.4821857,25.2921857 12.2494714,25.4533286 C11.6100429,25.8831857 10.8994714,26.1759 10.1473286,26.3250429 C9.87261429,26.3790429 9.66947143,26.6237571 9.66947143,26.9044714 L9.66947143,27.9613286 C9.66947143,28.0153286 9.62747143,28.0573286 9.5739,28.0573286 L8.42147143,28.0573286 C8.36747143,28.0573286 8.32547143,28.0153286 8.32547143,27.9613286 L8.32547143,26.9044714 C8.32547143,26.6237571 8.12832857,26.3790429 7.84804286,26.3250429 C7.09547143,26.1639 6.3849,25.8711857 5.7459,25.4413286 M8.41504286,29.2277571 L9.5679,29.2277571 C10.2724714,29.2277571 10.8459,28.6543286 10.8459,27.9497571 L10.8459,27.3583286 C11.4193286,27.2031857 11.9687571,26.9760429 12.4821857,26.6777571 L12.9000429,27.0956143 C13.1391857,27.3343286 13.4614714,27.4719 13.8017571,27.4719 C14.1424714,27.4719 14.4647571,27.3403286 14.7034714,27.0956143 L15.5156143,26.2834714 C15.7547571,26.0447571 15.8919,25.7220429 15.8919,25.3817571 C15.8919,25.0410429 15.7607571,24.7187571 15.5156143,24.4800429 L15.0977571,24.0617571 C15.3964714,23.5483286 15.6231857,22.9989 15.7783286,22.4254714 L16.3697571,22.4254714 C17.0743286,22.4254714 17.6477571,21.8524714 17.6477571,21.1474714 L17.6477571,19.9950429 C17.6477571,19.2904714 17.0743286,18.7170429 16.3697571,18.7170429 L15.7783286,18.7170429 C15.6231857,18.1440429 15.3964714,17.5946143 15.0977571,17.0807571 L15.5156143,16.6629 C15.7547571,16.4241857 15.8919,16.1014714 15.8919,15.7611857 C15.8919,15.4204714 15.7607571,15.0981857 15.5156143,14.8594714 L14.7034714,14.0469 C14.4647571,13.8081857 14.1424714,13.6710429 13.8017571,13.6710429 C13.4614714,13.6710429 13.1391857,13.8021857 12.9000429,14.0469 L12.4821857,14.4651857 C11.9687571,14.1664714 11.4193286,13.9397571 10.8459,13.7841857 L10.8459,13.1931857 C10.8459,12.4886143 10.2724714,11.9151857 9.5679,11.9151857 L8.41504286,11.9151857 C7.7109,11.9151857 7.13747143,12.4886143 7.13747143,13.1931857 L7.13747143,13.7841857 C6.56404286,13.9397571 6.01461429,14.1664714 5.50118571,14.4651857 L5.08332857,14.0469 C4.84418571,13.8081857 4.52147143,13.6710429 4.18118571,13.6710429 C3.8409,13.6710429 3.51861429,13.8021857 3.27947143,14.0469 L2.46732857,14.8594714 C1.9719,15.3553286 1.9719,16.1670429 2.46732857,16.6629 L2.88561429,17.0807571 C2.5869,17.5946143 2.35975714,18.1440429 2.20461429,18.7170429 L1.61361429,18.7170429 C0.908614286,18.7170429 0.335614286,19.2904714 0.335614286,19.9950429 L0.335614286,21.1474714 C0.335614286,21.8524714 0.908614286,22.4254714 1.61361429,22.4254714 L2.20461429,22.4254714 C2.35975714,22.9989 2.5869,23.5483286 2.88561429,24.0617571 L2.46732857,24.4800429 C1.9719,24.9754714 1.9719,25.7876143 2.46732857,26.2834714 L3.27947143,27.0956143 C3.51861429,27.3343286 3.8409,27.4719 4.18118571,27.4719 C4.52147143,27.4719 4.84418571,27.3403286 5.08332857,27.0956143 L5.50118571,26.6777571 C6.01461429,26.9760429 6.56404286,27.2031857 7.13747143,27.3583286 L7.13747143,27.9497571 C7.14304286,28.6543286 7.71647143,29.2277571 8.41504286,29.2277571" id="Fill-501"></path>
                <path d="M6.66565714,20.5804714 C6.66565714,19.2960429 7.71051429,18.2511857 8.99451429,18.2511857 C10.2785143,18.2511857 11.3233714,19.2960429 11.3233714,20.5804714 C11.3233714,21.8644714 10.2785143,22.9093286 8.99451429,22.9093286 C7.71051429,22.9093286 6.66565714,21.8580429 6.66565714,20.5804714 M12.5002286,20.5804714 C12.5002286,18.6454714 10.9235143,17.0687571 8.98894286,17.0687571 C7.05394286,17.0687571 5.48322857,18.6454714 5.48322857,20.5804714 C5.48322857,22.5150429 7.05951429,24.0917571 8.99451429,24.0917571 C10.9295143,24.0917571 12.5002286,22.5150429 12.5002286,20.5804714" id="Fill-502"></path>
            </g>
            <path d="M16.6292536,19.7130345 C15.3567141,19.7130345 14.1826074,19.133462 13.4108941,18.144409 C13.6581573,17.8231243 13.8054128,17.4211247 13.8054128,16.9856579 L13.8054128,15.6288599 C13.8054128,15.2268602 13.8904588,14.8307666 14.0546447,14.4677463 L16.7690282,14.4677463 C16.9977861,14.4677463 17.2021326,14.3256093 17.2812726,14.1110258 C17.4178974,13.7420996 17.521055,13.3609677 17.5891705,12.9731424 C18.6821685,13.370811 19.4527006,14.4299481 19.4527006,15.6288599 L19.4527006,16.9856579 C19.4527006,17.4211247 19.5999561,17.8231243 19.8472194,18.144409 C19.0758998,19.1338557 17.9013994,19.7130345 16.6292536,19.7130345 L16.6292536,19.7130345 Z M16.6635082,22.2951242 L16.5823996,22.2951242 C15.9650289,22.2951242 15.3594702,21.5458536 15.3594702,20.7824086 C15.3594702,20.7351609 15.3531705,20.6890943 15.3417523,20.6442089 C15.7563513,20.7501227 16.1882746,20.8048513 16.6292536,20.8048513 C17.0466088,20.8048513 17.4560893,20.7556349 17.850608,20.6611394 C17.8132036,21.4549017 17.2123696,22.2951242 16.6635082,22.2951242 L16.6635082,22.2951242 Z M13.2530079,13.6448479 C12.8998309,14.244107 12.713596,14.9303806 12.713596,15.6288599 L12.713596,16.9856579 C12.713596,17.2443393 12.591933,17.4750659 12.4025483,17.6235025 C12.3864053,17.6341333 12.3710498,17.6455515 12.3556943,17.6573634 C12.2265504,17.7451655 12.0702391,17.7963506 11.9029033,17.7963506 C11.4556246,17.7963506 11.0922106,17.4325429 11.0922106,16.9856579 L11.0922106,15.6288599 C11.0922106,12.5983102 13.4656227,10.1666258 16.4957787,10.0933918 C16.6087796,10.0906357 16.725324,10.0918168 16.851318,10.0969354 C19.8318639,10.214661 22.1662966,12.6447705 22.1662966,15.6288599 L22.1662966,16.9856579 C22.1662966,17.4325429 21.8024889,17.7963506 21.3556039,17.7963506 C21.1874807,17.7963506 21.0315631,17.7451655 20.9020255,17.6573634 C20.8874574,17.6455515 20.8721019,17.6341333 20.8555652,17.6235025 C20.6661804,17.4750659 20.5449112,17.2443393 20.5449112,16.9856579 L20.5449112,15.6288599 C20.5449112,13.701939 19.109367,12.0368494 17.2052825,11.7553315 C17.0556646,11.7332826 16.9036843,11.7746243 16.7855649,11.8687261 C16.6670518,11.9632216 16.5934241,12.1022088 16.5816121,12.2530079 C16.5516885,12.6345335 16.4823918,13.0105468 16.3752969,13.3759295 L13.7235167,13.3759295 C13.5301947,13.3759295 13.3506532,13.4779059 13.2530079,13.6448479 L13.2530079,13.6448479 Z M19.6790961,21.2726041 C19.8381636,21.0166787 19.759811,20.6800385 19.503492,20.5205773 C19.3373374,20.4174197 19.1648831,20.3237117 18.9880977,20.2406344 C19.6625594,19.8957258 20.259456,19.401593 20.7335085,18.7838286 C20.9284055,18.8515504 21.1378705,18.8881674 21.3556039,18.8881674 C22.4045041,18.8881674 23.2581135,18.034558 23.2581135,16.9856579 L23.2581135,15.6288599 C23.2581135,13.9043169 22.599401,12.2711195 21.4032454,11.0300785 C20.2102396,9.79258107 18.6093282,9.07362775 16.8942348,9.00590597 L16.8934473,9.00590597 C16.7446169,9 16.6060235,8.99842507 16.4693987,9.00236239 C14.7621799,9.04331044 13.1518189,9.73430884 11.9347955,10.9477887 C10.6870611,12.1915858 10,13.854313 10,15.6288599 L10,16.9856579 C10,18.034558 10.8536094,18.8881674 11.9029033,18.8881674 C12.1206367,18.8881674 12.329708,18.8515504 12.5249987,18.7838286 C13.0470864,19.46459 13.7180045,19.9945523 14.4779059,20.3410359 C12.7939172,21.2269312 11.7517105,22.9420247 11.7517105,24.840597 L11.7517105,29.309447 C11.7517105,29.494107 11.8454185,29.6665613 12.0005486,29.7669628 L16.9532944,32.9809912 C17.0446401,33.0404446 17.1477977,33.0687933 17.2497741,33.0687933 C17.4285281,33.0687933 17.6037385,32.9809912 17.7080773,32.8199551 C17.8722633,32.5671796 17.8002104,32.2289645 17.547435,32.0647785 L12.8435273,29.0129674 L12.8435273,24.840597 C12.8435273,23.577507 13.4317619,22.4175746 14.4172713,21.6694852 C14.7550927,22.6498761 15.6224827,23.3869411 16.5823996,23.3869411 L16.6635082,23.3869411 C17.7057149,23.3869411 18.5376691,22.4435609 18.8306052,21.3895423 C18.8624974,21.4088351 18.8951771,21.4285217 18.9270694,21.4482082 C19.1833884,21.6072757 19.5196349,21.5285294 19.6790961,21.2726041 L19.6790961,21.2726041 Z M23.600266,35.9264949 L20.0740086,33.6814392 L20.0740086,31.9899696 C20.0740086,30.7894829 20.6803548,29.6937287 21.6623206,29.0476157 C22.0036856,29.8260225 22.8076849,30.3091307 23.5707361,30.3091307 L23.6372767,30.3091307 C24.4609625,30.3091307 25.1893654,29.7728687 25.5039567,29.0279291 C26.4997031,29.6701049 27.1186487,30.7749148 27.1245547,31.9927257 L27.1324293,33.6944323 L23.600266,35.9264949 Z M24.5680575,28.3518925 C24.4999419,28.8680742 24.047151,29.2173139 23.6372767,29.2173139 L23.5707361,29.2173139 C23.1368442,29.2173139 22.6545234,28.8503563 22.5923139,28.342443 C22.9147798,28.4223704 23.2518138,28.4648934 23.5990848,28.4648934 C23.9325752,28.4648934 24.2570097,28.4255203 24.5680575,28.3518925 L24.5680575,28.3518925 Z M20.5059318,24.2799236 C20.5059318,23.9255655 20.5661727,23.5842004 20.6764175,23.266853 C21.5772746,23.5550643 22.5769584,23.7066509 23.5990848,23.7066509 C24.6216049,23.7066509 25.6212886,23.5550643 26.5221458,23.266853 C26.6323906,23.5842004 26.6922377,23.9255655 26.6922377,24.2799236 C26.6922377,25.9855675 25.3047287,27.3730766 23.5990848,27.3730766 C21.8934408,27.3730766 20.5059318,25.9855675 20.5059318,24.2799236 L20.5059318,24.2799236 Z M23.5990848,21.1867707 C24.5495521,21.1867707 25.4007991,21.6171189 25.9685596,22.2935493 C25.2330696,22.5045893 24.4263142,22.6144403 23.5990848,22.6144403 C22.7722491,22.6144403 21.9650999,22.5045893 21.2296099,22.2935493 C21.7977641,21.6171189 22.6490112,21.1867707 23.5990848,21.1867707 L23.5990848,21.1867707 Z M25.7149967,27.889652 C26.9517066,27.1616429 27.7840546,25.8158693 27.7840546,24.2799236 C27.7840546,23.5885315 27.6155376,22.935725 27.3178767,22.3604836 C27.3068523,22.336466 27.2946466,22.3132359 27.2812597,22.2915806 C26.5725434,20.9843928 25.1877905,20.0949538 23.5990848,20.0949538 C22.010379,20.0949538 20.6252324,20.9847865 19.9169098,22.2927618 C19.9035229,22.3136296 19.891711,22.336466 19.881474,22.3596961 C19.582632,22.9353313 19.414115,23.5881377 19.414115,24.2799236 C19.414115,25.8158693 20.2456754,27.1612491 21.4827791,27.8892583 C19.9519519,28.6806582 18.9821917,30.2512522 18.9821917,31.9899696 L18.9821917,33.9810687 C18.9821917,34.1676973 19.0774747,34.3413328 19.2349672,34.4417343 L23.3061487,37.0332736 C23.3955257,37.0903646 23.4971084,37.1187133 23.5990848,37.1187133 C23.7006674,37.1187133 23.8018564,37.0907583 23.8908396,37.0344548 L27.9714707,34.4559086 C28.1309318,34.3559009 28.2266085,34.1802967 28.2262148,33.9920932 L28.2163715,31.9872135 C28.2081032,30.2445588 27.2395242,28.6790832 25.7149967,27.889652 L25.7149967,27.889652 Z M34.1625013,13.9220348 C33.6404137,13.9220348 33.2159713,13.4975924 33.2159713,12.9755048 L33.2159713,12.6719379 C33.2159713,12.4731036 33.1076952,12.2904123 32.9340597,12.1939482 C32.7600305,12.0978777 32.5478094,12.1037837 32.3792924,12.2093037 C31.4189818,12.8125 30.2732237,13.1314223 29.0664374,13.1314223 C28.5947473,13.1314223 28.1258133,13.0814185 27.6730223,12.9833794 C27.5115925,12.9483373 27.3434693,12.9881042 27.2147191,13.0920492 C27.0863627,13.1956005 27.0115538,13.3519119 27.0115538,13.5168853 L27.0115538,13.8480133 C27.0115538,14.3697072 26.5871115,14.7941496 26.0650238,14.7941496 C26.0291942,14.7941496 25.9941522,14.7921809 25.9591101,14.7886373 C25.9508417,14.7874561 25.9425734,14.7862749 25.9346987,14.7854875 C25.9224931,14.7839125 25.9102874,14.7819439 25.8984755,14.7795815 C25.8965068,14.7331212 25.8961131,14.6862672 25.8961131,14.6398069 C25.8961131,13.8822679 26.0858915,13.1322098 26.4457619,12.4707413 C26.4469431,12.4683789 26.4489118,12.4656227 26.4496993,12.4636541 C26.454424,12.454992 26.9477693,11.6002014 27.6604229,11.0434654 C27.6619979,11.0418904 27.6635728,11.0407092 27.6639665,11.0403155 C28.4659971,10.419795 29.4274889,10.0922106 30.4437094,10.0922106 C31.1311642,10.0922106 31.7918453,10.2418285 32.4064598,10.5363395 C32.4170906,10.541458 32.4332336,10.5485451 32.4533138,10.5579947 C33.0604475,10.8273069 33.5266253,11.2639549 33.812868,11.5856333 C33.8160178,11.5891769 33.8191677,11.5927205 33.8223175,11.5966578 C34.3377118,12.1679619 34.6975822,12.8565979 34.8716114,13.5995688 C34.6928574,13.801553 34.4345697,13.9220348 34.1625013,13.9220348 L34.1625013,13.9220348 Z M30.3645694,18.260166 C28.7183789,18.260166 27.258817,17.2797751 26.6193974,15.8095825 C27.3773302,15.5953927 27.9572963,14.9524295 28.079353,14.1602422 C28.4053625,14.2019777 28.7353093,14.2228455 29.0664374,14.2228455 C30.1771533,14.2228455 31.2465275,13.9901503 32.2044757,13.5444465 C32.4513452,14.3925436 33.2356579,15.0138516 34.1625013,15.0138516 C34.2302231,15.0138516 34.2971574,15.010308 34.363698,15.0036146 C33.9786288,16.8584827 32.3269261,18.260166 30.3645694,18.260166 L30.3645694,18.260166 Z M30.3322834,20.5926301 L30.2507811,20.5926301 C29.5971871,20.5926301 29.0455696,19.9591165 29.0455696,19.2094522 C29.0455696,19.2003963 29.0451759,19.1909468 29.0447821,19.181891 C29.4680433,19.2933169 29.9105972,19.3519829 30.3645694,19.3519829 C30.7527884,19.3519829 31.1311642,19.3086724 31.4953656,19.2267763 C31.4528427,19.9650225 30.9272114,20.5926301 30.3322834,20.5926301 L30.3322834,20.5926301 Z M35.9909894,13.6224053 C35.8047545,12.6002788 35.338183,11.6498115 34.6404911,10.8733734 C34.6393099,10.8717985 34.6381287,10.8706173 34.6365538,10.8686487 C34.2794395,10.4654678 33.6876614,9.91109419 32.8966553,9.55988588 L32.8785436,9.55201126 C32.1150987,9.18584117 31.2957439,9 30.4437094,9 C29.1833755,9 27.9911572,9.40711815 26.9958045,10.1768628 C26.9950171,10.1776503 26.990686,10.1811938 26.9891111,10.1819813 C26.1339268,10.8501433 25.5693161,11.8045479 25.4996257,11.9262109 C25.4964758,11.9313294 25.493326,11.9372354 25.4905698,11.9423539 C25.0417162,12.7652523 24.8042962,13.6976079 24.8042962,14.6398069 C24.8042962,14.8354913 24.8145332,15.0331444 24.8346135,15.2276477 C24.8539064,15.4099453 24.9625762,15.5701939 25.1247935,15.6552399 C25.2271636,15.7087873 25.3346523,15.7536727 25.444897,15.7887148 C25.8843011,17.1337008 26.8438243,18.208981 28.0636038,18.8137522 C27.5407286,19.0810958 27.0714009,19.4342727 26.6646765,19.8658022 C26.4579676,20.0855043 26.4685984,20.4312003 26.6883004,20.6375155 C26.9083962,20.8442244 27.2536985,20.8335937 27.4600137,20.6138916 C27.6553044,20.4063953 27.8687068,20.222129 28.0994333,20.0618804 C28.4301676,20.9985671 29.2818084,21.684447 30.2507811,21.684447 L30.3318897,21.684447 C31.3024373,21.684447 32.1536843,20.9493507 32.4643383,19.9547855 C33.6171835,20.6768886 34.3546422,21.9647837 34.3546422,23.3420557 L34.3546422,29.0129674 L29.389297,32.2344767 C29.1365215,32.3986627 29.0644687,32.7368778 29.2286546,32.9896533 C29.3329934,33.1506894 29.5082039,33.2384915 29.6869579,33.2384915 C29.7889343,33.2384915 29.8916981,33.2101428 29.9838312,33.1506894 L35.1976209,29.7669628 C35.3531447,29.6665613 35.4464591,29.494107 35.4464591,29.309447 L35.4464591,23.3420557 C35.4464591,21.4088351 34.3672416,19.67563 32.6615977,18.8109961 C34.2766834,18.0050282 35.4192916,16.3777368 35.5311113,14.4827081 C35.6850602,14.3433272 35.8193226,14.1787476 35.9260238,13.9940876 C35.9913831,13.8818742 36.0146133,13.7503679 35.9909894,13.6224053 L35.9909894,13.6224053 Z" id="social" fill="#FFFFFF"></path>
        </g>
    </g>
</svg>