<?xml version="1.0" encoding="UTF-8" standalone="no"?>
<svg width="76px" height="68px" viewBox="0 0 76 68" version="1.1" xmlns="http://www.w3.org/2000/svg" xmlns:xlink="http://www.w3.org/1999/xlink">
    <!-- Generator: Sketch 41.2 (35397) - http://www.bohemiancoding.com/sketch -->
    <title>park</title>
    <desc>Created with Sketch.</desc>
    <defs></defs>
    <g id="Page-1" stroke="none" stroke-width="1" fill="none" fill-rule="evenodd">
        <g id="park" fill="#6EB245">
            <path d="M5.3103,43.4275 C5.3103,36.7085 10.7523,23.4715 13.1393,17.9915 C15.5253,23.4715 20.9673,36.7085 20.9673,43.4275 C20.9673,47.3325 18.0933,50.5785 14.3493,51.1615 L14.3493,43.9285 L17.8683,40.4095 C18.3413,39.9365 18.3413,39.1695 17.8683,38.6975 C17.3963,38.2245 16.6293,38.2245 16.1573,38.6975 L14.3493,40.5045 L14.3493,38.2615 C14.3493,37.5935 13.8073,37.0515 13.1393,37.0515 C12.4703,37.0515 11.9283,37.5935 11.9283,38.2615 L11.9283,44.3785 L10.1213,42.5715 C9.6483,42.0985 8.8813,42.0985 8.4083,42.5715 C7.9353,43.0445 7.9353,43.8105 8.4083,44.2835 L11.9283,47.8025 L11.9283,51.1615 C8.1843,50.5785 5.3103,47.3325 5.3103,43.4275 Z M53.0893,27.8515 L55.8323,27.8515 L55.8323,31.8055 C55.8323,32.5615 55.2173,33.1775 54.4603,33.1775 C53.7043,33.1775 53.0893,32.5615 53.0893,31.8055 L53.0893,27.8515 Z M60.8363,48.9155 C60.8363,47.8355 61.3113,44.6055 62.2013,41.3485 C63.4963,36.6095 64.5833,35.7405 64.7923,35.6135 C64.9993,35.7405 66.0873,36.6095 67.3813,41.3485 C68.2723,44.6055 68.7463,47.8355 68.7463,48.9155 C68.7463,50.5305 67.5923,51.9015 66.0023,52.3725 L66.0023,49.8845 C66.0023,49.2155 65.4603,48.6735 64.7923,48.6735 C64.1223,48.6735 63.5813,49.2155 63.5813,49.8845 L63.5813,52.3725 C61.9903,51.9015 60.8363,50.5305 60.8363,48.9155 Z M73.8303,65.4605 L66.0023,65.4605 L66.0023,54.8575 C68.9403,54.3185 71.1673,51.8605 71.1673,48.9155 C71.1673,47.4255 70.5713,43.7155 69.6083,40.3195 C68.2273,35.4465 66.6963,33.1775 64.7923,33.1775 C62.8863,33.1775 61.3553,35.4465 59.9743,40.3195 C59.0113,43.7155 58.4153,47.4255 58.4153,48.9155 C58.4153,51.8605 60.6423,54.3185 63.5813,54.8575 L63.5813,65.4605 L55.6713,65.4605 L55.6713,35.3995 C57.1713,34.8935 58.2543,33.4735 58.2543,31.8055 L58.2543,26.6405 C58.2543,25.9715 57.7123,25.4295 57.0433,25.4295 L55.6713,25.4295 L55.6713,23.9765 L58.3353,23.9765 C59.0033,23.9765 59.5463,23.4355 59.5463,22.7655 C59.5463,22.0975 59.0033,21.5555 58.3353,21.5555 L50.5863,21.5555 C49.9183,21.5555 49.3763,22.0975 49.3763,22.7655 C49.3763,23.4355 49.9183,23.9765 50.5863,23.9765 L53.2503,23.9765 L53.2503,25.4295 L51.8783,25.4295 C51.2093,25.4295 50.6683,25.9715 50.6683,26.6405 L50.6683,31.8055 C50.6683,33.4735 51.7513,34.8935 53.2503,35.3995 L53.2503,65.4605 L49.0173,65.4605 L23.7473,65.4605 L14.3493,65.4605 L14.3493,53.6035 C19.4323,53.0025 23.3883,48.6695 23.3883,43.4275 C23.3883,34.3335 14.6103,15.3135 14.2373,14.5085 C14.0383,14.0815 13.6103,13.8075 13.1393,13.8075 C12.6673,13.8075 12.2393,14.0815 12.0403,14.5085 C11.6673,15.3135 2.8893,34.3335 2.8893,43.4275 C2.8893,48.6695 6.8443,53.0025 11.9283,53.6035 L11.9283,65.4605 L1.5173,65.4605 C0.8483,65.4605 0.3063,66.0025 0.3063,66.6715 C0.3063,67.3395 0.8483,67.8815 1.5173,67.8815 L73.8303,67.8815 C74.4993,67.8815 75.0413,67.3395 75.0413,66.6715 C75.0413,66.0025 74.4993,65.4605 73.8303,65.4605 Z" id="Fill-494"></path>
            <path d="M28.844,55.31 L43.59,55.31 L43.59,53.662 L28.844,53.662 L28.844,55.31 Z M28.844,59.185 L43.59,59.185 L43.59,58.27 L28.844,58.27 L28.844,59.185 Z M28.844,65.496 L43.59,65.496 L43.59,62.143 L28.844,62.143 L28.844,65.496 Z M46.549,65.496 L46.549,62.144 L47.189,62.144 C48.005,62.144 48.668,61.481 48.668,60.664 C48.668,59.847 48.005,59.185 47.189,59.185 L46.549,59.185 L46.549,52.183 C46.549,51.365 45.886,50.703 45.069,50.703 L27.364,50.703 C26.547,50.703 25.885,51.365 25.885,52.183 L25.885,59.185 L25.245,59.185 C24.428,59.185 23.765,59.847 23.765,60.664 C23.765,61.481 24.428,62.144 25.245,62.144 L25.885,62.144 L25.885,65.496 L46.549,65.496 Z" id="Fill-496"></path>
            <path d="M44.2669,17.7346 L30.8719,17.7346 C30.2159,17.7346 29.6829,17.2016 29.6829,16.5456 C29.6829,15.8906 30.2159,15.3566 30.8719,15.3566 C31.4969,15.3566 32.0039,14.8506 32.0039,14.2256 C32.0039,13.5996 31.4969,13.0936 30.8719,13.0936 L27.5119,13.0936 C26.8569,13.0936 26.3239,12.5596 26.3239,11.9046 C26.3239,11.2486 26.8569,10.7156 27.5119,10.7156 L35.5129,10.7156 C36.1689,10.7156 36.7019,11.2486 36.7019,11.9046 C36.7019,12.5596 36.1689,13.0936 35.5129,13.0936 C34.8879,13.0936 34.3809,13.5996 34.3809,14.2256 C34.3809,14.8506 34.8879,15.3566 35.5129,15.3566 L44.2669,15.3566 C44.9229,15.3566 45.4559,15.8906 45.4559,16.5456 C45.4559,17.2016 44.9229,17.7346 44.2669,17.7346 M27.4759,15.9226 C27.4529,15.9226 27.4319,15.9236 27.4099,15.9236 C23.8519,15.9236 20.9579,13.0286 20.9579,9.4696 C20.9579,5.9126 23.8519,3.0176 27.4099,3.0176 C30.6209,3.0176 33.2909,5.3756 33.7809,8.4516 L27.5129,8.4516 C25.6089,8.4516 24.0599,10.0006 24.0599,11.9046 C24.0599,13.8086 25.6089,15.3576 27.5129,15.3576 L27.6299,15.3576 C27.5629,15.5386 27.5119,15.7276 27.4759,15.9226 M44.2669,13.0926 L38.7559,13.0926 C38.8919,12.7226 38.9659,12.3216 38.9659,11.9046 C38.9659,10.1906 37.7109,8.7646 36.0709,8.4976 C35.5849,4.1476 31.8869,0.7526 27.4089,0.7526 C22.6039,0.7526 18.6939,4.6636 18.6939,9.4696 C18.6939,14.2766 22.6039,18.1876 27.4099,18.1876 C27.5489,18.1876 27.6889,18.1826 27.8289,18.1756 C28.4129,19.2606 29.5579,19.9986 30.8719,19.9986 L44.2669,19.9986 C46.1709,19.9986 47.7199,18.4496 47.7199,16.5456 C47.7199,14.6416 46.1709,13.0926 44.2669,13.0926" id="Fill-498"></path>
        </g>
    </g>
</svg>