<?xml version="1.0" encoding="UTF-8" standalone="no"?>
<svg width="350px" height="45px" viewBox="0 0 350 45" version="1.1" xmlns="http://www.w3.org/2000/svg" xmlns:xlink="http://www.w3.org/1999/xlink">
    <!-- Generator: Sketch 41.2 (35397) - http://www.bohemiancoding.com/sketch -->
    <title>Group 2</title>
    <desc>Created with Sketch.</desc>
    <defs></defs>
    <g id="Page-1" stroke="none" stroke-width="1" fill="none" fill-rule="evenodd">
        <g id="Group-2">
            <g id="Group-Copy">
                <rect id="Rectangle" fill="#F1B233" x="0" y="0" width="48" height="45"></rect>
                <rect id="Rectangle-2" fill="#D6264D" x="59" y="0" width="48" height="45"></rect>
                <rect id="Rectangle-3" fill="#1F8994" x="121" y="0" width="109" height="45"></rect>
                <rect id="Rectangle-4" fill="#4FAC37" x="244" y="0" width="48" height="45"></rect>
                <rect id="Rectangle-5" fill="#285395" x="302" y="0" width="48" height="45"></rect>
            </g>
            <g id="rewitalizacja-copy" transform="translate(129.000000, 8.000000)" fill="#FFFFFF">
                <g id="test">
                    <g id="Artboard">
                        <g id="Group-8">
                            <path d="M3.98,3.12469486 C3.98,2.70067236 3.87061225,2.40333213 3.6522449,2.2338845 C3.43387755,2.06403343 3.08244898,1.97930962 2.59877551,1.97930962 L2.14244898,1.97930962 L2.14244898,4.1542909 L2.56367347,4.1542909 C3.5077551,4.1542909 3.98,3.81136119 3.98,3.12469486 L3.98,3.12469486 Z M6.63714286,8.51676029 L4.06204082,8.51676029 L2.14244898,5.27667968 L2.14244898,8.51676029 L0,8.51676029 L0,0.24368182 L2.52857143,0.24368182 C3.24653061,0.24368182 3.76163265,0.266678283 4.07346939,0.313074656 C4.56530612,0.390132981 4.97102041,0.552318563 5.29102041,0.79882451 C5.91551023,1.27731232 6.22775509,1.95227869 6.22775509,2.82372361 C6.22775509,4.13532891 5.60326531,4.92205001 4.35469388,5.18429039 L6.63714286,8.51676029 Z" id="Fill-516"></path>
                            <polygon id="Fill-517" points="12.882449 8.51676029 7.75510206 8.51676029 7.75510206 0.24368182 12.882449 0.24368182 12.882449 2.06040241 9.97959183 2.06040241 9.97959183 3.49505896 12.7187755 3.49505896 12.7187755 5.26538317 9.97959183 5.26538317 9.97959183 6.66534332 12.882449 6.66534332"></polygon>
                            <path d="M24.6383674,0.24368182 L22.2738775,8.51676029 L20.1551021,8.51676029 L19.1248979,4.98740838 C19.0779592,4.82562625 18.9840817,4.45526215 18.8436735,3.87671955 C18.7812245,4.13895992 18.6877551,4.50932402 18.5628571,4.98740838 L17.5444898,8.51676029 L15.4257143,8.51676029 L13.0612245,0.24368182 L15.3673469,0.24368182 L16.3269388,4.20068727 C16.4281633,4.61744774 16.5142857,5.03017373 16.5844898,5.43886526 C16.6469388,5.10723206 16.7444898,4.69450606 16.8771429,4.20068727 L17.9306122,0.24368182 L19.7685714,0.24368182 L20.8220408,4.17769081 C20.9314286,4.57871685 21.0134694,4.94141545 21.0677551,5.26538317 L21.0914286,5.39246889 C21.1538775,5.0842356 21.2395918,4.67917509 21.3489796,4.17769081 L22.3322449,0.24368182 L24.6383674,0.24368182 Z" id="Fill-518"></path>
                            <polygon id="Fill-519" points="25.7142857 8.51676029 28.0204082 8.51676029 28.0204082 0.24368182 25.7142857 0.24368182"></polygon>
                            <polygon id="Fill-520" points="34.9963265 2.18748813 33.1232653 2.18748813 33.1232653 8.51676029 30.8408163 8.51676029 30.8408163 2.18748813 28.9795918 2.18748813 28.9795918 0.24368182 34.9963265 0.24368182"></polygon>
                            <path d="M40.1608163,5.42716531 L39.3061225,2.69663789 C39.2906122,2.64257603 39.1967347,2.27261539 39.0253061,1.58594906 C38.8848979,2.14109176 38.7873469,2.51145585 38.7326531,2.69663789 L37.8897959,5.42716531 L40.1608163,5.42716531 Z M43.3330612,8.51676029 L41.0620408,8.51676029 L40.6408163,7.03570741 L37.3979592,7.03570741 L36.9648979,8.51676029 L34.6938775,8.51676029 L37.5853061,0.24368182 L40.4416326,0.24368182 L43.3330612,8.51676029 Z" id="Fill-521"></path>
                            <polygon id="Fill-522" points="49.197551 8.51676029 44.0816326 8.51676029 44.0816326 0.24368182 46.3644898 0.24368182 46.3644898 6.572954 49.197551 6.572954"></polygon>
                            <polygon id="Fill-523" points="50.6122449 8.51676029 52.9179592 8.51676029 52.9179592 0.24368182 50.6122449 0.24368182"></polygon>
                            <polygon id="Fill-524" points="61.7555103 0.24368182 57.5416326 6.71173966 61.2755103 6.71173966 61.2755103 8.51676029 53.877551 8.51676029 58.1036737 2.0370025 54.7085714 2.0370025 54.7085714 0.24368182"></polygon>
                            <path d="M67.099592,5.42716531 L66.2448977,2.69663789 C66.229388,2.64257603 66.1359183,2.27261539 65.9640817,1.58594906 C65.8236737,2.14109176 65.7261223,2.51145585 65.6714286,2.69663789 L64.8289794,5.42716531 L67.099592,5.42716531 Z M70.2718366,8.51676029 L68.0008166,8.51676029 L67.579592,7.03570741 L64.3367349,7.03570741 L63.9036737,8.51676029 L61.6326531,8.51676029 L64.5240817,0.24368182 L67.380408,0.24368182 L70.2718366,8.51676029 Z" id="Fill-525"></path>
                            <path d="M77.0273469,8.4009711 C76.3016326,8.74793526 75.579592,8.92182081 74.8616326,8.92182081 C73.6285714,8.92182081 72.6122451,8.5107086 71.8122451,7.68929107 C71.0122451,6.86787355 70.6122451,5.83222582 70.6122451,4.58275132 C70.6122451,3.33287337 71.0122451,2.29762909 71.8122451,1.47580811 C72.6122451,0.654390585 73.6285714,0.24368182 74.8616326,0.24368182 C75.579592,0.24368182 76.3016326,0.417163911 77.0273469,0.764128094 L77.0273469,3.22878412 C76.4261223,2.56551771 75.7824491,2.2338845 75.0959183,2.2338845 C74.44,2.2338845 73.909388,2.45779743 73.5036737,2.9048164 C73.0979594,3.35223882 72.8951023,3.9271504 72.8951023,4.62874424 C72.8951023,5.27667968 73.0979594,5.82254312 73.5036737,6.26593107 C73.909388,6.70972244 74.44,6.93161813 75.0959183,6.93161813 C75.7824491,6.93161813 76.4261223,6.59998495 77.0273469,5.93631505 L77.0273469,8.4009711 Z" id="Fill-526"></path>
                            <path d="M82.1061223,5.6006474 C82.1061223,6.49549225 81.9840817,7.1551276 81.7412246,7.5791501 C81.2942857,8.35054028 80.5808166,8.73623535 79.6008166,8.73623535 C78.5473469,8.73623535 77.7277549,8.29688182 77.1428571,7.41736799 L78.5355103,6.16789349 C78.6061223,6.67663981 78.8440817,6.93121471 79.249796,6.93121471 C79.5073469,6.93121471 79.6751023,6.75047056 79.7530611,6.38777196 C79.8,6.14086255 79.8232651,5.60871633 79.8232651,4.79092983 L79.8232651,0.24368182 L82.1061223,0.24368182 L82.1061223,5.6006474 Z" id="Fill-527"></path>
                            <path d="M88.3240817,5.42716531 L87.469388,2.69663789 C87.4538777,2.64257603 87.360408,2.27261539 87.1885714,1.58594906 C87.0481634,2.14109176 86.950612,2.51145585 86.8959183,2.69663789 L86.0534691,5.42716531 L88.3240817,5.42716531 Z M91.4963263,8.51676029 L89.2253063,8.51676029 L88.8040817,7.03570741 L85.5612246,7.03570741 L85.1281634,8.51676029 L82.8571429,8.51676029 L85.7485714,0.24368182 L88.6048977,0.24368182 L91.4963263,8.51676029 Z" id="Fill-528"></path>
                            <polygon id="Fill-529" points="10.7146939 27.8051446 0.408163265 27.8051446 0.408163265 11.1367433 5.00693878 11.1367433 5.00693878 23.8884839 10.7146939 23.8884839"></polygon>
                            <polygon id="Fill-530" points="23.3914286 27.8051446 13.0612245 27.8051446 13.0612245 11.1367433 23.3914286 11.1367433 23.3914286 14.796812 17.542449 14.796812 17.542449 17.6875077 23.0612245 17.6875077 23.0612245 21.2543803 17.542449 21.2543803 17.542449 24.0752797 23.3914286 24.0752797"></polygon>
                            <path d="M37.3506122,22.3662794 C37.3506122,24.1228864 36.7644898,25.5405982 35.5934694,26.6206251 C34.4220408,27.7010554 32.8534694,28.2412706 30.8881633,28.2412706 C28.6395918,28.2412706 26.6428571,27.4250979 24.8979592,25.7935593 L26.9730612,22.4130792 C28.3253061,23.936494 29.6620408,24.697798 30.982449,24.697798 C31.6114286,24.697798 32.1183674,24.5344021 32.5040817,24.2080137 C32.8889796,23.8816253 33.0816326,23.4701096 33.0816326,22.9726598 C33.0816326,22.3509484 32.8457143,21.8768985 32.3738775,21.5505101 C32.0122449,21.2862525 31.3044898,21.0223983 30.2514286,20.7577373 C28.6791837,20.3538871 27.5469388,19.810041 26.8551021,19.1257953 C26.1004082,18.4112912 25.7232653,17.4163915 25.7232653,16.1419034 C25.7232653,14.5720922 26.257551,13.278642 27.3269388,12.2603424 C28.3959183,11.2428498 29.8032653,10.7332966 31.5485714,10.7332966 C33.4355102,10.7332966 35.1016326,11.2311499 36.5485714,12.2252426 L35.1097959,15.4891265 C34.0563265,14.6031575 32.9791837,14.1601731 31.8787755,14.1601731 C31.3281633,14.1601731 30.88,14.2925036 30.5342857,14.5567612 C30.1885714,14.8210188 30.0155102,15.1550727 30.0155102,15.5589229 C30.0155102,16.0874381 30.2751021,16.4916917 30.7938775,16.7712803 C31.0767347,16.9270107 31.7138775,17.136803 32.7040817,17.4006572 C34.3232653,17.8202417 35.4714286,18.3644913 36.1477551,19.0325991 C36.9493878,19.7943066 37.3506122,20.9058023 37.3506122,22.3662794" id="Fill-531"></path>
                            <polygon id="Fill-532" points="54.24 11.1367433 45.7489796 24.1684759 53.2730612 24.1684759 53.2730612 27.8051446 38.3673469 27.8051446 46.8812245 14.7504156 40.0416326 14.7504156 40.0416326 11.1367433"></polygon>
                            <path d="M72.4040817,27.8051446 L67.9934691,27.8051446 L61.6257143,19.2028536 C61.3428571,18.8147379 60.8314286,17.8432382 60.0926531,16.288758 C60.2653063,17.6564424 60.3518366,18.7522037 60.3518366,19.5756384 L60.3518366,27.8051446 L55.9183674,27.8051446 L55.9183674,11.1367433 L60.3518366,11.1367433 L66.72,19.7156344 C66.9873469,20.0734917 67.4983674,21.0526569 68.2530611,22.65313 C68.08,21.2854456 67.9934691,20.1900878 67.9934691,19.3658461 L67.9934691,11.1367433 L72.4040817,11.1367433 L72.4040817,27.8051446 Z" id="Fill-533"></path>
                            <path d="M84.8918366,21.5807686 L83.169796,16.0789657 C83.1387754,15.9704385 82.949796,15.2244655 82.6040817,13.8410467 C82.3208166,14.9598045 82.1244897,15.7057774 82.0142857,16.0789657 L80.3163263,21.5807686 L84.8918366,21.5807686 Z M91.2832651,27.8051446 L86.7077549,27.8051446 L85.8587754,24.8212527 L79.3257143,24.8212527 L78.4530611,27.8051446 L73.8775509,27.8051446 L79.7032651,11.1367433 L85.4575509,11.1367433 L91.2832651,27.8051446 Z" id="Fill-534"></path>
                        </g>
                    </g>
                </g>
            </g>
        </g>
    </g>
</svg>