<?xml version="1.0" encoding="UTF-8" standalone="no"?>
<svg width="129px" height="40px" viewBox="0 0 129 40" version="1.1" xmlns="http://www.w3.org/2000/svg" xmlns:xlink="http://www.w3.org/1999/xlink">
    <!-- Generator: Sketch 41.2 (35397) - http://www.bohemiancoding.com/sketch -->
    <title>rewitalizacja</title>
    <desc>Created with Sketch.</desc>
    <defs></defs>
    <g id="Page-1" stroke="none" stroke-width="1" fill="none" fill-rule="evenodd">
        <g id="rewitalizacja" fill="#1F8994">
            <g id="test">
                <g id="Artboard">
                    <g id="Group-8">
                        <path d="M5.572,4.39697588 C5.572,3.80030426 5.41885714,3.3818961 5.11314286,3.14345454 C4.80742857,2.90444527 4.31542857,2.78522449 3.63828571,2.78522449 L2.99942857,2.78522449 L2.99942857,5.84579221 L3.58914286,5.84579221 C4.91085714,5.84579221 5.572,5.36323191 5.572,4.39697588 L5.572,4.39697588 Z M9.292,11.9845269 L5.68685714,11.9845269 L2.99942857,7.42518367 L2.99942857,11.9845269 L0,11.9845269 L0,0.34290167 L3.54,0.34290167 C4.54514286,0.34290167 5.26628571,0.375261595 5.70285714,0.440549165 C6.39142857,0.548983302 6.95942857,0.777205937 7.40742857,1.12408163 C8.28171432,1.79739518 8.71885712,2.74718738 8.71885712,3.97345826 C8.71885712,5.81910946 7.84457143,6.92615955 6.09657143,7.29517626 L9.292,11.9845269 Z" id="Fill-516"></path>
                        <polygon id="Fill-517" points="18.0354286 11.9845269 10.8571429 11.9845269 10.8571429 0.34290167 18.0354286 0.34290167 18.0354286 2.89933581 13.9714286 2.89933581 13.9714286 4.918141 17.8062857 4.918141 17.8062857 7.40928757 13.9714286 7.40928757 13.9714286 9.37926904 18.0354286 9.37926904"></polygon>
                        <path d="M34.4937143,0.34290167 L31.1834286,11.9845269 L28.2171429,11.9845269 L26.7748571,7.01812987 C26.7091429,6.79047495 26.5777143,6.26930983 26.3811429,5.45520222 C26.2937143,5.82421892 26.1628571,6.34538405 25.988,7.01812987 L24.5622857,11.9845269 L21.596,11.9845269 L18.2857143,0.34290167 L21.5142857,0.34290167 L22.8577143,5.91107978 C22.9994286,6.49753246 23.12,7.07830798 23.2182857,7.6534063 C23.3057143,7.18674211 23.4422857,6.60596661 23.628,5.91107978 L25.1028571,0.34290167 L27.676,0.34290167 L29.1508571,5.87871985 C29.304,6.44303154 29.4188571,6.95341002 29.4948571,7.40928757 L29.528,7.58811874 C29.6154286,7.15438219 29.7354286,6.58439332 29.8885714,5.87871985 L31.2651429,0.34290167 L34.4937143,0.34290167 Z" id="Fill-518"></path>
                        <polygon id="Fill-519" points="36 11.9845269 39.2285714 11.9845269 39.2285714 0.34290167 36 0.34290167"></polygon>
                        <polygon id="Fill-520" points="48.9948571 3.07816698 46.3725714 3.07816698 46.3725714 11.9845269 43.1771429 11.9845269 43.1771429 3.07816698 40.5714286 3.07816698 40.5714286 0.34290167 48.9948571 0.34290167"></polygon>
                        <path d="M56.2251429,7.63694249 L55.0285714,3.79462709 C55.0068571,3.71855287 54.8754286,3.19795547 54.6354286,2.23169944 C54.4388571,3.01287941 54.3022857,3.53404453 54.2257143,3.79462709 L53.0457143,7.63694249 L56.2251429,7.63694249 Z M60.6662857,11.9845269 L57.4868571,11.9845269 L56.8971429,9.90043416 L52.3571429,9.90043416 L51.7508571,11.9845269 L48.5714286,11.9845269 L52.6194286,0.34290167 L56.6182857,0.34290167 L60.6662857,11.9845269 Z" id="Fill-521"></path>
                        <polygon id="Fill-522" points="68.8765714 11.9845269 61.7142857 11.9845269 61.7142857 0.34290167 64.9102857 0.34290167 64.9102857 9.2492616 68.8765714 9.2492616"></polygon>
                        <polygon id="Fill-523" points="70.8571429 11.9845269 74.0851429 11.9845269 74.0851429 0.34290167 70.8571429 0.34290167"></polygon>
                        <polygon id="Fill-524" points="86.4577144 0.34290167 80.5582856 9.44455656 85.7857144 9.44455656 85.7857144 11.9845269 75.4285714 11.9845269 81.3451432 2.86640816 76.592 2.86640816 76.592 0.34290167"></polygon>
                        <path d="M93.9394288,7.63694249 L92.7428568,3.79462709 C92.7211432,3.71855287 92.5902856,3.19795547 92.3497144,2.23169944 C92.1531432,3.01287941 92.0165712,3.53404453 91.94,3.79462709 L90.7605712,7.63694249 L93.9394288,7.63694249 Z M98.3805712,11.9845269 L95.2011432,11.9845269 L94.6114288,9.90043416 L90.0714288,9.90043416 L89.4651432,11.9845269 L86.2857144,11.9845269 L90.3337144,0.34290167 L94.3325712,0.34290167 L98.3805712,11.9845269 Z" id="Fill-525"></path>
                        <path d="M107.838286,11.8215918 C106.822286,12.3098293 105.811429,12.5545158 104.806286,12.5545158 C103.08,12.5545158 101.657143,11.9760111 100.537143,10.8201373 C99.4171432,9.66426344 98.8571432,8.20693136 98.8571432,6.44870872 C98.8571432,4.68991837 99.4171432,3.23315399 100.537143,2.07671243 C101.657143,0.920838592 103.08,0.34290167 104.806286,0.34290167 C105.811429,0.34290167 106.822286,0.587020408 107.838286,1.07525789 L107.838286,4.54344713 C106.996571,3.61011874 106.095429,3.14345454 105.134286,3.14345454 C104.216,3.14345454 103.473143,3.45853803 102.905143,4.08756958 C102.337143,4.71716883 102.053143,5.52616698 102.053143,6.51342857 C102.053143,7.42518367 102.337143,8.19330616 102.905143,8.81722824 C103.473143,9.441718 104.216,9.75396288 105.134286,9.75396288 C106.095429,9.75396288 106.996571,9.28729872 107.838286,8.35340256 L107.838286,11.8215918 Z" id="Fill-526"></path>
                        <path d="M114.948571,7.88106122 C114.948571,9.14025976 114.777714,10.0684786 114.437714,10.6651502 C113.812,11.7506271 112.813143,12.2933655 111.441143,12.2933655 C109.966286,12.2933655 108.818857,11.6751206 108,10.4374954 L109.949714,8.67927272 C110.048571,9.39516512 110.381714,9.7533952 110.949714,9.7533952 C111.310286,9.7533952 111.545143,9.49905752 111.654286,8.98867904 C111.72,8.6412356 111.752571,7.89241558 111.752571,6.74165121 L111.752571,0.34290167 L114.948571,0.34290167 L114.948571,7.88106122 Z" id="Fill-527"></path>
                        <path d="M123.653714,7.63694249 L122.457143,3.79462709 C122.435429,3.71855287 122.304571,3.19795547 122.064,2.23169944 C121.867429,3.01287941 121.730857,3.53404453 121.654286,3.79462709 L120.474857,7.63694249 L123.653714,7.63694249 Z M128.094857,11.9845269 L124.915429,11.9845269 L124.325714,9.90043416 L119.785714,9.90043416 L119.179429,11.9845269 L116,11.9845269 L120.048,0.34290167 L124.046857,0.34290167 L128.094857,11.9845269 Z" id="Fill-528"></path>
                        <polygon id="Fill-529" points="15.0005714 39.1265566 0.571428571 39.1265566 0.571428571 15.6712876 7.00971429 15.6712876 7.00971429 33.6151502 15.0005714 33.6151502"></polygon>
                        <polygon id="Fill-530" points="32.748 39.1265566 18.2857143 39.1265566 18.2857143 15.6712876 32.748 15.6712876 32.748 20.8216252 24.5594286 20.8216252 24.5594286 24.8893246 32.2857143 24.8893246 32.2857143 29.9085195 24.5594286 29.9085195 24.5594286 33.8780037 32.748 33.8780037"></polygon>
                        <path d="M52.2908571,31.4731502 C52.2908571,33.9449944 51.4702857,35.9399554 49.8308571,37.4597366 C48.1908571,38.9800854 45.9948571,39.7402598 43.2434286,39.7402598 C40.0954286,39.7402598 37.3,38.5917662 34.8571429,36.2959146 L37.7622857,31.5390056 C39.6554286,33.6827087 41.5268571,34.7539926 43.3754286,34.7539926 C44.256,34.7539926 44.9657143,34.5240668 45.5057143,34.064783 C46.0445714,33.605499 46.3142857,33.0264267 46.3142857,32.3264304 C46.3142857,31.451577 45.984,30.7845083 45.3234286,30.3252245 C44.8171429,29.9533692 43.8262857,29.5820816 42.352,29.2096586 C40.1508571,28.6413729 38.5657143,27.876089 37.5971429,26.9132394 C36.5405714,25.9078108 36.0125714,24.5078182 36.0125714,22.714397 C36.0125714,20.5054063 36.7605714,18.6853024 38.2577143,17.2523822 C39.7542857,15.8205974 41.7245714,15.1035696 44.168,15.1035696 C46.8097143,15.1035696 49.1422857,15.8041336 51.168,17.2029907 L49.1537143,21.7958293 C47.6788571,20.5491206 46.1708571,19.9257662 44.6302857,19.9257662 C43.8594286,19.9257662 43.232,20.1119778 42.748,20.483833 C42.264,20.8556883 42.0217143,21.3257588 42.0217143,21.8940446 C42.0217143,22.6377551 42.3851429,23.2066086 43.1114286,23.6000371 C43.5074286,23.8191762 44.3994286,24.1143896 45.7857143,24.4856772 C48.0525714,25.0761039 49.66,25.8419554 50.6068571,26.7820965 C51.7291429,27.8539481 52.2908571,29.4180111 52.2908571,31.4731502" id="Fill-531"></path>
                        <polygon id="Fill-532" points="75.936 15.6712876 64.0485714 34.0091466 74.5822857 34.0091466 74.5822857 39.1265566 53.7142857 39.1265566 65.6337143 20.7563377 56.0582857 20.7563377 56.0582857 15.6712876"></polygon>
                        <path d="M101.365714,39.1265566 L95.1908568,39.1265566 L86.276,27.0216734 C85.88,26.4755287 85.164,25.1084638 84.1297144,22.9210464 C84.3714288,24.8456104 84.4925712,26.3875325 84.4925712,27.5462449 L84.4925712,39.1265566 L78.2857143,39.1265566 L78.2857143,15.6712876 L84.4925712,15.6712876 L93.408,27.743243 C93.7822856,28.2468089 94.4977144,29.6246605 95.5542856,31.8767978 C95.312,29.9522338 95.1908568,28.4108794 95.1908568,27.2510315 L95.1908568,15.6712876 L101.365714,15.6712876 L101.365714,39.1265566 Z" id="Fill-533"></path>
                        <path d="M118.848571,30.3678034 L116.437714,22.625833 C116.394286,22.4731169 116.129714,21.4234063 115.645714,19.4767013 C115.249143,21.0509833 114.974286,22.1006938 114.82,22.625833 L112.442857,30.3678034 L118.848571,30.3678034 Z M127.796571,39.1265566 L121.390857,39.1265566 L120.202286,34.9277143 L111.056,34.9277143 L109.834286,39.1265566 L103.428571,39.1265566 L111.584571,15.6712876 L119.640571,15.6712876 L127.796571,39.1265566 Z" id="Fill-534"></path>
                    </g>
                </g>
            </g>
        </g>
    </g>
</svg>