<?xml version="1.0" encoding="UTF-8" standalone="no"?>
<svg width="225px" height="71px" viewBox="0 0 225 71" version="1.1" xmlns="http://www.w3.org/2000/svg" xmlns:xlink="http://www.w3.org/1999/xlink">
    <!-- Generator: Sketch 41.2 (35397) - http://www.bohemiancoding.com/sketch -->
    <title>rewitalizacja</title>
    <desc>Created with Sketch.</desc>
    <defs></defs>
    <g id="Page-1" stroke="none" stroke-width="1" fill="none" fill-rule="evenodd">
        <g id="rewitalizacja" fill="#2F9091">
            <path d="M10.3483,8.5731 C10.3483,7.5221 10.0803,6.7851 9.5453,6.3651 C9.0103,5.9441 8.1493,5.7341 6.9643,5.7341 L5.8463,5.7341 L5.8463,11.1251 L6.8783,11.1251 C9.1913,11.1251 10.3483,10.2751 10.3483,8.5731 L10.3483,8.5731 Z M16.8583,21.9381 L10.5493,21.9381 L5.8463,13.9071 L5.8463,21.9381 L0.5973,21.9381 L0.5973,1.4321 L6.7923,1.4321 C8.5513,1.4321 9.8133,1.4891 10.5773,1.6041 C11.7823,1.7951 12.7763,2.1971 13.5603,2.8081 C15.0903,3.9941 15.8553,5.6671 15.8553,7.8271 C15.8553,11.0781 14.3253,13.0281 11.2663,13.6781 L16.8583,21.9381 Z" id="Fill-516"></path>
            <polygon id="Fill-517" points="31.5422 21.9379 18.9802 21.9379 18.9802 1.4319 31.5422 1.4319 31.5422 5.9349 24.4302 5.9349 24.4302 9.4909 31.1412 9.4909 31.1412 13.8789 24.4302 13.8789 24.4302 17.3489 31.5422 17.3489"></polygon>
            <path d="M61.1398,1.432 L55.3468,21.938 L50.1558,21.938 L47.6318,13.19 C47.5168,12.789 47.2868,11.871 46.9428,10.437 C46.7898,11.087 46.5608,12.005 46.2548,13.19 L43.7598,21.938 L38.5688,21.938 L32.7758,1.432 L38.4258,1.432 L40.7768,11.24 C41.0248,12.273 41.2358,13.296 41.4078,14.309 C41.5608,13.487 41.7998,12.464 42.1248,11.24 L44.7058,1.432 L49.2088,1.432 L51.7898,11.183 C52.0578,12.177 52.2588,13.076 52.3918,13.879 L52.4498,14.194 C52.6028,13.43 52.8128,12.426 53.0808,11.183 L55.4898,1.432 L61.1398,1.432 Z" id="Fill-518"></path>
            <polygon id="Fill-519" points="63.204 21.938 68.854 21.938 68.854 1.432 63.204 1.432"></polygon>
            <polygon id="Fill-520" points="86.4919 6.2499 81.9029 6.2499 81.9029 21.9379 76.3109 21.9379 76.3109 6.2499 71.7509 6.2499 71.7509 1.4319 86.4919 1.4319"></polygon>
            <path d="M98.9963,14.2802 L96.9023,7.5122 C96.8643,7.3782 96.6343,6.4612 96.2143,4.7592 C95.8703,6.1352 95.6313,7.0532 95.4973,7.5122 L93.4323,14.2802 L98.9963,14.2802 Z M106.7683,21.9382 L101.2043,21.9382 L100.1723,18.2672 L92.2273,18.2672 L91.1663,21.9382 L85.6023,21.9382 L92.6863,1.4322 L99.6843,1.4322 L106.7683,21.9382 Z" id="Fill-521"></path>
            <polygon id="Fill-522" points="121.2521 21.9379 108.7181 21.9379 108.7181 1.4319 114.3111 1.4319 114.3111 17.1199 121.2521 17.1199"></polygon>
            <polygon id="Fill-523" points="124.12 21.938 129.769 21.938 129.769 1.432 124.12 1.432"></polygon>
            <polygon id="Fill-524" points="151.4504 1.432 141.1264 17.464 150.2744 17.464 150.2744 21.938 132.1494 21.938 142.5034 5.877 134.1854 5.877 134.1854 1.432"></polygon>
            <path d="M164.6721,14.2802 L162.5781,7.5122 C162.5401,7.3782 162.3111,6.4612 161.8901,4.7592 C161.5461,6.1352 161.3071,7.0532 161.1731,7.5122 L159.1091,14.2802 L164.6721,14.2802 Z M172.4441,21.9382 L166.8801,21.9382 L165.8481,18.2672 L157.9031,18.2672 L156.8421,21.9382 L151.2781,21.9382 L158.3621,1.4322 L165.3601,1.4322 L172.4441,21.9382 Z" id="Fill-525"></path>
            <path d="M188.7053,21.1635 C186.9273,22.0235 185.1583,22.4545 183.3993,22.4545 C180.3783,22.4545 177.8883,21.4355 175.9283,19.3995 C173.9683,17.3635 172.9883,14.7965 172.9883,11.6995 C172.9883,8.6015 173.9683,6.0355 175.9283,3.9985 C177.8883,1.9625 180.3783,0.9445 183.3993,0.9445 C185.1583,0.9445 186.9273,1.3745 188.7053,2.2345 L188.7053,8.3435 C187.2323,6.6995 185.6553,5.8775 183.9733,5.8775 C182.3663,5.8775 181.0663,6.4325 180.0723,7.5405 C179.0783,8.6495 178.5813,10.0745 178.5813,11.8135 C178.5813,13.4195 179.0783,14.7725 180.0723,15.8715 C181.0663,16.9715 182.3663,17.5215 183.9733,17.5215 C185.6553,17.5215 187.2323,16.6995 188.7053,15.0545 L188.7053,21.1635 Z" id="Fill-526"></path>
            <path d="M201.4963,14.7103 C201.4963,16.9283 201.1973,18.5633 200.6023,19.6143 C199.5073,21.5263 197.7593,22.4823 195.3583,22.4823 C192.7773,22.4823 190.7693,21.3933 189.3363,19.2133 L192.7483,16.1163 C192.9213,17.3773 193.5043,18.0083 194.4983,18.0083 C195.1293,18.0083 195.5403,17.5603 195.7313,16.6613 C195.8463,16.0493 195.9033,14.7303 195.9033,12.7033 L195.9033,1.4323 L201.4963,1.4323 L201.4963,14.7103 Z" id="Fill-527"></path>
            <path d="M216.5812,14.2802 L214.4872,7.5122 C214.4492,7.3782 214.2202,6.4612 213.7992,4.7592 C213.4552,6.1352 213.2162,7.0532 213.0822,7.5122 L211.0182,14.2802 L216.5812,14.2802 Z M224.3532,21.9382 L218.7892,21.9382 L217.7572,18.2672 L209.8122,18.2672 L208.7512,21.9382 L203.1872,21.9382 L210.2712,1.4322 L217.2692,1.4322 L224.3532,21.9382 Z" id="Fill-528"></path>
            <polygon id="Fill-529" points="26.3918 69.7614 1.1408 69.7614 1.1408 28.4464 12.4078 28.4464 12.4078 60.0534 26.3918 60.0534"></polygon>
            <polygon id="Fill-530" points="57.1903 69.7614 31.8813 69.7614 31.8813 28.4464 57.1903 28.4464 57.1903 37.5184 42.8603 37.5184 42.8603 44.6834 56.3813 44.6834 56.3813 53.5244 42.8603 53.5244 42.8603 60.5164 57.1903 60.5164"></polygon>
            <path d="M91.9173,56.2977 C91.9173,60.6517 90.4813,64.1657 87.6123,66.8427 C84.7423,69.5207 80.8993,70.8597 76.0843,70.8597 C70.5753,70.8597 65.6833,68.8367 61.4083,64.7927 L66.4923,56.4137 C69.8053,60.1897 73.0803,62.0767 76.3153,62.0767 C77.8563,62.0767 79.0983,61.6717 80.0433,60.8627 C80.9863,60.0537 81.4583,59.0337 81.4583,57.8007 C81.4583,56.2597 80.8803,55.0847 79.7243,54.2757 C78.8383,53.6207 77.1043,52.9667 74.5243,52.3107 C70.6723,51.3097 67.8983,49.9617 66.2033,48.2657 C64.3543,46.4947 63.4303,44.0287 63.4303,40.8697 C63.4303,36.9787 64.7393,33.7727 67.3593,31.2487 C69.9783,28.7267 73.4263,27.4637 77.7023,27.4637 C82.3253,27.4637 86.4073,28.6977 89.9523,31.1617 L86.4273,39.2517 C83.8463,37.0557 81.2073,35.9577 78.5113,35.9577 C77.1623,35.9577 76.0643,36.2857 75.2173,36.9407 C74.3703,37.5957 73.9463,38.4237 73.9463,39.4247 C73.9463,40.7347 74.5823,41.7367 75.8533,42.4297 C76.5463,42.8157 78.1073,43.3357 80.5333,43.9897 C84.5003,45.0297 87.3133,46.3787 88.9703,48.0347 C90.9343,49.9227 91.9173,52.6777 91.9173,56.2977" id="Fill-531"></path>
            <polygon id="Fill-532" points="132.8272 28.4462 112.0242 60.7472 130.4582 60.7472 130.4582 69.7612 93.9392 69.7612 114.7982 37.4032 98.0412 37.4032 98.0412 28.4462"></polygon>
            <path d="M177.7241,69.7614 L166.9181,69.7614 L151.3171,48.4394 C150.6241,47.4774 149.3711,45.0694 147.5611,41.2164 C147.9841,44.6064 148.1961,47.3224 148.1961,49.3634 L148.1961,69.7614 L137.3341,69.7614 L137.3341,28.4464 L148.1961,28.4464 L163.7981,49.7104 C164.4531,50.5974 165.7051,53.0244 167.5541,56.9914 C167.1301,53.6014 166.9181,50.8864 166.9181,48.8434 L166.9181,28.4464 L177.7241,28.4464 L177.7241,69.7614 Z" id="Fill-533"></path>
            <path d="M208.6947,54.3334 L204.4757,40.6964 C204.3997,40.4274 203.9367,38.5784 203.0897,35.1494 C202.3957,37.9224 201.9147,39.7714 201.6447,40.6964 L197.4847,54.3334 L208.6947,54.3334 Z M224.3537,69.7614 L213.1437,69.7614 L211.0637,62.3654 L195.0577,62.3654 L192.9197,69.7614 L181.7097,69.7614 L195.9827,28.4464 L210.0807,28.4464 L224.3537,69.7614 Z" id="Fill-534"></path>
        </g>
    </g>
</svg>