<?xml version="1.0" encoding="UTF-8" standalone="no"?>
<svg width="67px" height="72px" viewBox="0 0 67 72" version="1.1" xmlns="http://www.w3.org/2000/svg" xmlns:xlink="http://www.w3.org/1999/xlink">
    <!-- Generator: Sketch 41.2 (35397) - http://www.bohemiancoding.com/sketch -->
    <title>social</title>
    <desc>Created with Sketch.</desc>
    <defs></defs>
    <g id="Page-1" stroke="none" stroke-width="1" fill="none" fill-rule="evenodd">
        <g id="social" fill="#EDA038">
            <path d="M17.0055,27.8181 C13.7735,27.8181 10.7915,26.3461 8.8315,23.8341 C9.4595,23.0181 9.8335,21.9971 9.8335,20.8911 L9.8335,17.4451 C9.8335,16.4241 10.0495,15.4181 10.4665,14.4961 L17.3605,14.4961 C17.9415,14.4961 18.4605,14.1351 18.6615,13.5901 C19.0085,12.6531 19.2705,11.6851 19.4435,10.7001 C22.2195,11.7101 24.1765,14.4001 24.1765,17.4451 L24.1765,20.8911 C24.1765,21.9971 24.5505,23.0181 25.1785,23.8341 C23.2195,26.3471 20.2365,27.8181 17.0055,27.8181 L17.0055,27.8181 Z M17.0925,34.3761 L16.8865,34.3761 C15.3185,34.3761 13.7805,32.4731 13.7805,30.5341 C13.7805,30.4141 13.7645,30.2971 13.7355,30.1831 C14.7885,30.4521 15.8855,30.5911 17.0055,30.5911 C18.0655,30.5911 19.1055,30.4661 20.1075,30.2261 C20.0125,32.2421 18.4865,34.3761 17.0925,34.3761 L17.0925,34.3761 Z M8.4305,12.4061 C7.5335,13.9281 7.0605,15.6711 7.0605,17.4451 L7.0605,20.8911 C7.0605,21.5481 6.7515,22.1341 6.2705,22.5111 C6.2295,22.5381 6.1905,22.5671 6.1515,22.5971 C5.8235,22.8201 5.4265,22.9501 5.0015,22.9501 C3.8655,22.9501 2.9425,22.0261 2.9425,20.8911 L2.9425,17.4451 C2.9425,9.7481 8.9705,3.5721 16.6665,3.3861 C16.9535,3.3791 17.2495,3.3821 17.5695,3.3951 C25.1395,3.6941 31.0685,9.8661 31.0685,17.4451 L31.0685,20.8911 C31.0685,22.0261 30.1445,22.9501 29.0095,22.9501 C28.5825,22.9501 28.1865,22.8201 27.8575,22.5971 C27.8205,22.5671 27.7815,22.5381 27.7395,22.5111 C27.2585,22.1341 26.9505,21.5481 26.9505,20.8911 L26.9505,17.4451 C26.9505,12.5511 23.3045,8.3221 18.4685,7.6071 C18.0885,7.5511 17.7025,7.6561 17.4025,7.8951 C17.1015,8.1351 16.9145,8.4881 16.8845,8.8711 C16.8085,9.8401 16.6325,10.7951 16.3605,11.7231 L9.6255,11.7231 C9.1345,11.7231 8.6785,11.9821 8.4305,12.4061 L8.4305,12.4061 Z M24.7515,31.7791 C25.1555,31.1291 24.9565,30.2741 24.3055,29.8691 C23.8835,29.6071 23.4455,29.3691 22.9965,29.1581 C24.7095,28.2821 26.2255,27.0271 27.4295,25.4581 C27.9245,25.6301 28.4565,25.7231 29.0095,25.7231 C31.6735,25.7231 33.8415,23.5551 33.8415,20.8911 L33.8415,17.4451 C33.8415,13.0651 32.1685,8.9171 29.1305,5.7651 C26.1005,2.6221 22.0345,0.7961 17.6785,0.6241 L17.6765,0.6241 C17.2985,0.6091 16.9465,0.6051 16.5995,0.6151 C12.2635,0.7191 8.1735,2.4741 5.0825,5.5561 C1.9135,8.7151 0.1685,12.9381 0.1685,17.4451 L0.1685,20.8911 C0.1685,23.5551 2.3365,25.7231 5.0015,25.7231 C5.5545,25.7231 6.0855,25.6301 6.5815,25.4581 C7.9075,27.1871 9.6115,28.5331 11.5415,29.4131 C7.2645,31.6631 4.6175,36.0191 4.6175,40.8411 L4.6175,52.1911 C4.6175,52.6601 4.8555,53.0981 5.2495,53.3531 L17.8285,61.5161 C18.0605,61.6671 18.3225,61.7391 18.5815,61.7391 C19.0355,61.7391 19.4805,61.5161 19.7455,61.1071 C20.1625,60.4651 19.9795,59.6061 19.3375,59.1891 L7.3905,51.4381 L7.3905,40.8411 C7.3905,37.6331 8.8845,34.6871 11.3875,32.7871 C12.2455,35.2771 14.4485,37.1491 16.8865,37.1491 L17.0925,37.1491 C19.7395,37.1491 21.8525,34.7531 22.5965,32.0761 C22.6775,32.1251 22.7605,32.1751 22.8415,32.2251 C23.4925,32.6291 24.3465,32.4291 24.7515,31.7791 L24.7515,31.7791 Z M34.7105,68.9971 L25.7545,63.2951 L25.7545,58.9991 C25.7545,55.9501 27.2945,53.1671 29.7885,51.5261 C30.6555,53.5031 32.6975,54.7301 34.6355,54.7301 L34.8045,54.7301 C36.8965,54.7301 38.7465,53.3681 39.5455,51.4761 C42.0745,53.1071 43.6465,55.9131 43.6615,59.0061 L43.6815,63.3281 L34.7105,68.9971 Z M37.1685,49.7591 C36.9955,51.0701 35.8455,51.9571 34.8045,51.9571 L34.6355,51.9571 C33.5335,51.9571 32.3085,51.0251 32.1505,49.7351 C32.9695,49.9381 33.8255,50.0461 34.7075,50.0461 C35.5545,50.0461 36.3785,49.9461 37.1685,49.7591 L37.1685,49.7591 Z M26.8515,39.4171 C26.8515,38.5171 27.0045,37.6501 27.2845,36.8441 C29.5725,37.5761 32.1115,37.9611 34.7075,37.9611 C37.3045,37.9611 39.8435,37.5761 42.1315,36.8441 C42.4115,37.6501 42.5635,38.5171 42.5635,39.4171 C42.5635,43.7491 39.0395,47.2731 34.7075,47.2731 C30.3755,47.2731 26.8515,43.7491 26.8515,39.4171 L26.8515,39.4171 Z M34.7075,31.5611 C37.1215,31.5611 39.2835,32.6541 40.7255,34.3721 C38.8575,34.9081 36.8085,35.1871 34.7075,35.1871 C32.6075,35.1871 30.5575,34.9081 28.6895,34.3721 C30.1325,32.6541 32.2945,31.5611 34.7075,31.5611 L34.7075,31.5611 Z M40.0815,48.5851 C43.2225,46.7361 45.3365,43.3181 45.3365,39.4171 C45.3365,37.6611 44.9085,36.0031 44.1525,34.5421 C44.1245,34.4811 44.0935,34.4221 44.0595,34.3671 C42.2595,31.0471 38.7425,28.7881 34.7075,28.7881 C30.6725,28.7881 27.1545,31.0481 25.3555,34.3701 C25.3215,34.4231 25.2915,34.4811 25.2655,34.5401 C24.5065,36.0021 24.0785,37.6601 24.0785,39.4171 C24.0785,43.3181 26.1905,46.7351 29.3325,48.5841 C25.4445,50.5941 22.9815,54.5831 22.9815,58.9991 L22.9815,64.0561 C22.9815,64.5301 23.2235,64.9711 23.6235,65.2261 L33.9635,71.8081 C34.1905,71.9531 34.4485,72.0251 34.7075,72.0251 C34.9655,72.0251 35.2225,71.9541 35.4485,71.8111 L45.8125,65.2621 C46.2175,65.0081 46.4605,64.5621 46.4595,64.0841 L46.4345,58.9921 C46.4135,54.5661 43.9535,50.5901 40.0815,48.5851 L40.0815,48.5851 Z M61.5365,13.1101 C60.2105,13.1101 59.1325,12.0321 59.1325,10.7061 L59.1325,9.9351 C59.1325,9.4301 58.8575,8.9661 58.4165,8.7211 C57.9745,8.4771 57.4355,8.4921 57.0075,8.7601 C54.5685,10.2921 51.6585,11.1021 48.5935,11.1021 C47.3955,11.1021 46.2045,10.9751 45.0545,10.7261 C44.6445,10.6371 44.2175,10.7381 43.8905,11.0021 C43.5645,11.2651 43.3745,11.6621 43.3745,12.0811 L43.3745,12.9221 C43.3745,14.2471 42.2965,15.3251 40.9705,15.3251 C40.8795,15.3251 40.7905,15.3201 40.7015,15.3111 C40.6805,15.3081 40.6595,15.3051 40.6395,15.3031 C40.6085,15.2991 40.5775,15.2941 40.5475,15.2881 C40.5425,15.1701 40.5415,15.0511 40.5415,14.9331 C40.5415,13.0091 41.0235,11.1041 41.9375,9.4241 C41.9405,9.4181 41.9455,9.4111 41.9475,9.4061 C41.9595,9.3841 43.2125,7.2131 45.0225,5.7991 C45.0265,5.7951 45.0305,5.7921 45.0315,5.7911 C47.0685,4.2151 49.5105,3.3831 52.0915,3.3831 C53.8375,3.3831 55.5155,3.7631 57.0765,4.5111 C57.1035,4.5241 57.1445,4.5421 57.1955,4.5661 C58.7375,5.2501 59.9215,6.3591 60.6485,7.1761 C60.6565,7.1851 60.6645,7.1941 60.6725,7.2041 C61.9815,8.6551 62.8955,10.4041 63.3375,12.2911 C62.8835,12.8041 62.2275,13.1101 61.5365,13.1101 L61.5365,13.1101 Z M51.8905,24.1281 C47.7095,24.1281 44.0025,21.6381 42.3785,17.9041 C44.3035,17.3601 45.7765,15.7271 46.0865,13.7151 C46.9145,13.8211 47.7525,13.8741 48.5935,13.8741 C51.4145,13.8741 54.1305,13.2831 56.5635,12.1511 C57.1905,14.3051 59.1825,15.8831 61.5365,15.8831 C61.7085,15.8831 61.8785,15.8741 62.0475,15.8571 C61.0695,20.5681 56.8745,24.1281 51.8905,24.1281 L51.8905,24.1281 Z M51.8085,30.0521 L51.6015,30.0521 C49.9415,30.0521 48.5405,28.4431 48.5405,26.5391 C48.5405,26.5161 48.5395,26.4921 48.5385,26.4691 C49.6135,26.7521 50.7375,26.9011 51.8905,26.9011 C52.8765,26.9011 53.8375,26.7911 54.7625,26.5831 C54.6545,28.4581 53.3195,30.0521 51.8085,30.0521 L51.8085,30.0521 Z M66.1805,12.3491 C65.7075,9.7531 64.5225,7.3391 62.7505,5.3671 C62.7475,5.3631 62.7445,5.3601 62.7405,5.3551 C61.8335,4.3311 60.3305,2.9231 58.3215,2.0311 L58.2755,2.0111 C56.3365,1.0811 54.2555,0.6091 52.0915,0.6091 C48.8905,0.6091 45.8625,1.6431 43.3345,3.5981 C43.3325,3.6001 43.3215,3.6091 43.3175,3.6111 C41.1455,5.3081 39.7115,7.7321 39.5345,8.0411 C39.5265,8.0541 39.5185,8.0691 39.5115,8.0821 C38.3715,10.1721 37.7685,12.5401 37.7685,14.9331 C37.7685,15.4301 37.7945,15.9321 37.8455,16.4261 C37.8945,16.8891 38.1705,17.2961 38.5825,17.5121 C38.8425,17.6481 39.1155,17.7621 39.3955,17.8511 C40.5115,21.2671 42.9485,23.9981 46.0465,25.5341 C44.7185,26.2131 43.5265,27.1101 42.4935,28.2061 C41.9685,28.7641 41.9955,29.6421 42.5535,30.1661 C43.1125,30.6911 43.9895,30.6641 44.5135,30.1061 C45.0095,29.5791 45.5515,29.1111 46.1375,28.7041 C46.9775,31.0831 49.1405,32.8251 51.6015,32.8251 L51.8075,32.8251 C54.2725,32.8251 56.4345,30.9581 57.2235,28.4321 C60.1515,30.2661 62.0245,33.5371 62.0245,37.0351 L62.0245,51.4381 L49.4135,59.6201 C48.7715,60.0371 48.5885,60.8961 49.0055,61.5381 C49.2705,61.9471 49.7155,62.1701 50.1695,62.1701 C50.4285,62.1701 50.6895,62.0981 50.9235,61.9471 L64.1655,53.3531 C64.5605,53.0981 64.7975,52.6601 64.7975,52.1911 L64.7975,37.0351 C64.7975,32.1251 62.0565,27.7231 57.7245,25.5271 C61.8265,23.4801 64.7285,19.3471 65.0125,14.5341 C65.4035,14.1801 65.7445,13.7621 66.0155,13.2931 C66.1815,13.0081 66.2405,12.6741 66.1805,12.3491 L66.1805,12.3491 Z" id="Fill-515"></path>
        </g>
    </g>
</svg>