<?xml version="1.0" encoding="UTF-8" standalone="no"?>
<svg width="815px" height="480px" viewBox="0 0 815 480" version="1.1" xmlns="http://www.w3.org/2000/svg" xmlns:xlink="http://www.w3.org/1999/xlink">
    <!-- Generator: Sketch 41.2 (35397) - http://www.bohemiancoding.com/sketch -->
    <title>top</title>
    <desc>Created with Sketch.</desc>
    <defs>
        <rect id="path-1" x="0" y="0" width="815" height="480"></rect>
    </defs>
    <g id="Page-1" stroke="none" stroke-width="1" fill="none" fill-rule="evenodd">
        <g id="top">
            <mask id="mask-2" fill="white">
                <use xlink:href="#path-1"></use>
            </mask>
            <g id="Mask"></g>
            <g mask="url(#mask-2)" id="Page-1">
                <g transform="translate(0.000000, -3.000000)">
                    <g>
                        <g id="Group">
                            <polygon id="Fill-484" fill="#2F9091" points="281 485.760366 534.161792 485.760366 534.161792 0 281 0"></polygon>
                            <polygon id="Fill-485" fill="#EDA038" points="0 485.760366 111.179214 485.760366 111.179214 0 0 0"></polygon>
                            <polygon id="Fill-486" fill="#D5234C" points="137 485.760366 248.179214 485.760366 248.179214 0 137 0"></polygon>
                            <polygon id="Fill-487" fill="#6EB245" points="566 485.760366 677.179214 485.760366 677.179214 0 566 0"></polygon>
                            <polygon id="Fill-488" fill="#235C98" points="703 485.760366 814.179214 485.760366 814.179214 0 703 0"></polygon>
                            <path d="M378.196902,204.318219 L375.826809,204.318219 C375.59036,204.318219 375.368479,204.20952 375.22392,204.022378 L364.24529,189.823111 L364.24529,203.556203 C364.24529,203.976433 363.904625,204.318219 363.483275,204.318219 L361.763136,204.318219 C361.341786,204.318219 361,203.976433 361,203.556203 L361,185.762016 C361,185.341786 361.341786,185 361.763136,185 L364.02453,185 C364.259858,185 364.481739,185.108699 364.625178,185.2936 L375.713627,199.510796 L375.713627,185.762016 C375.713627,185.341786 376.055413,185 376.476763,185 L378.196902,185 C378.618252,185 378.958917,185.341786 378.958917,185.762016 L378.958917,203.556203 C378.958917,203.976433 378.618252,204.318219 378.196902,204.318219 Z" id="Fill-536" fill="#FFFFFF"></path>
                            <path d="M395.110156,188.256497 C392.944014,188.256497 391.309042,188.845938 390.112229,190.057319 C388.912054,191.272062 388.329336,192.931687 388.329336,195.133688 C388.329336,197.327845 388.912054,198.98635 390.11335,200.205575 C391.310162,201.420318 392.945134,202.01088 395.110156,202.01088 C397.267332,202.01088 398.897822,201.420318 400.095755,200.205575 C401.29593,198.987471 401.878648,197.327845 401.878648,195.133688 C401.878648,192.931687 401.29593,191.270941 400.095755,190.057319 C398.898943,188.845938 397.267332,188.256497 395.110156,188.256497 M395.110156,205.256171 C392.0027,205.256171 389.512702,204.33839 387.711879,202.528603 C385.912178,200.719936 385,198.232179 385,195.133688 C385,192.027354 385.912178,189.535114 387.711879,187.726447 C389.513823,185.91666 392.0027,185 395.110156,185 C398.208646,185 400.697524,185.91666 402.50619,187.725327 C404.314857,189.533994 405.232638,192.026233 405.232638,195.133688 C405.232638,198.233299 404.314857,200.722177 402.50619,202.529723 C400.697524,204.33839 398.209767,205.256171 395.110156,205.256171" id="Fill-538" fill="#FFFFFF"></path>
                            <path d="M428.286849,204.318219 L425.940289,204.318219 C425.607468,204.318219 425.311626,204.10082 425.213012,203.782567 L420.989428,190.209722 L416.694125,203.785929 C416.59327,204.103062 416.29967,204.318219 415.966848,204.318219 L413.644941,204.318219 C413.316602,204.318219 413.025243,204.107544 412.922147,203.794894 L407.038937,186.001827 C406.961615,185.76986 407.000837,185.514361 407.144275,185.316012 C407.287713,185.117664 407.517439,185 407.762852,185 L409.663409,185 C409.99399,185 410.28759,185.214037 410.389565,185.530049 L414.854081,199.461489 L419.234551,185.533411 C419.334285,185.216278 419.629006,185 419.961828,185 L422.103316,185 C422.437258,185 422.731979,185.217399 422.830593,185.536773 L427.15167,199.471575 L431.724885,185.524446 C431.827981,185.211796 432.120461,185 432.44992,185 L434.302291,185 C434.547705,185 434.778551,185.118785 434.920868,185.318254 C435.064307,185.517722 435.102407,185.774342 435.023965,186.006309 L429.008523,203.800497 C428.904306,204.109785 428.614068,204.318219 428.286849,204.318219" id="Fill-540" fill="#FFFFFF"></path>
                            <path d="M454.441318,204.318219 L440.762016,204.318219 C440.341786,204.318219 440,203.976433 440,203.556203 L440,185.762016 C440,185.341786 440.341786,185 440.762016,185 L454.441318,185 C454.862668,185 455.203334,185.341786 455.203334,185.762016 L455.203334,187.422762 C455.203334,187.844112 454.862668,188.184777 454.441318,188.184777 L443.304683,188.184777 L443.304683,192.892466 L453.5269,192.892466 C453.948249,192.892466 454.288915,193.233132 454.288915,193.654481 L454.288915,195.327554 C454.288915,195.747783 453.948249,196.08957 453.5269,196.08957 L443.304683,196.08957 L443.304683,201.121115 L454.441318,201.121115 C454.862668,201.121115 455.203334,201.462901 455.203334,201.884251 L455.203334,203.556203 C455.203334,203.976433 454.862668,204.318219 454.441318,204.318219" id="Fill-542" fill="#FFFFFF"></path>
                            <path d="M375.412015,227.318219 L373.631363,227.318219 C373.210013,227.318219 372.869348,226.976433 372.869348,226.556203 L372.869348,211.161245 L366.762016,211.161245 C366.340666,211.161245 366,210.819458 366,210.398108 L366,208.762016 C366,208.341786 366.340666,208 366.762016,208 L382.281362,208 C382.702712,208 383.043378,208.341786 383.043378,208.762016 L383.043378,210.398108 C383.043378,210.819458 382.702712,211.161245 382.281362,211.161245 L376.17403,211.161245 L376.17403,226.556203 C376.17403,226.976433 375.833365,227.318219 375.412015,227.318219" id="Fill-544" fill="#FFFFFF"></path>
                            <path d="M396.110156,210.256497 C393.944014,210.256497 392.310162,210.845938 391.112229,212.057319 C389.912054,213.272062 389.329336,214.932808 389.329336,217.133688 C389.329336,219.327845 389.912054,220.987471 391.11335,222.205575 C392.310162,223.420318 393.945134,224.01088 396.110156,224.01088 C398.267332,224.01088 399.897822,223.420318 401.095755,222.205575 C402.29593,220.987471 402.878648,219.327845 402.878648,217.133688 C402.878648,214.932808 402.29593,213.272062 401.095755,212.057319 C399.898943,210.845938 398.267332,210.256497 396.110156,210.256497 M396.110156,227.256171 C393.00158,227.256171 390.512702,226.33839 388.711879,224.528603 C386.912178,222.721057 386,220.232179 386,217.133688 C386,214.027354 386.912178,211.535114 388.711879,209.726447 C390.513823,207.91666 393.0027,207 396.110156,207 C399.208646,207 401.697524,207.91666 403.50619,209.725327 C405.314857,211.533994 406.232638,214.027354 406.232638,217.133688 C406.232638,220.233299 405.314857,222.722177 403.50619,224.530844 C401.697524,226.339511 399.209767,227.256171 396.110156,227.256171" id="Fill-546" fill="#FFFFFF"></path>
                            <path d="M414.304683,216.481907 L420.087037,216.481907 C421.992077,216.481907 422.891928,216.122191 423.311036,215.819626 C423.851171,215.430774 424.113394,214.775216 424.113394,213.814852 C424.113394,212.845523 423.854533,212.194448 423.322242,211.824647 C422.900893,211.533288 421.9607,211.184777 419.870759,211.184777 L414.304683,211.184777 L414.304683,216.481907 Z M427.18499,227.318219 L425.116341,227.318219 C424.786881,227.318219 424.495522,227.107544 424.392426,226.794894 C424.144771,226.042963 423.986765,225.044499 423.909443,223.743469 C423.822035,222.249694 423.771608,221.670338 423.745833,221.448457 C423.662908,220.796261 423.44663,220.340172 423.104844,220.096999 C422.835897,219.906496 422.256541,219.679011 421.02611,219.679011 L414.304683,219.679011 L414.304683,226.556203 C414.304683,226.976433 413.962896,227.318219 413.542667,227.318219 L411.762016,227.318219 C411.340666,227.318219 411,226.976433 411,226.556203 L411,208.762016 C411,208.341786 411.340666,208 411.762016,208 L420.290989,208 C422.568071,208 424.328551,208.456089 425.525364,209.35594 C426.789414,210.306218 427.430404,211.717068 427.430404,213.550388 C427.430404,214.882795 427.135683,215.982115 426.554086,216.819211 C426.279536,217.214787 425.932146,217.564418 425.514158,217.864742 C425.745004,218.016024 425.944473,218.189719 426.111444,218.385826 C426.605634,218.966303 426.920525,219.910978 427.07629,221.272521 C427.133442,221.733092 427.190593,222.386408 427.247744,223.206696 C427.3867,225.325772 427.682541,225.943229 427.803567,226.1102 C427.970538,226.342167 427.994071,226.648093 427.86408,226.902472 C427.734089,227.157972 427.471866,227.318219 427.18499,227.318219 L427.18499,227.318219 Z" id="Fill-548" fill="#FFFFFF"></path>
                            <path d="M440.194325,227.318219 L438.426,227.318219 C438.00465,227.318219 437.663984,226.976433 437.663984,226.556203 L437.663984,219.124309 L430.154768,209.222587 C429.979952,208.991741 429.950817,208.682452 430.079687,208.423591 C430.208557,208.163609 430.473021,208 430.762139,208 L433.023533,208 C433.268947,208 433.497551,208.117664 433.64099,208.314892 L439.307921,216.142362 L445.053296,208.31153 C445.197855,208.115423 445.425339,208 445.668511,208 L447.858186,208 C448.147304,208 448.411768,208.163609 448.540638,208.423591 C448.669508,208.682452 448.640373,208.991741 448.465557,209.222587 L440.956341,219.124309 L440.956341,226.556203 C440.956341,226.976433 440.615675,227.318219 440.194325,227.318219" id="Fill-550" fill="#FFFFFF"></path>
                            <path d="M367.070184,235.37304 L368.510169,235.37304 C369.441397,235.37304 370.043166,234.912469 370.043166,234.198639 C370.043166,233.479207 369.441397,233.015274 368.510169,233.015274 L367.070184,233.015274 L367.070184,235.37304 Z M371.635554,238.651949 L370.266167,238.651949 L368.314062,236.388314 L367.070184,236.388314 L367.070184,238.651949 L366,238.651949 L366,232 L368.52922,232 C370.074543,232 371.112229,232.883042 371.112229,234.198639 C371.112229,235.178054 370.526149,235.936708 369.560182,236.243755 L371.635554,238.651949 Z" id="Fill-552" fill="#FFFFFF"></path>
                            <polygon id="Fill-554" fill="#FFFFFF" points="376.745789 238.65307 372 238.65307 372 232 376.745789 232 376.745789 233.015274 373.070184 233.015274 373.070184 234.832905 376.379349 234.832905 376.379349 235.857144 373.070184 235.857144 373.070184 237.637796 376.745789 237.637796"></polygon>
                            <polygon id="Fill-556" fill="#FFFFFF" points="385.177516 238.699015 384.385243 238.699015 382.80294 234.001412 381.211672 238.699015 380.279323 238.699015 378 232 379.122853 232 380.741015 236.847765 382.368143 232 383.238858 232 384.857021 236.8388 386.475184 232 387.596916 232 385.38707 238.506269 385.38707 238.681085"></polygon>
                            <polygon id="Fill-558" fill="#FFFFFF" points="389 238.65307 390.070184 238.65307 390.070184 232 389 232"></polygon>
                            <polygon id="Fill-560" fill="#FFFFFF" points="396.388729 238.65307 395.318545 238.65307 395.318545 233.015274 393 233.015274 393 232 398.708394 232 398.708394 233.015274 396.388729 233.015274"></polygon>
                            <path d="M400.416038,235.86835 L402.512702,235.86835 L401.460448,233.506102 L400.416038,235.86835 Z M404.92874,238.699015 L403.771148,238.699015 L402.965429,236.883624 L399.964432,236.883624 L399.157592,238.699015 L398,238.699015 L401.022289,232 L401.906451,232 L404.92874,238.699015 Z" id="Fill-561" fill="#FFFFFF"></path>
                            <polygon id="Fill-562" fill="#FFFFFF" points="410.544079 238.65307 406 238.65307 406 232 407.069063 232 407.069063 237.646761 410.544079 237.646761"></polygon>
                            <polygon id="Fill-563" fill="#FFFFFF" points="413 238.65307 414.070184 238.65307 414.070184 232 413 232"></polygon>
                            <polygon id="Fill-564" fill="#FFFFFF" points="421.278079 238.65307 416 238.65307 416 238.035613 419.700259 233.015274 416.119905 233.015274 416.119905 232 421.26015 232 421.26015 232.67797 417.628248 237.637796 421.278079 237.637796"></polygon>
                            <path d="M424.416038,235.86835 L426.512702,235.86835 L425.460448,233.506102 L424.416038,235.86835 Z M428.92874,238.699015 L427.771148,238.699015 L426.964308,236.883624 L423.964432,236.883624 L423.158712,238.699015 L422,238.699015 L425.022289,232 L425.907572,232 L428.92874,238.699015 Z" id="Fill-565" fill="#FFFFFF"></path>
                            <path d="M433.44588,238.90969 C431.513946,238.90969 430,237.392382 430,235.454845 C430,233.517308 431.513946,232 433.44588,232 C435.042751,232 436.288871,232.974932 436.620572,234.484395 L436.676602,234.738774 L435.576162,234.738774 L435.534699,234.581889 C435.284803,233.618163 434.503737,233.043289 433.44588,233.043289 C432.096664,233.043289 431.079149,234.079855 431.079149,235.454845 C431.079149,236.829835 432.096664,237.867521 433.44588,237.867521 C434.503737,237.867521 435.284803,237.292647 435.534699,236.328922 L435.576162,236.172036 L436.676602,236.172036 L436.620572,236.426415 C436.288871,237.934758 435.042751,238.90969 433.44588,238.90969" id="Fill-566" fill="#FFFFFF"></path>
                            <path d="M439.455259,238.790905 C438.140782,238.790905 437.188263,237.967255 437.029136,236.690879 L437,236.455551 L438.078028,236.455551 L438.104923,236.634849 C438.208019,237.343075 438.726862,237.766666 439.49224,237.766666 C440.31813,237.766666 440.83137,237.161536 440.83137,236.188845 L440.83137,232 L441.910519,232 L441.910519,236.19781 C441.910519,237.796922 440.970326,238.790905 439.455259,238.790905" id="Fill-567" fill="#FFFFFF"></path>
                            <path d="M446.416038,235.86835 L448.512702,235.86835 L447.460448,233.506102 L446.416038,235.86835 Z M450.92874,238.699015 L449.771148,238.699015 L448.964308,236.883624 L445.964432,236.883624 L445.158712,238.699015 L444,238.699015 L447.022289,232 L447.907572,232 L450.92874,238.699015 Z" id="Fill-568" fill="#FFFFFF"></path>
                            <polygon id="Fill-569" fill="#FFFFFF" points="392.544079 247.65307 388 247.65307 388 241 389.070184 241 389.070184 246.646761 392.544079 246.646761"></polygon>
                            <polygon id="Fill-570" fill="#FFFFFF" points="398.745789 247.65307 394 247.65307 394 241 398.745789 241 398.745789 242.015274 395.070184 242.015274 395.070184 243.832905 398.379349 243.832905 398.379349 244.857144 395.070184 244.857144 395.070184 246.637796 398.745789 246.637796"></polygon>
                            <path d="M403.828423,247.927619 C402.231552,247.927619 401.18378,247.062507 401.025774,245.613557 L401,245.38159 L402.054495,245.38159 L402.082511,245.557526 C402.225949,246.449533 402.838923,246.92131 403.855318,246.92131 C404.732756,246.92131 405.278494,246.531338 405.278494,245.902675 C405.278494,245.45443 404.94119,245.166433 404.276668,245.045407 L403.191916,244.834732 C401.972691,244.609489 401.299203,243.957293 401.299203,242.996929 C401.299203,241.802358 402.271894,241 403.718603,241 C405.187725,241 406.198516,241.768739 406.355402,243.007015 L406.385658,243.243464 L405.332283,243.243464 L405.299786,243.073131 C405.16083,242.352578 404.644228,241.987259 403.764548,241.987259 C402.926331,241.987259 402.406367,242.360422 402.406367,242.959949 C402.406367,243.123559 402.406367,243.62111 403.507928,243.817217 L404.454845,244.000997 C406.027063,244.3002 406.357643,245.16083 406.357643,245.829835 C406.357643,247.083799 405.341248,247.927619 403.828423,247.927619" id="Fill-571" fill="#FFFFFF"></path>
                            <polygon id="Fill-572" fill="#FFFFFF" points="412.278079 247.65307 407 247.65307 407 247.035613 410.700259 242.015274 407.119905 242.015274 407.119905 241 412.26015 241 412.26015 241.680211 408.628248 246.637796 412.278079 246.637796"></polygon>
                            <polygon id="Fill-573" fill="#FFFFFF" points="419.699429 247.65307 418.829835 247.65307 415.070184 242.977879 415.070184 247.65307 414 247.65307 414 241 414.851665 241 418.629245 245.726739 418.629245 241 419.699429 241"></polygon>
                            <path d="M424.416038,244.86835 L426.512702,244.86835 L425.460448,242.506102 L424.416038,244.86835 Z M428.92874,247.699015 L427.771148,247.699015 L426.964308,245.883624 L423.964432,245.883624 L423.158712,247.699015 L422,247.699015 L425.022289,241 L425.907572,241 L428.92874,247.699015 Z" id="Fill-574" fill="#FFFFFF"></path>
                            <path d="M392,64.6063396 C392,73.7774228 399.435256,81.2126791 408.60634,81.2126791 C417.777423,81.2126791 425.211559,73.7774228 425.211559,64.6063396 C425.211559,55.4352563 417.777423,48 408.60634,48 C399.435256,48 392,55.4352563 392,64.6063396" id="Fill-575" fill="#FFFFFF"></path>
                            <path d="M438.94292,97.9442996 C432.164342,91.5321615 423.750792,87.4296033 414.663755,86.0288392 C413.174462,85.8002344 411.834211,86.9600672 411.834211,88.4672895 L411.834211,98.9024223 C411.843176,98.9046635 411.853262,98.9046635 411.863347,98.9069048 C411.862227,107.386571 411.854382,152.269297 411.854382,152.269297 C411.854382,153.490763 412.918963,154.430956 414.133706,154.296482 C419.972091,153.653252 424.155333,149.355707 425.834009,146.985614 C426.655417,145.82354 427.826456,143.071319 427.826456,138.389404 C427.826456,138.389404 427.828697,119.997931 427.830938,109.379018 C427.832059,107.907655 429.61159,107.187102 430.648155,108.231512 C438.168578,115.801241 441.995466,127.044335 439.159198,139.001258 C436.399133,150.641048 427.282959,159.806528 415.653255,162.61478 C394.282076,167.774075 375.139793,151.63391 375.139793,131.106551 C375.139793,122.381471 378.59912,114.448664 384.217865,108.608037 C385.242104,107.542336 387.042926,108.269613 387.044047,109.747699 C387.046288,120.334114 387.04853,138.3076 387.04853,138.3076 C387.04853,144.083231 388.419037,145.891897 389.330094,146.985614 C391.385295,149.448718 395.199856,153.607306 400.811878,154.378287 C401.977314,154.538534 403.020603,153.643166 403.020603,152.465403 C403.020603,152.465403 403.012759,107.559145 403.011638,98.9573323 C403.015,98.9562117 403.018362,98.9562117 403.022844,98.9550911 L403.022844,88.5244406 C403.022844,87.0048916 401.65906,85.8473001 400.157441,86.092714 C390.808181,87.6223485 382.192921,92.0196274 375.361674,98.8497536 C364.770776,109.440651 360.028349,124.32237 362.758158,139.575011 C363.864201,145.74958 366.291446,151.626066 369.868437,156.779757 C380.236333,171.715265 397.521763,179.023892 415.398876,176.083408 C421.960055,175.00538 428.206343,172.452627 433.635705,168.614534 C445.416692,160.287271 452.363362,147.617639 453.158996,133.785933 C453.931097,120.347562 448.721375,107.193826 438.94292,97.9442996" id="Fill-576" fill="#FFFFFF"></path>
                        </g>
                    </g>
                </g>
            </g>
        </g>
    </g>
</svg>