<?xml version="1.0" encoding="UTF-8" standalone="no"?>
<svg width="35px" height="38px" viewBox="0 0 35 38" version="1.1" xmlns="http://www.w3.org/2000/svg" xmlns:xlink="http://www.w3.org/1999/xlink">
    <!-- Generator: Sketch 41.2 (35397) - http://www.bohemiancoding.com/sketch -->
    <title>Group 2 Copy 23</title>
    <desc>Created with Sketch.</desc>
    <defs></defs>
    <g id="Homepage" stroke="none" stroke-width="1" fill="none" fill-rule="evenodd">
        <g id="Desktop--Copy" transform="translate(-572.000000, -474.000000)">
            <g id="Group-2-Copy-23" transform="translate(572.000000, 474.000000)">
                <circle id="Oval-2" fill="#EDA038" cx="17.5" cy="17.5" r="17.5"></circle>
                <polygon id="Rectangle-6" fill="#EDA038" transform="translate(17.702201, 34.368867) rotate(-315.000000) translate(-17.702201, -34.368867) " points="20.2022006 31.8688672 20.2022006 36.8688672 15.2022006 36.8688672"></polygon>
                <path d="M12.1910447,15.8419343 C11.1305951,15.8419343 10.1521728,15.3589573 9.50907842,14.5347465 C9.71513112,14.2670092 9.83784404,13.9320095 9.83784404,13.5691205 L9.83784404,12.4384555 C9.83784404,12.1034558 9.90871567,11.7733777 10.0455373,11.4708609 L12.3075235,11.4708609 C12.4981551,11.4708609 12.6684438,11.3524134 12.7343938,11.1735938 C12.8482478,10.8661552 12.9342125,10.5485453 12.9909754,10.2253576 C13.9018071,10.5567481 14.5439172,11.4393624 14.5439172,12.4384555 L14.5439172,13.5691205 C14.5439172,13.9320095 14.6666301,14.2670092 14.8726828,14.5347465 C14.2299165,15.3592854 13.2511661,15.8419343 12.1910447,15.8419343 L12.1910447,15.8419343 Z M12.2195902,17.9936758 L12.1519997,17.9936758 C11.6375241,17.9936758 11.1328918,17.3692836 11.1328918,16.7330795 C11.1328918,16.6937063 11.1276421,16.6553175 11.1181269,16.6179131 C11.4636261,16.7061745 11.8235621,16.7517817 12.1910447,16.7517817 C12.5388406,16.7517817 12.8800744,16.710768 13.20884,16.6320218 C13.1776696,17.2934903 12.6769747,17.9936758 12.2195902,17.9936758 L12.2195902,17.9936758 Z M9.37750655,10.7851122 C9.08319241,11.2844947 8.92799667,11.8563894 8.92799667,12.4384555 L8.92799667,13.5691205 C8.92799667,13.7846884 8.82661086,13.9769605 8.66879024,14.1006577 C8.65533775,14.1095167 8.64254149,14.1190319 8.62974522,14.1288751 C8.52212534,14.2020435 8.3918659,14.2446978 8.25241941,14.2446978 C7.87968713,14.2446978 7.57684215,13.9415247 7.57684215,13.5691205 L7.57684215,12.4384555 C7.57684215,9.91299743 9.55468562,7.88659377 12.0798156,7.82556542 C12.173983,7.82326865 12.2711034,7.82425298 12.3760984,7.8285184 C14.8598865,7.92662311 16.8052472,9.95171434 16.8052472,12.4384555 L16.8052472,13.5691205 C16.8052472,13.9415247 16.5020741,14.2446978 16.1296699,14.2446978 C15.9895672,14.2446978 15.8596359,14.2020435 15.7516879,14.1288751 C15.7395479,14.1190319 15.7267516,14.1095167 15.712971,14.1006577 C15.5551504,13.9769605 15.4540927,13.7846884 15.4540927,13.5691205 L15.4540927,12.4384555 C15.4540927,10.8326881 14.2578058,9.44511343 12.6710687,9.2105152 C12.5463872,9.19214108 12.4197369,9.22659257 12.3213041,9.30501071 C12.2225432,9.38375697 12.1611867,9.49957959 12.1513434,9.62524549 C12.1264071,9.9431835 12.0686599,10.256528 11.9794141,10.5610135 L9.76959728,10.5610135 C9.60849557,10.5610135 9.45887768,10.6459938 9.37750655,10.7851122 L9.37750655,10.7851122 Z M14.7325801,17.1415757 C14.8651363,16.9283046 14.7998425,16.647771 14.5862433,16.5148867 C14.4477811,16.4289221 14.3040692,16.350832 14.1567481,16.2816009 C14.7187995,15.9941771 15.2162134,15.5823998 15.6112571,15.0675961 C15.7736712,15.124031 15.9482254,15.1545451 16.1296699,15.1545451 C17.0037534,15.1545451 17.7150946,14.4432039 17.7150946,13.5691205 L17.7150946,12.4384555 C17.7150946,11.0013363 17.1661675,9.64033852 16.1693712,8.60613769 C15.1751997,7.57488984 13.8411069,6.97576207 12.4118623,6.91932725 L12.4112061,6.91932725 C12.2871807,6.91440561 12.1716862,6.91309317 12.0578323,6.91637427 C10.6351499,6.95049764 9.29318243,7.52632964 8.27899627,8.53756282 C7.23921757,9.57406042 6.66666667,10.9596664 6.66666667,12.4384555 L6.66666667,13.5691205 C6.66666667,14.4432039 7.37800785,15.1545451 8.25241941,15.1545451 C8.43386391,15.1545451 8.60809,15.124031 8.77083226,15.0675961 C9.20590533,15.6348973 9.76500375,16.0765326 10.3982549,16.3652688 C8.99493098,17.103515 8.1264254,18.5327595 8.1264254,20.1149031 L8.1264254,23.8389448 C8.1264254,23.9928281 8.20451543,24.13654 8.33379054,24.2202079 L12.4610787,26.898565 C12.5372001,26.9481095 12.6231648,26.9717334 12.7081451,26.9717334 C12.8571068,26.9717334 13.0031154,26.898565 13.0900644,26.7643682 C13.2268861,26.553722 13.166842,26.271876 12.9561958,26.1350544 L9.03627277,23.5918784 L9.03627277,20.1149031 C9.03627277,19.0623281 9.52646822,18.0957178 10.347726,17.4723099 C10.6292439,18.2893024 11.3520689,18.9035232 12.1519997,18.9035232 L12.2195902,18.9035232 C13.0880958,18.9035232 13.7813909,18.117373 14.0255043,17.2390242 C14.0520812,17.2551015 14.0793143,17.271507 14.1058911,17.2879125 C14.3194904,17.4204687 14.5996958,17.3548468 14.7325801,17.1415757 L14.7325801,17.1415757 Z M18.0002216,29.3531514 L15.0616738,27.4822716 L15.0616738,26.0727136 C15.0616738,25.072308 15.5669623,24.1591796 16.3852672,23.620752 C16.669738,24.2694243 17.3397374,24.6720146 17.9756134,24.6720146 L18.0310639,24.6720146 C18.7174688,24.6720146 19.3244712,24.2251296 19.5866306,23.6043466 C20.4164193,24.139493 20.9322072,25.060168 20.9371289,26.0750104 L20.9436911,27.4930992 L18.0002216,29.3531514 Z M18.8067145,23.0409827 C18.7499516,23.4711341 18.3726258,23.7621672 18.0310639,23.7621672 L17.9756134,23.7621672 C17.6140369,23.7621672 17.2121028,23.4563692 17.1602616,23.0331081 C17.4289832,23.0997143 17.7098448,23.1351501 17.9992373,23.1351501 C18.277146,23.1351501 18.5475081,23.1023392 18.8067145,23.0409827 L18.8067145,23.0409827 Z M15.4216098,19.6476753 C15.4216098,19.3523768 15.4718106,19.067906 15.5636812,18.8034498 C16.3143955,19.0436259 17.1474653,19.169948 17.9992373,19.169948 C18.8513374,19.169948 19.6844072,19.0436259 20.4351215,18.8034498 C20.5269921,19.067906 20.5768648,19.3523768 20.5768648,19.6476753 C20.5768648,21.0690452 19.4206072,22.2253027 17.9992373,22.2253027 C16.5778674,22.2253027 15.4216098,21.0690452 15.4216098,19.6476753 L15.4216098,19.6476753 Z M17.9992373,17.0700478 C18.7912934,17.0700478 19.5006659,17.4286714 19.9737997,17.9923634 C19.3608913,18.16823 18.6885952,18.2597725 17.9992373,18.2597725 C17.3102076,18.2597725 16.6375833,18.16823 16.0246749,17.9923634 C16.4981368,17.4286714 17.2075093,17.0700478 17.9992373,17.0700478 L17.9992373,17.0700478 Z M19.7624972,22.6557823 C20.7930889,22.049108 21.4867121,20.9276301 21.4867121,19.6476753 C21.4867121,19.0715152 21.3462813,18.5275098 21.0982306,18.0481419 C21.0890435,18.0281273 21.0788722,18.0087688 21.0677164,17.9907228 C20.4771195,16.9013996 19.3231587,16.1602004 17.9992373,16.1602004 C16.6753159,16.1602004 15.521027,16.9017277 14.9307582,17.9917071 C14.9196025,18.0090969 14.9097592,18.0281273 14.9012283,18.0474857 C14.6521933,18.5271817 14.5117625,19.0711871 14.5117625,19.6476753 C14.5117625,20.9276301 15.2047295,22.0487799 16.2356493,22.6554542 C14.9599599,23.3149541 14.1518265,24.6237825 14.1518265,26.0727136 L14.1518265,27.7319628 C14.1518265,27.8874867 14.2312289,28.0321829 14.3624727,28.1158508 L17.7551239,30.2754669 C17.8296047,30.3230428 17.914257,30.3466667 17.9992373,30.3466667 C18.0838895,30.3466667 18.1682136,30.3233709 18.2423664,30.2764513 L21.6428922,28.1276628 C21.7757765,28.044323 21.8555071,27.8979862 21.855179,27.7411499 L21.8469763,26.0704168 C21.840086,24.6182046 21.0329368,23.3136416 19.7624972,22.6557823 L19.7624972,22.6557823 Z M26.8020845,11.0161012 C26.3670114,11.0161012 26.0133094,10.6623993 26.0133094,10.2273262 L26.0133094,9.97435389 C26.0133094,9.80865864 25.9230794,9.65641588 25.7783831,9.57602908 C25.6333588,9.49597038 25.4565078,9.50089203 25.316077,9.58882535 C24.5158181,10.0914889 23.5610198,10.3572576 22.5553645,10.3572576 C22.1622894,10.3572576 21.7715111,10.3155877 21.3941853,10.2338884 C21.2596604,10.2046867 21.1195577,10.2378257 21.0122659,10.3244466 C20.9053023,10.4107394 20.8429615,10.5409988 20.8429615,10.6784767 L20.8429615,10.9544167 C20.8429615,11.3891616 20.4892596,11.7428636 20.0541865,11.7428636 C20.0243285,11.7428636 19.9951268,11.741223 19.9659251,11.73827 C19.9590348,11.7372857 19.9521445,11.7363014 19.9455823,11.7356452 C19.9354109,11.7343327 19.9252395,11.7326922 19.9153962,11.7307235 C19.9137557,11.6920066 19.9134276,11.6529616 19.9134276,11.6142447 C19.9134276,10.9829622 20.0715763,10.3579138 20.3714683,9.80668999 C20.3724526,9.80472133 20.3740932,9.80242457 20.3747494,9.80078402 C20.3786867,9.79356561 20.7898078,9.0812401 21.3836858,8.61729341 C21.3849982,8.61598097 21.3863107,8.61499664 21.3866388,8.61466853 C22.0549976,8.09756811 22.8562408,7.82458109 23.7030911,7.82458109 C24.2759702,7.82458109 24.8265377,7.94926266 25.3387165,8.1946885 C25.3475755,8.19895392 25.361028,8.20485989 25.3777615,8.21273451 C25.8837062,8.43716134 26.2721878,8.80103467 26.5107233,9.06910005 C26.5133482,9.07205304 26.5159731,9.07500602 26.5185979,9.07828712 C26.9480931,9.55437386 27.2479851,10.1282372 27.3930095,10.7473796 C27.2440478,10.9156998 27.028808,11.0161012 26.8020845,11.0161012 L26.8020845,11.0161012 Z M23.6371412,14.6312106 C22.2653158,14.6312106 21.0490142,13.8142182 20.5161645,12.5890577 C21.1477751,12.4105662 21.6310803,11.8747635 21.7327942,11.2146074 C22.0044688,11.249387 22.2794245,11.2667768 22.5553645,11.2667768 C23.4809611,11.2667768 24.3721062,11.0728642 25.1703964,10.7014443 C25.376121,11.408192 26.0297149,11.9259486 26.8020845,11.9259486 C26.8585193,11.9259486 26.9142979,11.9229956 26.9697484,11.9174178 C26.6488574,13.4631412 25.2724384,14.6312106 23.6371412,14.6312106 L23.6371412,14.6312106 Z M23.6102362,16.5749307 L23.5423175,16.5749307 C22.9976559,16.5749307 22.5379747,16.0470027 22.5379747,15.4222824 C22.5379747,15.4147359 22.5376466,15.4068613 22.5373184,15.3993147 C22.8900361,15.4921697 23.258831,15.541058 23.6371412,15.541058 C23.960657,15.541058 24.2759702,15.504966 24.5794714,15.4367192 C24.5440355,16.0519243 24.1060095,16.5749307 23.6102362,16.5749307 L23.6102362,16.5749307 Z M28.3258245,10.76641 C28.1706288,9.91463798 27.7818191,9.12258189 27.2004093,8.47555014 C27.1994249,8.47423771 27.1984406,8.47325338 27.1971282,8.47161283 C26.8995329,8.1356288 26.4063845,7.67365077 25.7472127,7.38097718 L25.7321197,7.37441499 C25.0959156,7.06927325 24.4131199,6.91440561 23.7030911,6.91440561 C22.652813,6.91440561 21.6592977,7.25367073 20.8298371,7.89512461 C20.8291809,7.89578083 20.8255717,7.89873382 20.8242593,7.89939003 C20.1116056,8.45619169 19.6410968,9.25152888 19.5830214,9.35291469 C19.5803965,9.35718011 19.5777716,9.36210175 19.5754749,9.36636717 C19.2014302,10.0521158 19.0035802,10.8290789 19.0035802,11.6142447 C19.0035802,11.7773151 19.012111,11.942026 19.0288446,12.104112 C19.044922,12.2560267 19.1354802,12.3895672 19.2706612,12.4604388 C19.3559697,12.5050617 19.4455435,12.5424662 19.5374142,12.5716679 C19.9035843,13.6924896 20.7031869,14.5885564 21.7196698,15.0925325 C21.2839405,15.3153187 20.8928341,15.6096329 20.5538971,15.9692408 C20.3816397,16.1523258 20.3904986,16.4404059 20.5735837,16.6123352 C20.7569968,16.7845926 21.0447488,16.7757337 21.2166781,16.5926486 C21.3794204,16.419735 21.5572557,16.2661798 21.7495278,16.1326393 C22.0251397,16.9132115 22.7348403,17.4847781 23.5423175,17.4847781 L23.6099081,17.4847781 C24.4186978,17.4847781 25.1280703,16.8721979 25.3869486,16.0433935 C26.3476529,16.6451461 26.9622018,17.718392 26.9622018,18.8661187 L26.9622018,23.5918784 L22.8244142,26.2764695 C22.6137679,26.4132912 22.5537239,26.6951371 22.6905455,26.9057834 C22.7774945,27.0399801 22.9235032,27.1131485 23.0724649,27.1131485 C23.1574452,27.1131485 23.2430818,27.0895246 23.3198594,27.0399801 L27.6646841,24.2202079 C27.7942873,24.13654 27.8720492,23.9928281 27.8720492,23.8389448 L27.8720492,18.8661187 C27.8720492,17.2551015 26.9727013,15.8107639 25.5513314,15.0902357 C26.8972362,14.4185957 27.8494097,13.0625196 27.9425927,11.483329 C28.0708835,11.3671783 28.1827688,11.2300286 28.2716865,11.0761453 C28.3261526,10.9826341 28.3455111,10.8730455 28.3258245,10.76641 L28.3258245,10.76641 Z" id="Fill-515" fill="#FFFFFF"></path>
            </g>
        </g>
    </g>
</svg>