<?xml version="1.0" encoding="UTF-8" standalone="no"?>
<svg width="35px" height="38px" viewBox="0 0 35 38" version="1.1" xmlns="http://www.w3.org/2000/svg" xmlns:xlink="http://www.w3.org/1999/xlink">
    <!-- Generator: Sketch 41.2 (35397) - http://www.bohemiancoding.com/sketch -->
    <title>Group 11 Copy 10</title>
    <desc>Created with Sketch.</desc>
    <defs></defs>
    <g id="Homepage" stroke="none" stroke-width="1" fill="none" fill-rule="evenodd">
        <g id="Desktop--Copy" transform="translate(-676.000000, -554.000000)">
            <g id="Group-11-Copy-10" transform="translate(676.000000, 554.000000)">
                <g id="Group-2-Copy-10" fill="#D5234C">
                    <circle id="Oval-2" cx="17.5" cy="17.5" r="17.5"></circle>
                    <polygon id="Rectangle-6" transform="translate(17.702201, 34.368867) rotate(-315.000000) translate(-17.702201, -34.368867) " points="20.2022006 31.8688672 20.2022006 36.8688672 15.2022006 36.8688672"></polygon>
                </g>
                <g id="Group" transform="translate(5.000000, 8.333333)" fill="#FFFFFF">
                    <path d="M9.76095382,19.0628571 L16.3864257,19.0628571 L16.3864257,1.13555556 L9.76095382,1.13555556 L9.76095382,19.0628571 Z M1.87618474,19.0628571 L8.93957831,19.0628571 L8.93957831,9.62444444 L1.87618474,9.62444444 L1.87618474,19.0628571 Z M1.87618474,8.78666667 L8.93957831,8.78666667 L8.93957831,8.28380952 L1.87618474,8.28380952 L1.87618474,8.78666667 Z M19.4475201,4.70952381 C19.6426707,4.70952381 19.8110542,4.56952381 19.8496486,4.37428571 C19.9140763,4.05079365 20.1963755,3.81587302 20.5203815,3.81587302 C20.8446988,3.81587302 21.1266867,4.05079365 21.1908032,4.37428571 C21.2297088,4.56952381 21.3980924,4.70952381 21.5935542,4.70952381 L23.8332731,4.70952381 L23.8332731,19.0628571 L17.2078012,19.0628571 L17.2078012,4.70952381 L19.4475201,4.70952381 Z M25.1196486,19.0628571 L24.6546486,19.0628571 L24.6546486,4.29079365 C24.6546486,4.05968254 24.4703916,3.87206349 24.2438052,3.87206349 L21.887992,3.87206349 C21.6464659,3.33873016 21.1157932,2.9784127 20.5203815,2.9784127 C19.9249699,2.9784127 19.3942972,3.33873016 19.1527711,3.87206349 L17.2078012,3.87206349 L17.2078012,1.13555556 L17.2348795,1.13555556 C17.4617771,1.13555556 17.6457229,0.947936508 17.6457229,0.716507937 C17.6457229,0.485396825 17.4617771,0.297777778 17.2348795,0.297777778 L8.9125,0.297777778 C8.68529116,0.297777778 8.50165663,0.485396825 8.50165663,0.716507937 C8.50165663,0.947936508 8.68529116,1.13555556 8.9125,1.13555556 L8.93957831,1.13555556 L8.93957831,7.44603175 L1.02741968,7.44603175 C0.800833333,7.44603175 0.61688755,7.63396825 0.61688755,7.86507937 C0.61688755,8.09650794 0.800833333,8.28380952 1.02741968,8.28380952 L1.05512048,8.28380952 L1.05512048,19.0628571 L0.589497992,19.0628571 C0.362911647,19.0628571 0.178965863,19.2504762 0.178965863,19.4815873 C0.178965863,19.7130159 0.362911647,19.9006349 0.589497992,19.9006349 L25.1196486,19.9006349 C25.3465462,19.9006349 25.5301807,19.7130159 25.5301807,19.4815873 C25.5301807,19.2504762 25.3465462,19.0628571 25.1196486,19.0628571 L25.1196486,19.0628571 Z" id="Fill-503"></path>
                    <path d="M18.5218775,14.5949206 L19.4528112,14.5949206 L19.4528112,13.6453968 L18.5218775,13.6453968 L18.5218775,14.5949206 Z M18.5218775,16.8288889 L19.4528112,16.8288889 L19.4528112,15.4326984 L18.5218775,15.4326984 L18.5218775,16.8288889 Z M18.1110341,17.6666667 L19.8633434,17.6666667 C20.090241,17.6666667 20.2741867,17.4790476 20.2741867,17.2479365 L20.2741867,13.2266667 C20.2741867,12.9952381 20.090241,12.807619 19.8633434,12.807619 L18.1110341,12.807619 C17.8844478,12.807619 17.700502,12.9952381 17.700502,13.2266667 L17.700502,17.2479365 C17.700502,17.4790476 17.8844478,17.6666667 18.1110341,17.6666667 L18.1110341,17.6666667 Z" id="Fill-504"></path>
                    <path d="M21.5882631,14.5949206 L22.5188855,14.5949206 L22.5188855,13.6453968 L21.5882631,13.6453968 L21.5882631,14.5949206 Z M21.5882631,16.8288889 L22.5188855,16.8288889 L22.5188855,15.4326984 L21.5882631,15.4326984 L21.5882631,16.8288889 Z M21.1774197,17.6666667 L22.9294177,17.6666667 C23.1566265,17.6666667 23.340261,17.4790476 23.340261,17.2479365 L23.340261,13.2266667 C23.340261,12.9952381 23.1566265,12.807619 22.9294177,12.807619 L21.1774197,12.807619 C20.9508333,12.807619 20.7668876,12.9952381 20.7668876,13.2266667 L20.7668876,17.2479365 C20.7668876,17.4790476 20.9508333,17.6666667 21.1774197,17.6666667 L21.1774197,17.6666667 Z" id="Fill-505"></path>
                    <path d="M18.5218775,8.33968254 L19.4528112,8.33968254 L19.4528112,7.39047619 L18.5218775,7.39047619 L18.5218775,8.33968254 Z M18.5218775,10.5736508 L19.4528112,10.5736508 L19.4528112,9.17746032 L18.5218775,9.17746032 L18.5218775,10.5736508 Z M18.1110341,11.4114286 L19.8633434,11.4114286 C20.090241,11.4114286 20.2741867,11.2238095 20.2741867,10.9926984 L20.2741867,7.0831746 C20.2741867,6.79079365 20.040753,6.55301587 19.7537851,6.55301587 L18.2209036,6.55301587 C17.9339357,6.55301587 17.700502,6.79079365 17.700502,7.0831746 L17.700502,10.9926984 C17.700502,11.2238095 17.8844478,11.4114286 18.1110341,11.4114286 L18.1110341,11.4114286 Z" id="Fill-506"></path>
                    <path d="M21.5882631,8.33968254 L22.5188855,8.33968254 L22.5188855,7.39047619 L21.5882631,7.39047619 L21.5882631,8.33968254 Z M21.5882631,10.5736508 L22.5188855,10.5736508 L22.5188855,9.17746032 L21.5882631,9.17746032 L21.5882631,10.5736508 Z M21.1774197,11.4114286 L22.9294177,11.4114286 C23.1566265,11.4114286 23.340261,11.2238095 23.340261,10.9926984 L23.340261,7.0831746 C23.340261,6.79079365 23.1071386,6.55301587 22.8201707,6.55301587 L21.2866667,6.55301587 C21.0003213,6.55301587 20.7668876,6.79079365 20.7668876,7.0831746 L20.7668876,10.9926984 C20.7668876,11.2238095 20.9508333,11.4114286 21.1774197,11.4114286 L21.1774197,11.4114286 Z" id="Fill-507"></path>
                    <path d="M11.0750301,16.8288889 L12.0059639,16.8288889 L12.0059639,15.4326984 L11.0750301,15.4326984 L11.0750301,16.8288889 Z M11.0750301,14.5949206 L12.0059639,14.5949206 L12.0059639,14.092381 L11.0750301,14.092381 L11.0750301,14.5949206 Z M12.4168072,13.2546032 L10.664498,13.2546032 C10.4376004,13.2546032 10.2536546,13.4419048 10.2536546,13.6736508 L10.2536546,17.2479365 C10.2536546,17.4790476 10.4376004,17.6666667 10.664498,17.6666667 L12.4168072,17.6666667 C12.6433936,17.6666667 12.8273394,17.4790476 12.8273394,17.2479365 L12.8273394,13.6736508 C12.8273394,13.4419048 12.6433936,13.2546032 12.4168072,13.2546032 L12.4168072,13.2546032 Z" id="Fill-508"></path>
                    <path d="M14.1414157,16.8288889 L15.0723494,16.8288889 L15.0723494,15.4326984 L14.1414157,15.4326984 L14.1414157,16.8288889 Z M14.1414157,14.5949206 L15.0723494,14.5949206 L15.0723494,14.092381 L14.1414157,14.092381 L14.1414157,14.5949206 Z M15.4828815,13.2546032 L13.7308835,13.2546032 C13.5039859,13.2546032 13.3200402,13.4419048 13.3200402,13.6736508 L13.3200402,17.2479365 C13.3200402,17.4790476 13.5039859,17.6666667 13.7308835,17.6666667 L15.4828815,17.6666667 C15.7097791,17.6666667 15.8937249,17.4790476 15.8937249,17.2479365 L15.8937249,13.6736508 C15.8937249,13.4419048 15.7097791,13.2546032 15.4828815,13.2546032 L15.4828815,13.2546032 Z" id="Fill-509"></path>
                    <path d="M11.0750301,11.4673016 L12.0059639,11.4673016 L12.0059639,10.0711111 L11.0750301,10.0711111 L11.0750301,11.4673016 Z M11.0750301,9.23333333 L12.0059639,9.23333333 L12.0059639,8.73079365 L11.0750301,8.73079365 L11.0750301,9.23333333 Z M12.4168072,7.89301587 L10.664498,7.89301587 C10.4376004,7.89301587 10.2536546,8.08063492 10.2536546,8.31206349 L10.2536546,11.8863492 C10.2536546,12.1174603 10.4376004,12.3050794 10.664498,12.3050794 L12.4168072,12.3050794 C12.6433936,12.3050794 12.8273394,12.1174603 12.8273394,11.8863492 L12.8273394,8.31206349 C12.8273394,8.08063492 12.6433936,7.89301587 12.4168072,7.89301587 L12.4168072,7.89301587 Z" id="Fill-510"></path>
                    <path d="M14.1414157,11.4673016 L15.0723494,11.4673016 L15.0723494,10.0711111 L14.1414157,10.0711111 L14.1414157,11.4673016 Z M14.1414157,9.23333333 L15.0723494,9.23333333 L15.0723494,8.73079365 L14.1414157,8.73079365 L14.1414157,9.23333333 Z M15.4828815,7.89301587 L13.7308835,7.89301587 C13.5039859,7.89301587 13.3200402,8.08063492 13.3200402,8.31206349 L13.3200402,11.8863492 C13.3200402,12.1174603 13.5039859,12.3050794 13.7308835,12.3050794 L15.4828815,12.3050794 C15.7097791,12.3050794 15.8937249,12.1174603 15.8937249,11.8863492 L15.8937249,8.31206349 C15.8937249,8.08063492 15.7097791,7.89301587 15.4828815,7.89301587 L15.4828815,7.89301587 Z" id="Fill-511"></path>
                    <path d="M11.0750301,6.10571429 L12.0059639,6.10571429 L12.0059639,4.70952381 L11.0750301,4.70952381 L11.0750301,6.10571429 Z M11.0750301,3.87206349 L12.0059639,3.87206349 L12.0059639,3.36952381 L11.0750301,3.36952381 L11.0750301,3.87206349 Z M12.4168072,2.53174603 L10.664498,2.53174603 C10.4376004,2.53174603 10.2536546,2.71936508 10.2536546,2.95047619 L10.2536546,6.5247619 C10.2536546,6.75587302 10.4376004,6.94349206 10.664498,6.94349206 L12.4168072,6.94349206 C12.6433936,6.94349206 12.8273394,6.75587302 12.8273394,6.5247619 L12.8273394,2.95047619 C12.8273394,2.71936508 12.6433936,2.53174603 12.4168072,2.53174603 L12.4168072,2.53174603 Z" id="Fill-512"></path>
                    <path d="M14.1414157,6.10571429 L15.0723494,6.10571429 L15.0723494,4.70952381 L14.1414157,4.70952381 L14.1414157,6.10571429 Z M14.1414157,3.87206349 L15.0723494,3.87206349 L15.0723494,3.36952381 L14.1414157,3.36952381 L14.1414157,3.87206349 Z M15.4828815,2.53174603 L13.7308835,2.53174603 C13.5039859,2.53174603 13.3200402,2.71936508 13.3200402,2.95047619 L13.3200402,6.5247619 C13.3200402,6.75587302 13.5039859,6.94349206 13.7308835,6.94349206 L15.4828815,6.94349206 C15.7097791,6.94349206 15.8937249,6.75587302 15.8937249,6.5247619 L15.8937249,2.95047619 C15.8937249,2.71936508 15.7097791,2.53174603 15.4828815,2.53174603 L15.4828815,2.53174603 Z" id="Fill-513"></path>
                    <path d="M5.81841365,17.2755556 L7.62550201,17.2755556 L7.62550201,15.8793651 L5.81841365,15.8793651 L5.81841365,17.2755556 Z M3.19026104,17.2755556 L4.99703815,17.2755556 L4.99703815,15.8793651 L3.19026104,15.8793651 L3.19026104,17.2755556 Z M3.19026104,12.807619 L4.99703815,12.807619 L4.99703815,11.4114286 L3.19026104,11.4114286 L3.19026104,12.807619 Z M5.81841365,12.807619 L7.62550201,12.807619 L7.62550201,11.4114286 L5.81841365,11.4114286 L5.81841365,12.807619 Z M5.81841365,15.0415873 L7.62550201,15.0415873 L7.62550201,13.6453968 L5.81841365,13.6453968 L5.81841365,15.0415873 Z M3.19026104,15.0415873 L4.99703815,15.0415873 L4.99703815,13.6453968 L3.19026104,13.6453968 L3.19026104,15.0415873 Z M8.03634538,10.5736508 L2.77972892,10.5736508 C2.55314257,10.5736508 2.36919679,10.7612698 2.36919679,10.9926984 L2.36919679,17.6946032 C2.36919679,17.9257143 2.55314257,18.1133333 2.77972892,18.1133333 L8.03634538,18.1133333 C8.26293173,18.1133333 8.44687751,17.9257143 8.44687751,17.6946032 L8.44687751,10.9926984 C8.44687751,10.7612698 8.26293173,10.5736508 8.03634538,10.5736508 L8.03634538,10.5736508 Z" id="Fill-514"></path>
                </g>
            </g>
        </g>
    </g>
</svg>