<?xml version="1.0" encoding="UTF-8" standalone="no"?>
<svg width="35px" height="38px" viewBox="0 0 35 38" version="1.1" xmlns="http://www.w3.org/2000/svg" xmlns:xlink="http://www.w3.org/1999/xlink">
    <!-- Generator: Sketch 41.2 (35397) - http://www.bohemiancoding.com/sketch -->
    <title>Group 2 Copy 16</title>
    <desc>Created with Sketch.</desc>
    <defs></defs>
    <g id="Homepage" stroke="none" stroke-width="1" fill="none" fill-rule="evenodd">
        <g id="Desktop--Copy" transform="translate(-440.000000, -610.000000)">
            <g id="Group-2-Copy-16" transform="translate(440.000000, 610.000000)">
                <circle id="Oval-2" fill="#235C98" cx="17.5" cy="17.5" r="17.5"></circle>
                <polygon id="Rectangle-6" fill="#235C98" transform="translate(17.702201, 34.368867) rotate(-315.000000) translate(-17.702201, -34.368867) " points="20.2022006 31.8688672 20.2022006 36.8688672 15.2022006 36.8688672"></polygon>
                <g id="Group-2" transform="translate(5.000000, 5.000000)" fill="#FFFFFF">
                    <path d="M12.2183214,0.28975 L10.9990357,0.792607143 C10.3468929,1.06117857 10.0383214,1.81260714 10.30725,2.45975 L10.6204643,3.21617857 C10.0086786,3.66867857 9.47617857,4.20617857 9.01832143,4.81832143 L8.26189286,4.50475 C7.94832143,4.37546429 7.60010714,4.37546429 7.28653571,4.50475 C6.97296429,4.63403571 6.72439286,4.88296429 6.59475,5.19689286 L6.08689286,6.41582143 C5.81832143,7.06796429 6.12689286,7.81439286 6.77903571,8.08296429 L7.89867857,8.54582143 C8.15225,8.65046429 8.43617857,8.53082143 8.54046429,8.27725 C8.64510714,8.02332143 8.52546429,7.73975 8.27189286,7.63510714 L7.15225,7.17225 C7.00260714,7.11260714 6.93332143,6.93867857 6.99296429,6.78903571 L7.50046429,5.57010714 C7.53010714,5.50010714 7.58510714,5.44046429 7.65975,5.41046429 C7.72939286,5.38082143 7.80903571,5.38082143 7.88367857,5.41046429 L9.00332143,5.87332143 C9.22260714,5.96332143 9.47117857,5.88832143 9.60046429,5.69439286 C10.1033214,4.93796429 10.7401071,4.30082143 11.4965357,3.79832143 C11.6908214,3.66867857 11.7701071,3.41510714 11.6808214,3.20117857 L11.2179643,2.08117857 C11.1579643,1.93225 11.2279643,1.76260714 11.3768929,1.69796429 L12.5965357,1.19546429 C12.6661786,1.16582143 12.7454643,1.16582143 12.8204643,1.19546429 C12.8901071,1.22546429 12.94975,1.28010714 12.97975,1.35475 L13.4426071,2.47439286 C13.5318929,2.69332143 13.7608214,2.81796429 13.99475,2.76796429 C14.8804643,2.58903571 15.7865357,2.59403571 16.67225,2.76796429 C16.9011786,2.81296429 17.1351071,2.68867857 17.2243929,2.47439286 L17.68725,1.35475 C17.74725,1.20546429 17.9215357,1.13582143 18.0704643,1.19546429 L19.2901071,1.70332143 C19.3593929,1.73332143 19.4193929,1.78796429 19.4490357,1.86225 C19.4790357,1.93225 19.4790357,2.01153571 19.4490357,2.08653571 L18.9861786,3.20617857 C18.8968929,3.42510714 18.9715357,3.67403571 19.1654643,3.80332143 C19.9218929,4.30582143 20.5590357,4.94296429 21.0611786,5.69939286 C21.1908214,5.89332143 21.4443929,5.97296429 21.6586786,5.88332143 L22.7783214,5.42046429 C22.8529643,5.39082143 22.9276071,5.39082143 23.00225,5.42046429 C23.0718929,5.45046429 23.1315357,5.50510714 23.1615357,5.58010714 L23.6643929,6.79903571 C23.6940357,6.86867857 23.6940357,6.94867857 23.6643929,7.02296429 C23.6343929,7.09296429 23.5793929,7.15225 23.50475,7.18225 L22.3851071,7.64510714 C22.1661786,7.73475 22.0468929,7.96367857 22.0915357,8.19760714 C22.2708214,9.08332143 22.2658214,9.98903571 22.0915357,10.87475 C22.0468929,11.1036786 22.1715357,11.3376071 22.3851071,11.42725 L23.50475,11.8901071 C23.6543929,11.94975 23.7240357,12.1240357 23.6643929,12.2733214 L23.1568929,13.4926071 C23.0968929,13.6418929 22.9226071,13.7115357 22.7736786,13.6518929 L21.6536786,13.1890357 C21.43475,13.0993929 21.1858214,13.1740357 21.0565357,13.3683214 C20.5540357,14.12475 19.9168929,14.7615357 19.1604643,15.2643929 C18.9661786,15.3936786 18.8868929,15.6476071 18.9761786,15.8611786 L19.4390357,16.9811786 C19.4690357,17.0508214 19.4690357,17.1304643 19.4390357,17.2051071 C19.4093929,17.27475 19.35475,17.3343929 19.2801071,17.3643929 L18.0608214,17.8668929 C17.9908214,17.8968929 17.9115357,17.8968929 17.8365357,17.8668929 C17.76725,17.83725 17.70725,17.78225 17.6776071,17.7076071 L17.2143929,16.5879643 C17.1101071,16.3340357 16.8215357,16.21475 16.5729643,16.3190357 C16.3190357,16.4236786 16.1993929,16.71225 16.3040357,16.9611786 L16.7665357,18.0808214 C16.8961786,18.3943929 17.1451071,18.6433214 17.4583214,18.7726071 C17.6176071,18.83725 17.7818929,18.87225 17.9461786,18.87225 C18.1104643,18.87225 18.2793929,18.83725 18.4340357,18.7726071 L19.6533214,18.2701071 C19.9665357,18.1404643 20.2154643,17.8918929 20.34475,17.5783214 C20.4743929,17.26475 20.4743929,16.9165357 20.34475,16.6029643 L20.0311786,15.8465357 C20.6433214,15.3936786 21.1761786,14.8561786 21.6340357,14.2440357 L22.3904643,14.5576071 C23.04225,14.8261786 23.7886786,14.5176071 24.05725,13.8658214 L24.56475,12.6465357 C24.8336786,11.9943929 24.5251071,11.2479643 23.8733214,10.9793929 L23.1168929,10.6658214 C23.2261786,9.91439286 23.2261786,9.15296429 23.1168929,8.40153571 L23.8733214,8.08832143 C24.1868929,7.95867857 24.4354643,7.70975 24.56475,7.39617857 C24.6943929,7.08296429 24.6943929,6.73439286 24.56475,6.42082143 L24.06225,5.20153571 C23.9329643,4.88796429 23.6840357,4.63939286 23.3704643,4.50975 C23.05725,4.38046429 22.7086786,4.38046429 22.3951071,4.50975 L21.6386786,4.82332143 C21.1858214,4.21153571 20.6483214,3.67403571 20.0411786,3.22082143 L20.35475,2.46439286 C20.4843929,2.15117857 20.4843929,1.80260714 20.35475,1.48903571 C20.2254643,1.17582143 19.9765357,0.926892857 19.6633214,0.79725 L18.4436786,0.28975 C17.7918929,0.0208214286 17.0454643,0.32975 16.7765357,0.981535714 L16.4633214,1.73796429 C15.7115357,1.62832143 14.9504643,1.62832143 14.1990357,1.73796429 L13.8851071,0.981535714 C13.7561786,0.667964286 13.50725,0.419392857 13.1936786,0.28975 C12.8801071,0.160464286 12.5318929,0.160464286 12.2183214,0.28975" id="Fill-499"></path>
                    <path d="M19.3346429,9.50142857 C19.3196429,7.30178571 17.5232143,5.525 15.3285714,5.525 L15.2989286,5.525 C14.2285714,5.535 13.2232143,5.95821429 12.4721429,6.71964286 C11.7207143,7.48071429 11.3125,8.49107143 11.3175,9.56107143 C11.3175,9.83 11.5414286,10.0489286 11.81,10.0489286 L11.815,10.0489286 C12.0889286,10.0489286 12.3078571,9.825 12.3028571,9.55107143 C12.2978571,8.745 12.6064286,7.98357143 13.1739286,7.40642857 C13.7410714,6.82892857 14.4975,6.51035714 15.3035714,6.50535714 L15.3235714,6.50535714 C16.9807143,6.50535714 18.3342857,7.84892857 18.3442857,9.50642857 C18.3542857,11.1735714 17.0107143,12.5371429 15.3435714,12.5521429 C15.07,12.5521429 14.8507143,12.7760714 14.8557143,13.0496429 C14.8557143,13.3182143 15.08,13.5375 15.3482143,13.5375 L15.3535714,13.5375 C17.5682143,13.5225 19.3496429,11.7110714 19.3346429,9.50142857" id="Fill-500"></path>
                    <path d="M4.78825,21.2011071 C4.70360714,21.1464643 4.60932143,21.1164643 4.51432143,21.1164643 C4.38503571,21.1164643 4.26075,21.1664643 4.16610714,21.26075 L3.54396429,21.8828929 C3.52432143,21.9028929 3.50432143,21.9078929 3.48932143,21.9078929 C3.47432143,21.9078929 3.45432143,21.9028929 3.43467857,21.8828929 L2.75789286,21.2061071 C2.72789286,21.1764643 2.72789286,21.1264643 2.75789286,21.0964643 L3.38003571,20.4746786 C3.54396429,20.3103929 3.57396429,20.0464643 3.43967857,19.8525357 C3.08110714,19.3200357 2.83753571,18.7278929 2.71325,18.10075 C2.66825,17.8718214 2.46432143,17.7025357 2.23039286,17.7025357 L1.34932143,17.7025357 C1.30467857,17.7025357 1.27003571,17.6678929 1.27003571,17.6228929 L1.27003571,16.6625357 C1.27003571,16.6178929 1.30467857,16.5828929 1.34932143,16.5828929 L2.23039286,16.5828929 C2.46432143,16.5828929 2.66825,16.4186071 2.71325,16.1846786 C2.83753571,15.5578929 3.08110714,14.96575 3.43967857,14.43325 C3.56896429,14.2389643 3.54396429,13.9750357 3.38003571,13.8111071 L2.75789286,13.1889643 C2.72789286,13.1593214 2.72789286,13.1093214 2.75789286,13.0793214 L3.43467857,12.4028929 C3.45432143,12.3828929 3.47432143,12.3778929 3.48932143,12.3778929 C3.50432143,12.3778929 3.52432143,12.3828929 3.54396429,12.4028929 L4.16610714,13.0346786 C4.33039286,13.1989643 4.59396429,13.2286071 4.78825,13.0943214 C5.32075,12.7361071 5.91289286,12.4921786 6.54003571,12.3678929 C6.76896429,12.3228929 6.93789286,12.1189643 6.93789286,11.8850357 L6.93789286,11.0043214 C6.93789286,10.9593214 6.97289286,10.9246786 7.01789286,10.9246786 L7.97825,10.9246786 C8.02289286,10.9246786 8.05789286,10.9593214 8.05789286,11.0043214 L8.05789286,11.8850357 C8.05789286,12.1189643 8.22217857,12.3228929 8.45610714,12.3678929 C9.08289286,12.4921786 9.67503571,12.7361071 10.2078929,13.0943214 C10.4018214,13.2239643 10.66575,13.1989643 10.8300357,13.0346786 L11.4518214,12.4125357 C11.4718214,12.3928929 11.4914643,12.3875357 11.5064643,12.3875357 C11.5214643,12.3875357 11.5414643,12.3928929 11.5611071,12.4125357 L12.2378929,13.0893214 C12.2578929,13.1093214 12.2628929,13.1293214 12.2628929,13.1439643 C12.2628929,13.1593214 12.2578929,13.1793214 12.2378929,13.1989643 L11.61575,13.82075 C11.4518214,13.9850357 11.4221786,14.2489643 11.5564643,14.4428929 C11.9146786,14.97575 12.1586071,15.5678929 12.2828929,16.1946786 C12.3275357,16.4239643 12.5318214,16.5928929 12.7653929,16.5928929 L13.6464643,16.5928929 C13.6914643,16.5928929 13.7261071,16.6275357 13.7261071,16.6725357 L13.7261071,17.6328929 C13.7261071,17.6775357 13.6914643,17.7125357 13.6464643,17.7125357 L12.7653929,17.7125357 C12.5318214,17.7125357 12.3275357,17.8768214 12.2828929,18.11075 C12.1586071,18.7378929 11.9146786,19.3300357 11.5564643,19.8625357 C11.4268214,20.0564643 11.4518214,20.3203929 11.61575,20.4843214 L12.2378929,21.1064643 C12.2578929,21.1264643 12.2628929,21.1464643 12.2628929,21.1611071 C12.2628929,21.1764643 12.2578929,21.1961071 12.2378929,21.2161071 L11.5611071,21.8928929 C11.5414643,21.9128929 11.5214643,21.9175357 11.5064643,21.9175357 C11.4914643,21.9175357 11.4718214,21.9128929 11.4518214,21.8928929 L10.8300357,21.27075 C10.66575,21.1064643 10.4018214,21.0768214 10.2078929,21.2111071 C9.67503571,21.5693214 9.08289286,21.81325 8.45610714,21.9375357 C8.22717857,21.9825357 8.05789286,22.1864643 8.05789286,22.4203929 L8.05789286,23.3011071 C8.05789286,23.3461071 8.02289286,23.3811071 7.97825,23.3811071 L7.01789286,23.3811071 C6.97289286,23.3811071 6.93789286,23.3461071 6.93789286,23.3011071 L6.93789286,22.4203929 C6.93789286,22.1864643 6.77360714,21.9825357 6.54003571,21.9375357 C5.91289286,21.80325 5.32075,21.5593214 4.78825,21.2011071 M7.01253571,24.3564643 L7.97325,24.3564643 C8.56039286,24.3564643 9.03825,23.8786071 9.03825,23.2914643 L9.03825,22.7986071 C9.51610714,22.6693214 9.97396429,22.4800357 10.4018214,22.2314643 L10.7500357,22.5796786 C10.9493214,22.7786071 11.2178929,22.89325 11.5014643,22.89325 C11.7853929,22.89325 12.0539643,22.7836071 12.2528929,22.5796786 L12.9296786,21.9028929 C13.1289643,21.7039643 13.24325,21.4350357 13.24325,21.1514643 C13.24325,20.8675357 13.1339643,20.5989643 12.9296786,20.4000357 L12.5814643,20.0514643 C12.8303929,19.6236071 13.0193214,19.16575 13.1486071,18.6878929 L13.6414643,18.6878929 C14.2286071,18.6878929 14.7064643,18.2103929 14.7064643,17.6228929 L14.7064643,16.6625357 C14.7064643,16.0753929 14.2286071,15.5975357 13.6414643,15.5975357 L13.1486071,15.5975357 C13.0193214,15.1200357 12.8303929,14.6621786 12.5814643,14.2339643 L12.9296786,13.88575 C13.1289643,13.6868214 13.24325,13.4178929 13.24325,13.1343214 C13.24325,12.8503929 13.1339643,12.5818214 12.9296786,12.3828929 L12.2528929,11.70575 C12.0539643,11.5068214 11.7853929,11.3925357 11.5014643,11.3925357 C11.2178929,11.3925357 10.9493214,11.5018214 10.7500357,11.70575 L10.4018214,12.0543214 C9.97396429,11.8053929 9.51610714,11.6164643 9.03825,11.4868214 L9.03825,10.9943214 C9.03825,10.4071786 8.56039286,9.92932143 7.97325,9.92932143 L7.01253571,9.92932143 C6.42575,9.92932143 5.94789286,10.4071786 5.94789286,10.9943214 L5.94789286,11.4868214 C5.47003571,11.6164643 5.01217857,11.8053929 4.58432143,12.0543214 L4.23610714,11.70575 C4.03682143,11.5068214 3.76789286,11.3925357 3.48432143,11.3925357 C3.20075,11.3925357 2.93217857,11.5018214 2.73289286,11.70575 L2.05610714,12.3828929 C1.64325,12.7961071 1.64325,13.4725357 2.05610714,13.88575 L2.40467857,14.2339643 C2.15575,14.6621786 1.96646429,15.1200357 1.83717857,15.5975357 L1.34467857,15.5975357 C0.757178571,15.5975357 0.279678571,16.0753929 0.279678571,16.6625357 L0.279678571,17.6228929 C0.279678571,18.2103929 0.757178571,18.6878929 1.34467857,18.6878929 L1.83717857,18.6878929 C1.96646429,19.16575 2.15575,19.6236071 2.40467857,20.0514643 L2.05610714,20.4000357 C1.64325,20.8128929 1.64325,21.4896786 2.05610714,21.9028929 L2.73289286,22.5796786 C2.93217857,22.7786071 3.20075,22.89325 3.48432143,22.89325 C3.76789286,22.89325 4.03682143,22.7836071 4.23610714,22.5796786 L4.58432143,22.2314643 C5.01217857,22.4800357 5.47003571,22.6693214 5.94789286,22.7986071 L5.94789286,23.2914643 C5.95253571,23.8786071 6.43039286,24.3564643 7.01253571,24.3564643" id="Fill-501"></path>
                    <path d="M5.55471429,17.1503929 C5.55471429,16.0800357 6.42542857,15.2093214 7.49542857,15.2093214 C8.56542857,15.2093214 9.43614286,16.0800357 9.43614286,17.1503929 C9.43614286,18.2203929 8.56542857,19.0911071 7.49542857,19.0911071 C6.42542857,19.0911071 5.55471429,18.2150357 5.55471429,17.1503929 M10.4168571,17.1503929 C10.4168571,15.5378929 9.10292857,14.2239643 7.49078571,14.2239643 C5.87828571,14.2239643 4.56935714,15.5378929 4.56935714,17.1503929 C4.56935714,18.7625357 5.88292857,20.0764643 7.49542857,20.0764643 C9.10792857,20.0764643 10.4168571,18.7625357 10.4168571,17.1503929" id="Fill-502"></path>
                </g>
            </g>
        </g>
    </g>
</svg>