<?xml version="1.0" encoding="UTF-8" standalone="no"?>
<svg width="35px" height="38px" viewBox="0 0 35 38" version="1.1" xmlns="http://www.w3.org/2000/svg" xmlns:xlink="http://www.w3.org/1999/xlink">
    <!-- Generator: Sketch 41.2 (35397) - http://www.bohemiancoding.com/sketch -->
    <title>Group 10 Copy 7</title>
    <desc>Created with Sketch.</desc>
    <defs></defs>
    <g id="Homepage" stroke="none" stroke-width="1" fill="none" fill-rule="evenodd">
        <g id="Desktop--Copy" transform="translate(-532.000000, -557.000000)">
            <g id="Group-10-Copy-7" transform="translate(532.000000, 557.000000)">
                <g id="Group-2-Copy-5" fill="#6EB245">
                    <circle id="Oval-2" cx="17.5" cy="17.5" r="17.5"></circle>
                    <polygon id="Rectangle-6" transform="translate(17.702201, 34.368867) rotate(-315.000000) translate(-17.702201, -34.368867) " points="20.2022006 31.8688672 20.2022006 36.8688672 15.2022006 36.8688672"></polygon>
                </g>
                <g id="Group-9" transform="translate(5.000000, 5.833333)" fill="#FFFFFF">
                    <path d="M1.668,14.643348 C1.668,12.3378088 3.482,7.79570098 4.27766667,5.91530882 C5.073,7.79570098 6.887,12.3378088 6.887,14.643348 C6.887,15.983299 5.929,17.0971225 4.681,17.2971716 L4.681,14.8152598 L5.854,13.6077598 C6.01166667,13.4454559 6.01166667,13.1822696 5.854,13.0203088 C5.69666667,12.8580049 5.441,12.8580049 5.28366667,13.0203088 L4.681,13.6403578 L4.681,12.870701 C4.681,12.6414853 4.50033333,12.4555049 4.27766667,12.4555049 C4.05466667,12.4555049 3.874,12.6414853 3.874,12.870701 L3.874,14.9696716 L3.27166667,14.3496225 C3.114,14.1873186 2.85833333,14.1873186 2.70066667,14.3496225 C2.543,14.5119265 2.543,14.7747696 2.70066667,14.9370735 L3.874,16.1445735 L3.874,17.2971716 C2.626,17.0971225 1.668,15.983299 1.668,14.643348 Z M17.5943333,9.29864216 L18.5086667,9.29864216 L18.5086667,10.6554069 C18.5086667,10.9148186 18.3036667,11.1261912 18.0513333,11.1261912 C17.7993333,11.1261912 17.5943333,10.9148186 17.5943333,10.6554069 L17.5943333,9.29864216 Z M20.1766667,16.5264853 C20.1766667,16.1558971 20.335,15.0475637 20.6316667,13.9299657 C21.0633333,12.3038382 21.4256667,12.005652 21.4953333,11.9620735 C21.5643333,12.005652 21.927,12.3038382 22.3583333,13.9299657 C22.6553333,15.0475637 22.8133333,16.1558971 22.8133333,16.5264853 C22.8133333,17.080652 22.4286667,17.5510931 21.8986667,17.7127108 L21.8986667,16.8589853 C21.8986667,16.6294265 21.718,16.4434461 21.4953333,16.4434461 C21.272,16.4434461 21.0916667,16.6294265 21.0916667,16.8589853 L21.0916667,17.7127108 C20.5613333,17.5510931 20.1766667,17.080652 20.1766667,16.5264853 Z M24.508,22.2036912 L21.8986667,22.2036912 L21.8986667,18.5654069 C22.878,18.3804559 23.6203333,17.5370245 23.6203333,16.5264853 C23.6203333,16.0152108 23.4216667,14.7421716 23.1006667,13.5768775 C22.6403333,11.9047696 22.13,11.1261912 21.4953333,11.1261912 C20.86,11.1261912 20.3496667,11.9047696 19.8893333,13.5768775 C19.5683333,14.7421716 19.3696667,16.0152108 19.3696667,16.5264853 C19.3696667,17.5370245 20.112,18.3804559 21.0916667,18.5654069 L21.0916667,22.2036912 L18.455,22.2036912 L18.455,11.8886422 C18.955,11.7150147 19.316,11.2277598 19.316,10.6554069 L19.316,8.88310294 C19.316,8.65354412 19.1353333,8.46756373 18.9123333,8.46756373 L18.455,8.46756373 L18.455,7.96898529 L19.343,7.96898529 C19.5656667,7.96898529 19.7466667,7.78334804 19.7466667,7.55344608 C19.7466667,7.32423039 19.5656667,7.13825 19.343,7.13825 L16.76,7.13825 C16.5373333,7.13825 16.3566667,7.32423039 16.3566667,7.55344608 C16.3566667,7.78334804 16.5373333,7.96898529 16.76,7.96898529 L17.648,7.96898529 L17.648,8.46756373 L17.1906667,8.46756373 C16.9676667,8.46756373 16.7873333,8.65354412 16.7873333,8.88310294 L16.7873333,10.6554069 C16.7873333,11.2277598 17.1483333,11.7150147 17.648,11.8886422 L17.648,22.2036912 L16.237,22.2036912 L7.81366667,22.2036912 L4.681,22.2036912 L4.681,18.1351127 C6.37533333,17.9288873 7.694,16.4420735 7.694,14.643348 C7.694,11.5228578 4.768,4.99638725 4.64366667,4.72016176 C4.57733333,4.57364216 4.43466667,4.47962255 4.27766667,4.47962255 C4.12033333,4.47962255 3.97766667,4.57364216 3.91133333,4.72016176 C3.787,4.99638725 0.861,11.5228578 0.861,14.643348 C0.861,16.4420735 2.17933333,17.9288873 3.874,18.1351127 L3.874,22.2036912 L0.403666667,22.2036912 C0.180666667,22.2036912 0,22.3896716 0,22.6192304 C0,22.8484461 0.180666667,23.0344265 0.403666667,23.0344265 L24.508,23.0344265 C24.731,23.0344265 24.9116667,22.8484461 24.9116667,22.6192304 C24.9116667,22.3896716 24.731,22.2036912 24.508,22.2036912 Z" id="Fill-494"></path>
                    <path d="M9.51256667,18.7206765 L14.4279,18.7206765 L14.4279,18.1551863 L9.51256667,18.1551863 L9.51256667,18.7206765 Z M9.51256667,20.0503333 L14.4279,20.0503333 L14.4279,19.7363627 L9.51256667,19.7363627 L9.51256667,20.0503333 Z M9.51256667,22.2158725 L14.4279,22.2158725 L14.4279,21.0653333 L9.51256667,21.0653333 L9.51256667,22.2158725 Z M15.4142333,22.2158725 L15.4142333,21.0656765 L15.6275667,21.0656765 C15.8995667,21.0656765 16.1205667,20.8381765 16.1205667,20.5578333 C16.1205667,20.2774902 15.8995667,20.0503333 15.6275667,20.0503333 L15.4142333,20.0503333 L15.4142333,17.6476863 C15.4142333,17.367 15.1932333,17.1398431 14.9209,17.1398431 L9.01923333,17.1398431 C8.7469,17.1398431 8.52623333,17.367 8.52623333,17.6476863 L8.52623333,20.0503333 L8.3129,20.0503333 C8.04056667,20.0503333 7.81956667,20.2774902 7.81956667,20.5578333 C7.81956667,20.8381765 8.04056667,21.0656765 8.3129,21.0656765 L8.52623333,21.0656765 L8.52623333,22.2158725 L15.4142333,22.2158725 Z" id="Fill-496"></path>
                    <path d="M14.6535333,5.82715686 L10.1885333,5.82715686 C9.96986667,5.82715686 9.7922,5.64426471 9.7922,5.41916667 C9.7922,5.19441176 9.96986667,5.01117647 10.1885333,5.01117647 C10.3968667,5.01117647 10.5658667,4.83754902 10.5658667,4.62308824 C10.5658667,4.40828431 10.3968667,4.23465686 10.1885333,4.23465686 L9.06853333,4.23465686 C8.8502,4.23465686 8.67253333,4.05142157 8.67253333,3.82666667 C8.67253333,3.60156863 8.8502,3.41867647 9.06853333,3.41867647 L11.7355333,3.41867647 C11.9542,3.41867647 12.1318667,3.60156863 12.1318667,3.82666667 C12.1318667,4.05142157 11.9542,4.23465686 11.7355333,4.23465686 C11.5272,4.23465686 11.3582,4.40828431 11.3582,4.62308824 C11.3582,4.83754902 11.5272,5.01117647 11.7355333,5.01117647 L14.6535333,5.01117647 C14.8722,5.01117647 15.0498667,5.19441176 15.0498667,5.41916667 C15.0498667,5.64426471 14.8722,5.82715686 14.6535333,5.82715686 M9.05653333,5.20539216 C9.04886667,5.20539216 9.04186667,5.20573529 9.03453333,5.20573529 C7.84853333,5.20573529 6.88386667,4.21235294 6.88386667,2.99112745 C6.88386667,1.77058824 7.84853333,0.777205882 9.03453333,0.777205882 C10.1048667,0.777205882 10.9948667,1.58632353 11.1582,2.64181373 L9.06886667,2.64181373 C8.4342,2.64181373 7.91786667,3.17333333 7.91786667,3.82666667 C7.91786667,4.48 8.4342,5.01151961 9.06886667,5.01151961 L9.10786667,5.01151961 C9.08553333,5.07362745 9.06853333,5.13848039 9.05653333,5.20539216 M14.6535333,4.23431373 L12.8165333,4.23431373 C12.8618667,4.10735294 12.8865333,3.9697549 12.8865333,3.82666667 C12.8865333,3.23852941 12.4682,2.74921569 11.9215333,2.65759804 C11.7595333,1.16495098 10.5268667,0 9.0342,0 C7.43253333,0 6.1292,1.3420098 6.1292,2.99112745 C6.1292,4.64058824 7.43253333,5.98259804 9.03453333,5.98259804 C9.08086667,5.98259804 9.12753333,5.98088235 9.1742,5.97848039 C9.36886667,6.35078431 9.75053333,6.60401961 10.1885333,6.60401961 L14.6535333,6.60401961 C15.2882,6.60401961 15.8045333,6.0725 15.8045333,5.41916667 C15.8045333,4.76583333 15.2882,4.23431373 14.6535333,4.23431373" id="Fill-498"></path>
                </g>
            </g>
        </g>
    </g>
</svg>