<?xml version="1.0" encoding="UTF-8" standalone="no"?>
<svg width="161px" height="50px" viewBox="0 0 161 50" version="1.1" xmlns="http://www.w3.org/2000/svg" xmlns:xlink="http://www.w3.org/1999/xlink">
    <!-- Generator: Sketch 41.2 (35397) - http://www.bohemiancoding.com/sketch -->
    <title>Group 8</title>
    <desc>Created with Sketch.</desc>
    <defs></defs>
    <g id="test" stroke="none" stroke-width="1" fill="none" fill-rule="evenodd">
        <g id="Artboard" transform="translate(-83.000000, -9.000000)" fill="#01418F">
            <g id="Group-8" transform="translate(83.000000, 9.000000)">
                <path d="M6.965,5.49621985 C6.965,4.75038033 6.77357143,4.22737013 6.39142857,3.92931818 C6.00928571,3.63055659 5.39428571,3.48153061 4.54785714,3.48153061 L3.74928571,3.48153061 L3.74928571,7.30724026 L4.48642857,7.30724026 C6.13857143,7.30724026 6.965,6.70403989 6.965,5.49621985 L6.965,5.49621985 Z M11.615,14.9806586 L7.10857143,14.9806586 L3.74928571,9.28147959 L3.74928571,14.9806586 L0,14.9806586 L0,0.428627087 L4.425,0.428627087 C5.68142857,0.428627087 6.58285714,0.469076994 7.12857143,0.550686456 C7.98928571,0.686229128 8.69928571,0.971507421 9.25928571,1.40510204 C10.3521429,2.24674397 10.8985714,3.43398423 10.8985714,4.96682282 C10.8985714,7.27388683 9.80571429,8.65769944 7.62071429,9.11897032 L11.615,14.9806586 Z" id="Fill-516"></path>
                <polygon id="Fill-517" points="22.5442857 14.9806586 13.5714286 14.9806586 13.5714286 0.428627087 22.5442857 0.428627087 22.5442857 3.62416976 17.4642857 3.62416976 17.4642857 6.14767625 22.2578571 6.14767625 22.2578571 9.26160946 17.4642857 9.26160946 17.4642857 11.7240863 22.5442857 11.7240863"></polygon>
                <path d="M43.1171429,0.428627087 L38.9792857,14.9806586 L35.2714286,14.9806586 L33.4685714,8.77266234 C33.3864286,8.48809369 33.2221429,7.83663729 32.9764286,6.81900278 C32.8671429,7.28027365 32.7035714,7.93173006 32.485,8.77266234 L30.7028571,14.9806586 L26.995,14.9806586 L22.8571429,0.428627087 L26.8928571,0.428627087 L28.5721429,7.38884972 C28.7492857,8.12191558 28.9,8.84788497 29.0228571,9.56675788 C29.1321429,8.98342764 29.3028571,8.25745826 29.535,7.38884972 L31.3785714,0.428627087 L34.595,0.428627087 L36.4385714,7.34839981 C36.63,8.05378942 36.7735714,8.69176252 36.8685714,9.26160946 L36.91,9.48514842 C37.0192857,8.94297774 37.1692857,8.23049165 37.3607143,7.34839981 L39.0814286,0.428627087 L43.1171429,0.428627087 Z" id="Fill-518"></path>
                <polygon id="Fill-519" points="45 14.9806586 49.0357143 14.9806586 49.0357143 0.428627087 45 0.428627087"></polygon>
                <polygon id="Fill-520" points="61.2435714 3.84770872 57.9657143 3.84770872 57.9657143 14.9806586 53.9714286 14.9806586 53.9714286 3.84770872 50.7142857 3.84770872 50.7142857 0.428627087 61.2435714 0.428627087"></polygon>
                <path d="M70.2814286,9.54617811 L68.7857143,4.74328386 C68.7585714,4.64819109 68.5942857,3.99744434 68.2942857,2.7896243 C68.0485714,3.76609926 67.8778571,4.41755566 67.7821429,4.74328386 L66.3071429,9.54617811 L70.2814286,9.54617811 Z M75.8328571,14.9806586 L71.8585714,14.9806586 L71.1214286,12.3755427 L65.4464286,12.3755427 L64.6885714,14.9806586 L60.7142857,14.9806586 L65.7742857,0.428627087 L70.7728571,0.428627087 L75.8328571,14.9806586 Z" id="Fill-521"></path>
                <polygon id="Fill-522" points="86.0957143 14.9806586 77.1428571 14.9806586 77.1428571 0.428627087 81.1378571 0.428627087 81.1378571 11.561577 86.0957143 11.561577"></polygon>
                <polygon id="Fill-523" points="88.5714286 14.9806586 92.6064286 14.9806586 92.6064286 0.428627087 88.5714286 0.428627087"></polygon>
                <polygon id="Fill-524" points="108.072143 0.428627087 100.697857 11.8056957 107.232143 11.8056957 107.232143 14.9806586 94.2857143 14.9806586 101.681429 3.5830102 95.74 3.5830102 95.74 0.428627087"></polygon>
                <path d="M117.424286,9.54617811 L115.928571,4.74328386 C115.901429,4.64819109 115.737857,3.99744434 115.437143,2.7896243 C115.191429,3.76609926 115.020714,4.41755566 114.925,4.74328386 L113.450714,9.54617811 L117.424286,9.54617811 Z M122.975714,14.9806586 L119.001429,14.9806586 L118.264286,12.3755427 L112.589286,12.3755427 L111.831429,14.9806586 L107.857143,14.9806586 L112.917143,0.428627087 L117.915714,0.428627087 L122.975714,14.9806586 Z" id="Fill-525"></path>
                <path d="M134.797857,14.7769898 C133.527857,15.3872866 132.264286,15.6931447 131.007857,15.6931447 C128.85,15.6931447 127.071429,14.9700139 125.671429,13.5251716 C124.271429,12.0803293 123.571429,10.2586642 123.571429,8.0608859 C123.571429,5.86239796 124.271429,4.04144249 125.671429,2.59589054 C127.071429,1.15104824 128.85,0.428627087 131.007857,0.428627087 C132.264286,0.428627087 133.527857,0.73377551 134.797857,1.34407236 L134.797857,5.67930891 C133.745714,4.51264842 132.619286,3.92931818 131.417857,3.92931818 C130.27,3.92931818 129.341429,4.32317254 128.631429,5.10946197 C127.921429,5.89646104 127.566429,6.90770872 127.566429,8.14178571 C127.566429,9.28147959 127.921429,10.2416327 128.631429,11.0215353 C129.341429,11.8021475 130.27,12.1924536 131.417857,12.1924536 C132.619286,12.1924536 133.745714,11.6091234 134.797857,10.4417532 L134.797857,14.7769898 Z" id="Fill-526"></path>
                <path d="M143.685714,9.85132653 C143.685714,11.4253247 143.472143,12.5855983 143.047143,13.3314378 C142.265,14.6882839 141.016429,15.3667069 139.301429,15.3667069 C137.457857,15.3667069 136.023571,14.5939007 135,13.0468692 L137.437143,10.8490909 C137.560714,11.7439564 137.977143,12.191744 138.687143,12.191744 C139.137857,12.191744 139.431429,11.8738219 139.567857,11.2358488 C139.65,10.8015445 139.690714,9.86551948 139.690714,8.42706401 L139.690714,0.428627087 L143.685714,0.428627087 L143.685714,9.85132653 Z" id="Fill-527"></path>
                <path d="M154.567143,9.54617811 L153.071429,4.74328386 C153.044286,4.64819109 152.880714,3.99744434 152.58,2.7896243 C152.334286,3.76609926 152.163571,4.41755566 152.067857,4.74328386 L150.593571,9.54617811 L154.567143,9.54617811 Z M160.118571,14.9806586 L156.144286,14.9806586 L155.407143,12.3755427 L149.732143,12.3755427 L148.974286,14.9806586 L145,14.9806586 L150.06,0.428627087 L155.058571,0.428627087 L160.118571,14.9806586 Z" id="Fill-528"></path>
                <polygon id="Fill-529" points="18.7507143 48.9081957 0.714285714 48.9081957 0.714285714 19.5891095 8.76214286 19.5891095 8.76214286 42.0189378 18.7507143 42.0189378"></polygon>
                <polygon id="Fill-530" points="40.935 48.9081957 22.8571429 48.9081957 22.8571429 19.5891095 40.935 19.5891095 40.935 26.0270315 30.6992857 26.0270315 30.6992857 31.1116558 40.3571429 31.1116558 40.3571429 37.3856494 30.6992857 37.3856494 30.6992857 42.3475046 40.935 42.3475046"></polygon>
                <path d="M65.3635714,39.3414378 C65.3635714,42.431243 64.3378571,44.9249443 62.2885714,46.8246707 C60.2385714,48.7251067 57.4935714,49.6753247 54.0542857,49.6753247 C50.1192857,49.6753247 46.625,48.2397078 43.5714286,45.3698933 L47.2028571,39.423757 C49.5692857,42.1033859 51.9085714,43.4424907 54.2192857,43.4424907 C55.32,43.4424907 56.2071429,43.1550835 56.8821429,42.5809787 C57.5557143,42.0068738 57.8928571,41.2830334 57.8928571,40.408038 C57.8928571,39.3144712 57.48,38.4806354 56.6542857,37.9065306 C56.0214286,37.4417115 54.7828571,36.977602 52.94,36.5120733 C50.1885714,35.8017161 48.2071429,34.8451113 46.9964286,33.6415492 C45.6757143,32.3847635 45.0157143,30.6347727 45.0157143,28.3929963 C45.0157143,25.6317579 45.9507143,23.356628 47.8221429,21.5654777 C49.6928571,19.7757468 52.1557143,18.879462 55.21,18.879462 C58.5121429,18.879462 61.4278571,19.755167 63.96,21.5037384 L61.4421429,27.2447866 C59.5985714,25.6864007 57.7135714,24.9072078 55.7878571,24.9072078 C54.8242857,24.9072078 54.04,25.1399722 53.435,25.6047913 C52.83,26.0696104 52.5271429,26.6571985 52.5271429,27.3675557 C52.5271429,28.2971939 52.9814286,29.0082607 53.8892857,29.5000464 C54.3842857,29.7739703 55.4992857,30.142987 57.2321429,30.6070965 C60.0657143,31.3451299 62.075,32.3024443 63.2585714,33.4776206 C64.6614286,34.8174351 65.3635714,36.7725139 65.3635714,39.3414378" id="Fill-531"></path>
                <polygon id="Fill-532" points="94.92 19.5891095 80.0607143 42.5114332 93.2278571 42.5114332 93.2278571 48.9081957 67.1428571 48.9081957 82.0421429 25.9454221 70.0728571 25.9454221 70.0728571 19.5891095"></polygon>
                <path d="M126.707143,48.9081957 L118.988571,48.9081957 L107.845,33.7770918 C107.35,33.0944109 106.455,31.3855798 105.162143,28.651308 C105.464286,31.057013 105.615714,32.9844156 105.615714,34.4328061 L105.615714,48.9081957 L97.8571429,48.9081957 L97.8571429,19.5891095 L105.615714,19.5891095 L116.76,34.6790538 C117.227857,35.3085111 118.122143,37.0308256 119.442857,39.8459972 C119.14,37.4402922 118.988571,35.5135993 118.988571,34.0637894 L118.988571,19.5891095 L126.707143,19.5891095 L126.707143,48.9081957 Z" id="Fill-533"></path>
                <path d="M148.560714,37.9597542 L145.547143,28.2822913 C145.492857,28.0913961 145.162143,26.7792579 144.557143,24.3458766 C144.061429,26.3137291 143.717857,27.6258673 143.525,28.2822913 L140.553571,37.9597542 L148.560714,37.9597542 Z M159.745714,48.9081957 L151.738571,48.9081957 L150.252857,43.6596429 L138.82,43.6596429 L137.292857,48.9081957 L129.285714,48.9081957 L139.480714,19.5891095 L149.550714,19.5891095 L159.745714,48.9081957 Z" id="Fill-534"></path>
            </g>
        </g>
    </g>
</svg>