<?xml version="1.0" encoding="UTF-8" standalone="no"?>
<svg width="67px" height="22px" viewBox="0 0 67 22" version="1.1" xmlns="http://www.w3.org/2000/svg" xmlns:xlink="http://www.w3.org/1999/xlink">
    <!-- Generator: Sketch 39.1 (31720) - http://www.bohemiancoding.com/sketch -->
    <title>lari cms</title>
    <desc>Created with Sketch.</desc>
    <defs></defs>
    <g id="Homepage" stroke="none" stroke-width="1" fill="none" fill-rule="evenodd">
        <g id="Desktop-" transform="translate(-33.000000, -18.000000)">
            <g id="lari-cms" transform="translate(33.000000, 18.000000)">
                <path d="M44.192,21 L44.192,17.072 L45.616,17.072 L45.616,15.664 L41.144,15.664 L41.144,17.072 L42.576,17.072 L42.576,21 L44.192,21 Z M52.528,21 L52.528,15.664 L50.296,15.664 L49.36,18.224 L48.424,15.664 L46.192,15.664 L46.192,21 L47.808,21 L47.808,17.792 L49,21 L49.72,21 L50.912,17.792 L50.912,21 L52.528,21 Z" id="TM" fill="#FFFFFF" opacity="0.41954291"></path>
                <path d="M5.15234375,21 L0.53125,21 L0.53125,0 L5.15234375,0 L5.15234375,21 Z M16.3222656,21 C16.1582023,20.6992172 16.0123704,20.2571644 15.8847656,19.6738281 C15.0371051,20.7402397 13.8522212,21.2734375 12.3300781,21.2734375 C10.9355399,21.2734375 9.75065592,20.8518922 8.77539062,20.0087891 C7.80012533,19.1656859 7.3125,18.1061262 7.3125,16.8300781 C7.3125,15.2259034 7.90494199,14.013676 9.08984375,13.1933594 C10.2747455,12.3730428 11.9973845,11.9628906 14.2578125,11.9628906 L15.6796875,11.9628906 L15.6796875,11.1835938 C15.6796875,9.82551404 15.0918028,9.14648438 13.9160156,9.14648438 C12.8222602,9.14648438 12.2753906,9.68423941 12.2753906,10.7597656 L7.66796875,10.7597656 C7.66796875,9.32876889 8.2763611,8.16667113 9.49316406,7.2734375 C10.709967,6.38020387 12.2617093,5.93359375 14.1484375,5.93359375 C16.0351657,5.93359375 17.5253852,6.39387561 18.6191406,7.31445312 C19.7128961,8.23503064 20.2734374,9.49738781 20.3007812,11.1015625 L20.3007812,17.6503906 C20.3190105,19.0084703 20.5286438,20.0475224 20.9296875,20.7675781 L20.9296875,21 L16.3222656,21 Z M13.4375,17.9921875 C14.0117216,17.9921875 14.4879538,17.8691419 14.8662109,17.6230469 C15.244468,17.3769519 15.5156242,17.0989599 15.6796875,16.7890625 L15.6796875,14.4238281 L14.3398438,14.4238281 C12.7356691,14.4238281 11.9335938,15.143873 11.9335938,16.5839844 C11.9335938,17.0032573 12.0748684,17.3427721 12.3574219,17.6025391 C12.6399754,17.862306 12.9999978,17.9921875 13.4375,17.9921875 L13.4375,17.9921875 Z M31.7988281,10.3769531 L30.28125,10.2675781 C28.832024,10.2675781 27.9023458,10.7233027 27.4921875,11.6347656 L27.4921875,21 L22.8847656,21 L22.8847656,6.20703125 L27.2050781,6.20703125 L27.3554688,8.10742188 C28.1302122,6.65819588 29.2102795,5.93359375 30.5957031,5.93359375 C31.0878931,5.93359375 31.5162742,5.9882807 31.8808594,6.09765625 L31.7988281,10.3769531 Z M38.3203125,21 L33.6992188,21 L33.6992188,6.20703125 L38.3203125,6.20703125 L38.3203125,21 Z M33.4257812,2.39257812 C33.4257812,1.73632484 33.662758,1.1985698 34.1367188,0.779296875 C34.6106795,0.360023945 35.2259077,0.150390625 35.9824219,0.150390625 C36.7389361,0.150390625 37.3541643,0.360023945 37.828125,0.779296875 C38.3020857,1.1985698 38.5390625,1.73632484 38.5390625,2.39257812 C38.5390625,3.04883141 38.3020857,3.58658645 37.828125,4.00585938 C37.3541643,4.4251323 36.7389361,4.63476562 35.9824219,4.63476562 C35.2259077,4.63476562 34.6106795,4.4251323 34.1367188,4.00585938 C33.662758,3.58658645 33.4257812,3.04883141 33.4257812,2.39257812 L33.4257812,2.39257812 Z" id="lari" fill="#FFFFFF"></path>
                <path d="M44.608,13.192 C46.192,13.192 47.152,12.488 47.664,11.784 L46.336,10.536 C45.968,11.064 45.408,11.384 44.704,11.384 C43.472,11.384 42.608,10.472 42.608,9.128 C42.608,7.784 43.472,6.888 44.704,6.888 C45.408,6.888 45.968,7.176 46.336,7.72 L47.664,6.472 C47.152,5.768 46.192,5.08 44.608,5.08 C42.24,5.08 40.512,6.76 40.512,9.128 C40.512,11.512 42.24,13.192 44.608,13.192 L44.608,13.192 Z M59.7351111,13 L59.7351111,7.416 C59.7351111,5.832 58.8871111,5.08 57.4631111,5.08 C56.2791111,5.08 55.2551111,5.784 54.8071111,6.472 C54.5351111,5.608 53.7991111,5.08 52.6631111,5.08 C51.4791111,5.08 50.4711111,5.816 50.1351111,6.264 L50.1351111,5.272 L48.1031111,5.272 L48.1031111,13 L50.1351111,13 L50.1351111,7.784 C50.4391111,7.368 51.0311111,6.888 51.7351111,6.888 C52.5671111,6.888 52.8871111,7.4 52.8871111,8.12 L52.8871111,13 L54.9351111,13 L54.9351111,7.784 C55.2231111,7.368 55.8151111,6.888 56.5351111,6.888 C57.3671111,6.888 57.6871111,7.4 57.6871111,8.12 L57.6871111,13 L59.7351111,13 Z M63.6462222,13.192 C65.7902222,13.192 67.0062222,12.152 67.0062222,10.728 C67.0062222,7.608 62.4142222,8.568 62.4142222,7.432 C62.4142222,7 62.8942222,6.68 63.6302222,6.68 C64.5742222,6.68 65.4542222,7.096 65.9182222,7.576 L66.7342222,6.136 C65.9662222,5.528 64.9262222,5.08 63.6302222,5.08 C61.5822222,5.08 60.4622222,6.216 60.4622222,7.512 C60.4622222,10.552 65.0382222,9.512 65.0382222,10.776 C65.0382222,11.256 64.6222222,11.592 63.7422222,11.592 C62.7822222,11.592 61.6462222,11.064 61.0702222,10.52 L60.1902222,11.992 C61.0062222,12.744 62.3022222,13.192 63.6462222,13.192 L63.6462222,13.192 Z" id="cms" fill="#00AEFF"></path>
            </g>
        </g>
    </g>
</svg>